<svg width="186" height="171" viewBox="0 0 186 171" fill="none" xmlns="http://www.w3.org/2000/svg">
<path d="M158.552 68.3513C194.982 89.3393 195.173 123.369 158.98 144.358C122.785 165.347 63.9108 165.347 27.4808 144.359C-8.95056 123.371 -9.1427 89.3407 27.0519 68.3513C63.2461 47.3623 122.12 47.3618 158.552 68.3513Z" fill="#292D2C"/>
<path d="M185.999 106.619L185.968 117.519C185.929 131.185 176.929 144.831 158.948 155.258C122.754 176.247 63.8793 176.247 27.4494 155.259C9.11654 144.697 -0.0395741 130.833 0.000128562 116.99L0.0310027 106.091C-0.00820985 119.934 9.14791 133.798 27.4803 144.36C63.9102 165.348 122.784 165.348 158.979 144.358C176.96 133.931 185.96 120.285 185.999 106.619Z" fill="#373A39"/>
<path d="M139.687 109.887L92.5305 137.286L45.0804 109.887L92.2194 82.4716L139.687 109.887Z" fill="#D6D4D4" stroke="#E6E6E9" stroke-width="6.06" stroke-miterlimit="10" stroke-linecap="round" stroke-linejoin="round"/>
<path d="M152.513 55.7128L152.375 104.373L93.3776 138.651L93.5159 89.9909L152.513 55.7128Z" fill="url(#paint0_linear_7_403)"/>
<path d="M93.5158 89.9909L93.3775 138.651L34 104.373L34.1383 55.7128L93.5158 89.9909Z" fill="url(#paint1_linear_7_403)"/>
<path d="M152.513 55.7128L93.5158 89.991L34.1384 55.7128L93.1355 21.4347L152.513 55.7128Z" fill="url(#paint2_linear_7_403)"/>
<path d="M54.2592 55.6782L93.1528 33.0854L132.392 55.7474L93.5158 78.3402L54.2592 55.6782Z" fill="url(#paint3_linear_7_403)"/>
<path d="M93.1529 33.0854V44.9436L64.5099 61.59L54.2766 55.6782L93.1529 33.0854Z" fill="url(#paint4_linear_7_403)"/>
<path d="M122.159 61.6938L93.4985 78.3403L64.5098 61.5901L93.1528 44.9437L122.159 61.6938Z" fill="url(#paint5_linear_7_403)"/>
<path d="M132.392 55.7301L122.159 61.6937L93.1529 44.9436V33.0854L132.392 55.7301Z" fill="url(#paint6_linear_7_403)"/>
<path d="M139.462 101.158V101.21L106.359 120.449L106.377 113.967L134.173 97.8215L139.462 101.158Z" fill="#B2CCEB"/>
<path d="M139.548 73.915L139.462 101.158L134.172 97.8216L134.224 77.0092L139.548 73.915Z" fill="#123B6D"/>
<path d="M134.224 77.0091L134.173 97.8214L106.377 113.967L106.446 93.1542L134.224 77.0091Z" fill="#96BEED"/>
<path d="M139.548 73.915V101.21L139.462 101.158L134.172 97.8216L134.224 77.0092L139.548 73.915Z" fill="#7CACE5"/>
<path d="M53.3258 104.01V104.062L72.5306 115.384L72.5133 108.902L58.6153 100.656L53.3258 104.01Z" fill="#97C5FA" fill-opacity="0.58"/>
<path d="M53.2394 76.7499L53.3259 104.01L58.6154 100.656L58.5635 79.8613L53.2394 76.7499Z" fill="#123B6D"/>
<path d="M58.5635 79.8613L58.6153 100.656L72.5133 108.902L72.4441 88.0895L58.5635 79.8613Z" fill="#529FFA" fill-opacity="0.52"/>
<path d="M53.2394 76.7499V104.062L53.3259 104.01L58.6154 100.656L58.5635 79.8614L53.2394 76.7499Z" fill="#7CACE5"/>
<path d="M62.7294 86.7932L67.8115 89.8009" stroke="#29174C" stroke-width="0.5" stroke-miterlimit="10" stroke-linecap="round" stroke-linejoin="round"/>
<path d="M62.7294 89.8354L67.8115 92.8432" stroke="#29174C" stroke-width="0.5" stroke-miterlimit="10" stroke-linecap="round" stroke-linejoin="round"/>
<path d="M62.7294 92.8778L67.8115 95.8856" stroke="#29174C" stroke-width="0.5" stroke-miterlimit="10" stroke-linecap="round" stroke-linejoin="round"/>
<path d="M62.7294 95.9028L67.8115 98.9278" stroke="#29174C" stroke-width="0.5" stroke-miterlimit="10" stroke-linecap="round" stroke-linejoin="round"/>
<path d="M62.7294 98.9451L67.8115 101.97" stroke="#29174C" stroke-width="0.5" stroke-miterlimit="10" stroke-linecap="round" stroke-linejoin="round"/>
<path d="M113.516 92.6531L113.498 95.8337L109.263 98.2883V95.1077L113.516 92.6531Z" fill="#D6D4D4"/>
<path d="M119.566 89.2304V92.411L115.331 94.8656V91.7023L119.566 89.2304Z" fill="#B3DDB7"/>
<path d="M125.633 85.8078V88.9884L121.381 91.4603L121.398 88.2797L125.633 85.8078Z" fill="#B3DDB7"/>
<path d="M131.701 82.3852L131.683 85.5658L127.448 88.0377V84.8571L131.701 82.3852Z" fill="#B3DDB7"/>
<path d="M113.516 97.787L113.498 100.95L109.263 103.422V100.242L113.516 97.787Z" fill="#D6D4D4"/>
<path d="M119.566 94.3644V97.5451L115.331 99.9997V96.8191L119.566 94.3644Z" fill="#B3DDB7"/>
<path d="M125.633 90.9418V94.1224L121.381 96.577L121.398 93.4137L125.633 90.9418Z" fill="#B3DDB7"/>
<path d="M131.701 87.5192L131.683 90.6998L127.448 93.1717V89.9911L131.701 87.5192Z" fill="#D6D4D4"/>
<path d="M113.516 102.904L113.498 106.084L109.263 108.556V105.376L113.516 102.904Z" fill="#B3DDB7"/>
<path d="M119.566 99.4984V102.662L115.331 105.134V101.953L119.566 99.4984Z" fill="#D6D4D4"/>
<path d="M125.633 96.0756V99.239L121.381 101.711L121.398 98.5302L125.633 96.0756Z" fill="#D6D4D4"/>
<path d="M131.701 92.6531L131.683 95.8337L127.448 98.2883V95.1077L131.701 92.6531Z" fill="#B3DDB7"/>
<path opacity="0.5" d="M93.3257 13.4831V78.2192L54.2766 55.6783V1.95325L93.3257 13.4831Z" fill="#97C5FA"/>
<path opacity="0.7" d="M132.548 0V55.6782L93.5158 78.2192L93.4121 78.2883L93.3256 78.3402V13.4831L132.548 0Z" fill="#C8DFFB"/>
<defs>
<linearGradient id="paint0_linear_7_403" x1="93.386" y1="97.1817" x2="152.521" y2="97.1817" gradientUnits="userSpaceOnUse">
<stop stop-color="white"/>
<stop offset="1" stop-color="#BABABA"/>
</linearGradient>
<linearGradient id="paint1_linear_7_403" x1="34.0031" y1="97.1821" x2="93.5239" y2="97.1821" gradientUnits="userSpaceOnUse">
<stop stop-color="white"/>
<stop offset="1" stop-color="#BABABA"/>
</linearGradient>
<linearGradient id="paint2_linear_7_403" x1="102.745" y1="90.8895" x2="82.5073" y2="15.2639" gradientUnits="userSpaceOnUse">
<stop stop-color="white"/>
<stop offset="1" stop-color="#BABABA"/>
</linearGradient>
<linearGradient id="paint3_linear_7_403" x1="54.2646" y1="55.7111" x2="132.397" y2="55.7111" gradientUnits="userSpaceOnUse">
<stop stop-color="#053F9B"/>
<stop offset="1" stop-color="#1B266A"/>
</linearGradient>
<linearGradient id="paint4_linear_7_403" x1="54.2699" y1="47.34" x2="93.1532" y2="47.34" gradientUnits="userSpaceOnUse">
<stop stop-color="#053F9B"/>
<stop offset="1" stop-color="#1B266A"/>
</linearGradient>
<linearGradient id="paint5_linear_7_403" x1="64.5076" y1="61.6426" x2="122.161" y2="61.6426" gradientUnits="userSpaceOnUse">
<stop stop-color="#053F9B"/>
<stop offset="1" stop-color="#1B266A"/>
</linearGradient>
<linearGradient id="paint6_linear_7_403" x1="93.1532" y1="47.3854" x2="132.4" y2="47.3854" gradientUnits="userSpaceOnUse">
<stop stop-color="#053F9B"/>
<stop offset="1" stop-color="#1B266A"/>
</linearGradient>
</defs>
</svg>
