<svg width="20" height="20" viewBox="0 0 20 20" fill="none" xmlns="http://www.w3.org/2000/svg">
<path d="M5.83335 6.66675H3.33335C2.41669 6.66675 1.66669 5.91675 1.66669 5.00008V3.33341C1.66669 2.41675 2.41669 1.66675 3.33335 1.66675H5.83335C6.75002 1.66675 7.50002 2.41675 7.50002 3.33341V5.00008C7.50002 5.91675 6.75002 6.66675 5.83335 6.66675Z" stroke="#606163" stroke-linecap="round" stroke-linejoin="round"/>
<path d="M17.3333 5.83333H14.3333C13.7833 5.83333 13.3333 5.38332 13.3333 4.83332V3.50001C13.3333 2.95001 13.7833 2.5 14.3333 2.5H17.3333C17.8833 2.5 18.3333 2.95001 18.3333 3.50001V4.83332C18.3333 5.38332 17.8833 5.83333 17.3333 5.83333Z" stroke="#606163" stroke-linecap="round" stroke-linejoin="round"/>
<path d="M17.3333 12.0833H14.3333C13.7833 12.0833 13.3333 11.6333 13.3333 11.0833V9.75001C13.3333 9.20001 13.7833 8.75 14.3333 8.75H17.3333C17.8833 8.75 18.3333 9.20001 18.3333 9.75001V11.0833C18.3333 11.6333 17.8833 12.0833 17.3333 12.0833Z" stroke="#606163" stroke-linecap="round" stroke-linejoin="round"/>
<path d="M7.5 4.16675H13.3333" stroke="#606163" stroke-miterlimit="10" stroke-linecap="round" stroke-linejoin="round"/>
<path d="M10.4167 4.16675V15.0001C10.4167 15.9167 11.1667 16.6667 12.0834 16.6667H13.3334" stroke="#606163" stroke-miterlimit="10" stroke-linecap="round" stroke-linejoin="round"/>
<path d="M10.4167 10.4167H13.3334" stroke="#606163" stroke-miterlimit="10" stroke-linecap="round" stroke-linejoin="round"/>
<path d="M17.3333 18.3333H14.3333C13.7833 18.3333 13.3333 17.8833 13.3333 17.3333V16C13.3333 15.45 13.7833 15 14.3333 15H17.3333C17.8833 15 18.3333 15.45 18.3333 16V17.3333C18.3333 17.8833 17.8833 18.3333 17.3333 18.3333Z" stroke="#606163" stroke-linecap="round" stroke-linejoin="round"/>
</svg>
