<svg width="20" height="20" viewBox="0 0 20 20" fill="none" xmlns="http://www.w3.org/2000/svg">
<g clip-path="url(#clip0_8_1647)">
<path d="M11.25 1.25C11.25 0.560625 10.6894 0 10 0C9.31062 0 8.75 0.560625 8.75 1.25C8.75 1.93938 9.31062 2.5 10 2.5C10.6894 2.5 11.25 1.93938 11.25 1.25ZM10 1.875C9.65531 1.875 9.375 1.59469 9.375 1.25C9.375 0.905312 9.65531 0.625 10 0.625C10.3447 0.625 10.625 0.905312 10.625 1.25C10.625 1.59469 10.3447 1.875 10 1.875ZM8.75 18.75C8.75 19.4394 9.31062 20 10 20C10.6894 20 11.25 19.4394 11.25 18.75C11.25 18.0606 10.6894 17.5 10 17.5C9.31062 17.5 8.75 18.0606 8.75 18.75ZM10 18.125C10.3447 18.125 10.625 18.4053 10.625 18.75C10.625 19.0947 10.3447 19.375 10 19.375C9.65531 19.375 9.375 19.0947 9.375 18.75C9.375 18.4053 9.65531 18.125 10 18.125ZM18.75 8.75C18.0606 8.75 17.5 9.31063 17.5 10C17.5 10.6894 18.0606 11.25 18.75 11.25C19.4394 11.25 20 10.6894 20 10C20 9.31063 19.4394 8.75 18.75 8.75ZM18.75 10.625C18.4053 10.625 18.125 10.3447 18.125 10C18.125 9.65531 18.4053 9.375 18.75 9.375C19.0947 9.375 19.375 9.65531 19.375 10C19.375 10.3447 19.0947 10.625 18.75 10.625Z" fill="#606163"/>
<path d="M16.471 8.84164L16.0291 9.28352L16.4331 9.68758H14.6716C14.6042 8.66333 14.2006 7.68997 13.5235 6.91852L14.77 5.67195V6.24352H15.395V4.91758C15.3951 4.87654 15.387 4.83589 15.3713 4.79798C15.3556 4.76006 15.3325 4.72562 15.3035 4.69664C15.4192 4.81313 15.5569 4.90548 15.7086 4.96835C15.8603 5.03122 16.023 5.06335 16.1872 5.06289C16.3515 5.06333 16.5142 5.03118 16.6659 4.96831C16.8177 4.90545 16.9554 4.81311 17.0713 4.69664C17.3054 4.46206 17.4369 4.14417 17.4369 3.81274C17.4369 3.4813 17.3054 3.16341 17.0713 2.92883C16.8367 2.6947 16.5188 2.56321 16.1874 2.56321C15.8559 2.56321 15.538 2.6947 15.3035 2.92883C15.1869 3.04462 15.0946 3.18239 15.0317 3.33415C14.9688 3.4859 14.9367 3.64863 14.9372 3.81289C14.9372 4.14664 15.0672 4.46039 15.3035 4.69664C15.2745 4.66758 15.24 4.64453 15.2021 4.62882C15.1642 4.6131 15.1236 4.60504 15.0825 4.60508H13.7566V5.23008H14.3281L13.0816 6.47664C12.3102 5.7994 11.3368 5.3958 10.3125 5.32852V3.56695L10.7166 3.97102L11.1585 3.52914L10.221 2.59164C10.192 2.56252 10.1576 2.53941 10.1197 2.52364C10.0817 2.50787 10.0411 2.49976 10 2.49976C9.95895 2.49976 9.91829 2.50787 9.88038 2.52364C9.84246 2.53941 9.80803 2.56252 9.77908 2.59164L8.84158 3.52914L9.28346 3.97102L9.68752 3.56695V5.32852C8.66327 5.39594 7.68991 5.79952 6.91846 6.47664L5.67189 5.23008H6.24346V4.60508H4.91752C4.87648 4.60504 4.83583 4.6131 4.79791 4.62882C4.76 4.64453 4.72556 4.66758 4.69658 4.69664C4.81307 4.58089 4.90542 4.44318 4.96829 4.29148C5.03116 4.13978 5.06329 3.9771 5.06283 3.81289C5.06327 3.64864 5.03112 3.48593 4.96825 3.33418C4.90539 3.18243 4.81305 3.04465 4.69658 2.92883C4.462 2.6947 4.1441 2.56321 3.81267 2.56321C3.48124 2.56321 3.16335 2.6947 2.92877 2.92883C2.69464 3.16341 2.56315 3.4813 2.56315 3.81274C2.56315 4.14417 2.69464 4.46206 2.92877 4.69664C3.04456 4.81315 3.18233 4.90552 3.33409 4.96839C3.48584 5.03126 3.64857 5.06338 3.81283 5.06289C3.97704 5.06332 4.1397 5.03117 4.2914 4.9683C4.44309 4.90543 4.58081 4.8131 4.69658 4.69664C4.66752 4.72562 4.64447 4.76006 4.62876 4.79798C4.61304 4.83589 4.60498 4.87654 4.60502 4.91758V6.24352H5.23002V5.67195L6.47658 6.91852C5.79934 7.68989 5.39574 8.6633 5.32846 9.68758H3.56689L3.97096 9.28352L3.52908 8.84164L2.59158 9.77914C2.56246 9.8081 2.53935 9.84252 2.52358 9.88044C2.50781 9.91835 2.49969 9.95901 2.49969 10.0001C2.49969 10.0411 2.50781 10.0818 2.52358 10.1197C2.53935 10.1576 2.56246 10.1921 2.59158 10.221L3.52908 11.1585L3.97096 10.7166L3.56689 10.3126H5.32846C5.39588 11.3368 5.79946 12.3102 6.47658 13.0816L5.23002 14.3282V13.7566H4.60502V15.0826C4.60502 15.1688 4.64002 15.247 4.69658 15.3035C4.22439 14.831 3.40096 14.8313 2.92908 15.3035C2.69495 15.5381 2.56346 15.856 2.56346 16.1874C2.56346 16.5189 2.69495 16.8367 2.92908 17.0713C3.17283 17.3151 3.49283 17.4366 3.81314 17.4366C4.13346 17.4366 4.45314 17.3148 4.69689 17.0713C4.8134 16.9555 4.90577 16.8178 4.96864 16.666C5.03151 16.5143 5.06363 16.3515 5.06314 16.1873C5.06357 16.0231 5.03142 15.8604 4.96855 15.7087C4.90568 15.557 4.81335 15.4193 4.69689 15.3035C4.72587 15.3326 4.76031 15.3556 4.79823 15.3713C4.83614 15.3871 4.87679 15.3951 4.91783 15.3951H6.24377V14.7701H5.67189L6.91846 13.5235C7.68983 14.2008 8.66324 14.6044 9.68752 14.6716V16.4332L9.28346 16.0291L8.84158 16.471L9.77908 17.4085C9.80803 17.4376 9.84246 17.4607 9.88038 17.4765C9.91829 17.4923 9.95895 17.5004 10 17.5004C10.0411 17.5004 10.0817 17.4923 10.1197 17.4765C10.1576 17.4607 10.192 17.4376 10.221 17.4085L11.1585 16.471L10.7166 16.0291L10.3125 16.4332V14.6716C11.3368 14.6042 12.3101 14.2006 13.0816 13.5235L14.3281 14.7701H13.7566V15.3951H15.0825C15.1236 15.3951 15.1642 15.3871 15.2021 15.3713C15.24 15.3556 15.2745 15.3326 15.3035 15.3035C15.187 15.4193 15.0946 15.557 15.0317 15.7087C14.9689 15.8604 14.9367 16.0231 14.9372 16.1873C14.9372 16.521 15.0672 16.8351 15.3035 17.0713C15.5472 17.3151 15.8672 17.4366 16.1872 17.4366C16.5072 17.4366 16.8275 17.3148 17.0713 17.0713C17.3054 16.8367 17.4369 16.5189 17.4369 16.1874C17.4369 15.856 17.3054 15.5381 17.0713 15.3035C16.5991 14.831 15.7756 14.831 15.3038 15.3035C15.3328 15.2745 15.3559 15.2401 15.3716 15.2022C15.3873 15.1643 15.3954 15.1236 15.3953 15.0826V13.7566H14.7703V14.3282L13.5238 13.0816C14.201 12.3103 14.6046 11.3369 14.6719 10.3126H16.4335L16.0294 10.7166L16.4713 11.1585L17.4088 10.221C17.4673 10.1624 17.5002 10.0829 17.5001 10C17.5 9.91715 17.4671 9.8377 17.4085 9.77914L16.471 8.84164ZM15.7453 3.37102C15.8672 3.24914 16.0272 3.18852 16.1872 3.18852C16.3472 3.18852 16.5072 3.24945 16.6294 3.37102C16.8728 3.61477 16.8731 4.01133 16.6294 4.25508C16.3931 4.49133 15.9816 4.49133 15.7453 4.25508C15.6272 4.13695 15.5622 3.98008 15.5622 3.8132C15.5622 3.64633 15.6272 3.48914 15.7453 3.37102ZM4.25471 4.25477C4.01846 4.49102 3.60689 4.49102 3.37064 4.25477C3.25368 4.13739 3.18801 3.97844 3.18801 3.81274C3.18801 3.64703 3.25368 3.48808 3.37064 3.3707C3.49252 3.24883 3.65252 3.1882 3.81283 3.1882C3.89494 3.188 3.97628 3.20401 4.05218 3.23533C4.12808 3.26665 4.19705 3.31265 4.25512 3.37069C4.31319 3.42874 4.35923 3.49768 4.39059 3.57357C4.42194 3.64945 4.438 3.73078 4.43783 3.81289C4.43783 3.98008 4.37283 4.13664 4.25471 4.25477ZM4.25471 16.6291C4.13733 16.7461 3.97838 16.8118 3.81267 16.8118C3.64697 16.8118 3.48802 16.7461 3.37064 16.6291C3.25368 16.5118 3.18801 16.3528 3.18801 16.1871C3.18801 16.0214 3.25368 15.8625 3.37064 15.7451C3.48877 15.627 3.64564 15.562 3.81283 15.562C3.98002 15.562 4.13658 15.627 4.25471 15.7451C4.37283 15.8632 4.43783 16.0201 4.43783 16.187C4.43783 16.3538 4.37283 16.511 4.25471 16.6291ZM9.68752 8.43758C9.68752 8.26539 9.82783 8.12508 10 8.12508C10.1722 8.12508 10.3125 8.26539 10.3125 8.43758C10.3125 8.60977 10.1722 8.75008 10 8.75008C9.82783 8.75008 9.68752 8.60977 9.68752 8.43758ZM15.7453 15.7454C15.8635 15.6273 16.0203 15.5623 16.1872 15.5623C16.3541 15.5623 16.5113 15.6273 16.6294 15.7454C16.8731 15.9891 16.8728 16.3857 16.6294 16.6295C16.512 16.7464 16.3531 16.8121 16.1874 16.8121C16.0217 16.8121 15.8627 16.7464 15.7453 16.6295C15.6272 16.5113 15.5622 16.3545 15.5622 16.1873C15.5622 16.0201 15.6272 15.8635 15.7453 15.7454ZM11.5625 13.7491V12.0045L12.4085 11.1585C12.4375 11.1295 12.4606 11.0951 12.4763 11.0572C12.492 11.0193 12.5001 10.9786 12.5 10.9376V10.2551C12.6823 10.1908 12.8402 10.0718 12.9521 9.91421C13.064 9.75665 13.1244 9.56833 13.125 9.37508C13.125 8.8582 12.7044 8.43758 12.1875 8.43758C11.6706 8.43758 11.25 8.8582 11.25 9.37508C11.25 9.78195 11.5122 10.1257 11.875 10.2551V10.8082L11.0291 11.6541C11 11.6831 10.977 11.7176 10.9613 11.7555C10.9455 11.7934 10.9375 11.834 10.9375 11.8751V13.9491C10.7344 13.9973 10.526 14.0304 10.3125 14.047V9.31758C10.4948 9.25334 10.6527 9.13427 10.7646 8.97671C10.8765 8.81915 10.9369 8.63083 10.9375 8.43758C10.9375 7.9207 10.5169 7.50008 10 7.50008C9.48314 7.50008 9.06252 7.9207 9.06252 8.43758C9.06252 8.84445 9.32471 9.1882 9.68752 9.31758V14.047C9.47693 14.0309 9.26794 13.9982 9.06252 13.9491V11.8751C9.06256 11.834 9.05449 11.7934 9.03878 11.7555C9.02307 11.7176 9.00002 11.6831 8.97096 11.6541L8.12502 10.8082V10.2551C8.30728 10.1908 8.46519 10.0718 8.57709 9.91421C8.68899 9.75665 8.7494 9.56833 8.75002 9.37508C8.75002 8.8582 8.32939 8.43758 7.81252 8.43758C7.29564 8.43758 6.87502 8.8582 6.87502 9.37508C6.87502 9.78195 7.13721 10.1257 7.50002 10.2551V10.9376C7.50002 11.0204 7.53283 11.1001 7.59158 11.1585L8.43752 12.0045V13.7491C6.97096 13.1357 5.93752 11.6866 5.93752 10.0001C5.93752 7.76008 7.76002 5.93758 10 5.93758C12.24 5.93758 14.0625 7.76008 14.0625 10.0001C14.0625 11.6866 13.0291 13.1357 11.5625 13.7491ZM11.875 9.37508C11.875 9.20289 12.0153 9.06258 12.1875 9.06258C12.3597 9.06258 12.5 9.20289 12.5 9.37508C12.5 9.54727 12.3597 9.68758 12.1875 9.68758C12.0153 9.68758 11.875 9.54727 11.875 9.37508ZM7.50002 9.37508C7.50002 9.20289 7.64033 9.06258 7.81252 9.06258C7.98471 9.06258 8.12502 9.20289 8.12502 9.37508C8.12502 9.54727 7.98471 9.68758 7.81252 9.68758C7.64033 9.68758 7.50002 9.54727 7.50002 9.37508Z" fill="#606163"/>
<path d="M1.25 8.75C0.560625 8.75 0 9.31062 0 10C0 10.6894 0.560625 11.25 1.25 11.25C1.93938 11.25 2.5 10.6894 2.5 10C2.5 9.31062 1.93938 8.75 1.25 8.75ZM1.25 10.625C0.905312 10.625 0.625 10.3447 0.625 10C0.625 9.65531 0.905312 9.375 1.25 9.375C1.59469 9.375 1.875 9.65531 1.875 10C1.875 10.3447 1.59469 10.625 1.25 10.625Z" fill="#606163"/>
</g>
<defs>
<clipPath id="clip0_8_1647">
<rect width="20" height="20" fill="white"/>
</clipPath>
</defs>
</svg>
