<svg width="48" height="30" viewBox="0 0 48 30" fill="none" xmlns="http://www.w3.org/2000/svg">
<path d="M14.6606 0.995605C6.9882 0.995605 0.65625 7.31873 0.65625 15C0.65625 22.6724 6.9882 28.9956 14.6606 28.9956C15.2974 29.0348 15.9355 28.9432 16.5355 28.7264C17.1356 28.5097 17.6848 28.1725 18.1495 27.7354C18.6143 27.2984 18.9847 26.7707 19.2379 26.1852C19.4911 25.5996 19.6217 24.9684 19.6217 24.3304C19.6217 23.6925 19.4911 23.0612 19.2379 22.4757C18.9847 21.8901 18.6143 21.3625 18.1495 20.9255C17.6848 20.4884 17.1356 20.1511 16.5355 19.9344C15.9355 19.7176 15.2974 19.626 14.6606 19.6652C14.0442 19.6747 13.4322 19.5604 12.8608 19.3288C12.2894 19.0973 11.7704 18.7534 11.3344 18.3174C10.8985 17.8815 10.5546 17.3624 10.323 16.7911C10.0915 16.2197 9.97711 15.6076 9.98663 14.9912C9.98663 12.3631 12.0238 10.326 14.6606 10.326C17.2975 10.326 19.3346 12.3631 19.3346 15C19.2955 15.6368 19.387 16.2748 19.6038 16.8748C19.8205 17.4749 20.1578 18.0242 20.5949 18.4889C21.0319 18.9537 21.5595 19.3241 22.145 19.5772C22.7306 19.8304 23.3619 19.961 23.9999 19.961C24.6379 19.961 25.269 19.8304 25.8546 19.5772C26.4402 19.3241 26.9678 18.9537 27.4048 18.4889C27.8419 18.0242 28.1792 17.4749 28.3959 16.8748C28.6126 16.2748 28.7042 15.6368 28.665 15C28.665 7.32755 22.3331 0.995605 14.6606 0.995605Z" fill="#039BE5"/>
<path d="M33.3302 0.995637C32.6935 0.956466 32.0554 1.04804 31.4553 1.26477C30.8553 1.4815 30.306 1.8188 29.8412 2.25585C29.3764 2.69289 29.0061 3.22045 28.753 3.80604C28.4998 4.39163 28.3692 5.02286 28.3692 5.66083C28.3692 6.2988 28.4998 6.93002 28.753 7.51561C29.0061 8.10121 29.3764 8.62877 29.8412 9.06581C30.306 9.50286 30.8553 9.84016 31.4553 10.0569C32.0554 10.2736 32.6935 10.3652 33.3302 10.326C35.9671 10.326 38.0042 12.3632 38.0042 15C38.0042 17.6281 35.9671 19.6652 33.3302 19.6652C32.7138 19.6747 32.1017 19.5604 31.5303 19.3289C30.9589 19.0973 30.4398 18.7534 30.0039 18.3175C29.568 17.8815 29.224 17.3625 28.9925 16.7911C28.761 16.2197 28.6467 15.6076 28.6562 14.9912C28.6954 14.3544 28.6037 13.7164 28.387 13.1164C28.1702 12.5163 27.8331 11.967 27.396 11.5023C26.959 11.0375 26.4314 10.6672 25.8458 10.414C25.2602 10.1609 24.6289 10.0302 23.991 10.0302C23.353 10.0302 22.7218 10.1609 22.1362 10.414C21.5507 10.6672 21.0231 11.0375 20.586 11.5023C20.149 11.967 19.8117 12.5163 19.595 13.1164C19.3782 13.7164 19.2867 14.3544 19.3258 14.9912C19.3258 22.6725 25.6578 28.9957 33.3302 28.9957C41.0027 28.9957 47.3346 22.6725 47.3346 15C47.3346 7.32758 41.0115 0.995637 33.3302 0.995637Z" fill="#52B25C"/>
</svg>
