<svg width="481" height="468" viewBox="0 0 481 468" fill="none" xmlns="http://www.w3.org/2000/svg">
<path d="M426.351 391.714C417.578 400.949 409.286 406.899 402.729 411.602C325.673 466.891 234.495 450.775 215.115 446.84C186.502 441.026 131.189 429.793 91.1987 382.766C30.6989 311.617 40.1196 199.524 87.0432 125.531C95.6282 111.997 140.971 36.88 233.131 24.829C288.906 17.5384 353.92 32.2428 401.002 71.688C499.838 154.488 492.801 321.764 426.351 391.714Z" fill="url(#paint0_linear_7_445)"/>
<path d="M351.508 350.78C416.078 286.21 416.078 181.521 351.508 116.951C286.938 52.3806 182.249 52.3806 117.679 116.951C53.1087 181.521 53.1087 286.21 117.679 350.78C182.249 415.35 286.938 415.35 351.508 350.78Z" fill="#ACDDF2"/>
<path d="M234.594 374.978C312.528 374.978 375.706 311.8 375.706 233.866C375.706 155.931 312.528 92.7533 234.594 92.7533C156.66 92.7533 93.4816 155.931 93.4816 233.866C93.4816 311.8 156.66 374.978 234.594 374.978Z" fill="url(#paint1_linear_7_445)"/>
<path d="M234.592 382.047C152.887 382.047 86.4125 315.574 86.4125 233.866C86.4125 152.157 152.887 85.6859 234.592 85.6859C316.298 85.6859 382.774 152.159 382.774 233.866C382.774 315.573 316.299 382.047 234.592 382.047ZM234.592 92.7534C156.782 92.7534 93.4815 156.056 93.4815 233.866C93.4815 311.676 156.782 374.98 234.592 374.98C312.402 374.98 375.705 311.677 375.705 233.866C375.705 156.054 312.402 92.7488 234.592 92.7488V92.7534Z" fill="white"/>
<path d="M295.425 294.697C329.021 261.101 329.021 206.63 295.425 173.034C261.828 139.438 207.358 139.438 173.762 173.034C140.166 206.63 140.166 261.101 173.762 294.697C207.358 328.293 261.828 328.293 295.425 294.697Z" fill="url(#paint2_linear_7_445)"/>
<path d="M234.592 326.963C183.259 326.963 141.496 285.2 141.496 233.866C141.496 182.531 183.259 140.768 234.592 140.768C285.925 140.768 327.69 182.531 327.69 233.864C327.69 285.197 285.927 326.963 234.592 326.963ZM234.592 154.905C191.053 154.905 155.637 190.327 155.637 233.86C155.637 277.393 191.059 312.822 234.592 312.822C278.125 312.822 313.555 277.4 313.555 233.867C313.555 190.334 278.133 154.905 234.592 154.905Z" fill="white"/>
<path d="M258.162 257.434C271.178 244.417 271.178 223.314 258.162 210.297C245.145 197.281 224.042 197.281 211.025 210.297C198.009 223.314 198.009 244.417 211.025 257.434C224.042 270.45 245.145 270.45 258.162 257.434Z" fill="#628FC4"/>
<path d="M234.592 274.265C212.317 274.265 194.194 256.143 194.194 233.866C194.194 211.589 212.317 193.468 234.592 193.468C256.867 193.468 274.991 211.591 274.991 233.866C274.991 256.141 256.869 274.265 234.592 274.265ZM234.592 207.603C220.111 207.603 208.331 219.385 208.331 233.866C208.331 248.347 220.111 260.129 234.592 260.129C249.073 260.129 260.855 248.349 260.855 233.866C260.855 219.383 249.073 207.603 234.592 207.603Z" fill="white"/>
<path d="M259.426 209.463L262.937 212.973L395.875 80.0358L392.364 76.5249L259.426 209.463Z" fill="url(#paint3_linear_7_445)"/>
<path d="M261.906 200.994C263.921 198.981 273.416 208.475 271.401 210.489L236.181 238.174C234.88 239.197 233.195 237.512 234.217 236.21L261.906 200.994Z" fill="url(#paint4_linear_7_445)"/>
<path d="M395.793 80.1144L413.677 81.8905L389.126 106.447C385.153 110.418 380.349 113.458 375.06 115.347C369.77 117.237 364.127 117.929 358.538 117.374L395.793 80.1144Z" fill="#8A8484"/>
<path d="M392.282 76.6037L390.505 58.718L365.953 83.271C361.981 87.2438 358.941 92.0487 357.051 97.339C355.161 102.629 354.47 108.273 355.026 113.863L392.282 76.6037Z" fill="#8A8484"/>
<g opacity="0.3">
<path opacity="0.3" d="M146.851 51.8474C146.732 51.9664 146.591 52.0607 146.436 52.1251C146.28 52.1895 146.114 52.2226 145.946 52.2226C145.778 52.2226 145.611 52.1895 145.456 52.1251C145.301 52.0607 145.16 51.9664 145.041 51.8474C144.071 50.8763 143.04 49.9328 141.989 49.0432C141.733 48.8276 141.571 48.52 141.54 48.1867C141.508 47.8534 141.609 47.521 141.82 47.261L141.835 47.241C141.943 47.1125 142.076 47.0066 142.225 46.9294C142.374 46.8521 142.537 46.805 142.704 46.7907C142.872 46.7764 143.04 46.7952 143.2 46.8461C143.36 46.8969 143.509 46.9788 143.637 47.087C144.748 48.0228 145.829 49.0171 146.851 50.039C147.074 50.2623 147.207 50.5605 147.224 50.876C147.24 51.1916 147.139 51.502 146.94 51.7474C146.914 51.7812 146.883 51.809 146.851 51.8474ZM136.556 45.0755C135.389 44.3382 134.181 43.6441 132.962 43.0116C132.812 42.9342 132.679 42.8281 132.57 42.6993C132.461 42.5705 132.378 42.4215 132.327 42.2608C132.276 42.1001 132.256 41.9308 132.27 41.7627C132.284 41.5945 132.331 41.4308 132.409 41.2808C132.486 41.1309 132.592 40.9976 132.721 40.8886C132.85 40.7797 132.999 40.6971 133.16 40.6458C133.32 40.5944 133.49 40.5752 133.658 40.5892C133.826 40.6032 133.99 40.6502 134.139 40.7275C135.422 41.3924 136.694 42.122 137.921 42.8977C138.063 42.9874 138.186 43.1044 138.283 43.2417C138.38 43.379 138.449 43.5341 138.485 43.698C138.522 43.862 138.526 44.0316 138.498 44.1972C138.469 44.3627 138.408 44.521 138.318 44.663C138.292 44.7059 138.262 44.747 138.23 44.7861C138.034 45.0295 137.755 45.1925 137.447 45.2444C137.138 45.2963 136.821 45.2335 136.556 45.0678V45.0755ZM126.789 40.3366C125.491 39.8749 124.159 39.4717 122.826 39.1269C122.662 39.0863 122.507 39.0136 122.371 38.9129C122.235 38.8122 122.121 38.6856 122.034 38.5403C121.948 38.3951 121.891 38.2341 121.867 38.0668C121.843 37.8994 121.852 37.7289 121.895 37.5652C121.937 37.4015 122.011 37.2478 122.113 37.113C122.215 36.9782 122.343 36.865 122.489 36.78C122.636 36.6949 122.797 36.6397 122.965 36.6174C123.132 36.5952 123.303 36.6065 123.466 36.6505C124.87 37.0137 126.273 37.4416 127.64 37.9233C127.96 38.0362 128.222 38.2716 128.369 38.5777C128.515 38.8838 128.534 39.2355 128.421 39.5555C128.308 39.8756 128.073 40.1376 127.767 40.2841C127.461 40.4306 127.109 40.4495 126.789 40.3366ZM116.206 37.9003C114.838 37.7463 113.447 37.6463 112.072 37.6078C111.904 37.6032 111.739 37.5655 111.585 37.4969C111.432 37.4284 111.294 37.3302 111.178 37.2082C111.063 37.0861 110.972 36.9425 110.912 36.7856C110.852 36.6286 110.824 36.4614 110.829 36.2934C110.833 36.1255 110.871 35.9601 110.939 35.8067C111.008 35.6533 111.106 35.5149 111.228 35.3994C111.35 35.284 111.494 35.1937 111.651 35.1337C111.808 35.0737 111.975 35.0452 112.143 35.0499C113.591 35.0899 115.056 35.1945 116.495 35.3577C116.833 35.3961 117.141 35.5668 117.352 35.8323C117.563 36.0979 117.66 36.4365 117.622 36.7736C117.584 37.1108 117.413 37.4189 117.147 37.6302C116.882 37.8415 116.543 37.9386 116.206 37.9003ZM105.345 37.8833C103.98 38.0372 102.601 38.2465 101.249 38.5143C100.916 38.5801 100.571 38.5109 100.289 38.3219C100.007 38.133 99.8121 37.8399 99.7464 37.507C99.6806 37.1741 99.7499 36.8288 99.9388 36.5469C100.128 36.2651 100.421 36.0698 100.754 36.0041C102.177 35.7224 103.627 35.4993 105.063 35.3408C105.23 35.3219 105.4 35.3363 105.561 35.3829C105.723 35.4296 105.874 35.5077 106.005 35.6128C106.136 35.7178 106.246 35.8478 106.327 35.9951C106.408 36.1425 106.459 36.3044 106.478 36.4716C106.496 36.6388 106.481 36.808 106.434 36.9695C106.387 37.131 106.309 37.2817 106.203 37.4128C106.098 37.5439 105.968 37.653 105.82 37.7337C105.673 37.8145 105.51 37.8653 105.343 37.8833H105.345ZM94.7513 40.2658C93.4507 40.7152 92.1548 41.2278 90.9036 41.7864C90.7493 41.8594 90.5819 41.9008 90.4114 41.9082C90.2409 41.9156 90.0706 41.8889 89.9106 41.8295C89.7506 41.7701 89.604 41.6794 89.4796 41.5626C89.3551 41.4457 89.2553 41.3052 89.1859 41.1493C89.1165 40.9933 89.0791 40.8251 89.0757 40.6544C89.0723 40.4838 89.103 40.3142 89.1661 40.1556C89.2292 39.997 89.3234 39.8526 89.4431 39.7309C89.5628 39.6092 89.7056 39.5127 89.8631 39.447C91.1867 38.8591 92.5535 38.3204 93.9217 37.8479C94.2386 37.752 94.5804 37.7827 94.8751 37.9336C95.1699 38.0845 95.3946 38.3438 95.5021 38.657C95.6095 38.9702 95.5913 39.3128 95.4513 39.6129C95.3113 39.913 95.0603 40.147 94.7513 40.2658ZM62.1227 74.7921C61.9601 74.7498 61.8073 74.6759 61.6733 74.5746C61.5392 74.4732 61.4265 74.3465 61.3414 74.2015C61.2564 74.0566 61.2007 73.8963 61.1776 73.7299C61.1546 73.5634 61.1645 73.3941 61.2069 73.2315C61.5717 71.8309 62.0026 70.4272 62.4875 69.059C62.6009 68.7392 62.8368 68.4775 63.1432 68.3316C63.2949 68.2594 63.4593 68.2177 63.6271 68.209C63.795 68.2004 63.9628 68.2248 64.1212 68.281C64.2795 68.3372 64.4253 68.424 64.5501 68.5365C64.6749 68.649 64.7763 68.785 64.8486 68.9367C64.9208 69.0884 64.9625 69.2529 64.9711 69.4207C64.9798 69.5885 64.9554 69.7564 64.8992 69.9147C64.4375 71.2137 64.0296 72.5466 63.6833 73.8763C63.6377 74.0533 63.5542 74.2182 63.4386 74.3596C63.2833 74.5505 63.0763 74.6925 62.8424 74.7687C62.6084 74.8448 62.3575 74.8519 62.1196 74.789L62.1227 74.7921ZM84.9596 44.9339C83.793 45.6603 82.6433 46.4483 81.5428 47.2733C81.4084 47.3743 81.2554 47.4479 81.0926 47.4899C80.9297 47.5318 80.7602 47.5412 80.5937 47.5176C80.4272 47.4941 80.267 47.4379 80.1222 47.3524C79.9774 47.2669 79.8509 47.1537 79.7498 47.0193C79.6488 46.8849 79.5752 46.7319 79.5332 46.5691C79.4913 46.4062 79.4819 46.2367 79.5054 46.0702C79.529 45.9037 79.5852 45.7435 79.6707 45.5987C79.7562 45.4539 79.8694 45.3273 80.0038 45.2263C81.1612 44.3567 82.3724 43.5333 83.6006 42.7638C83.8574 42.6024 84.1632 42.5375 84.4634 42.5807C84.7636 42.6239 85.0387 42.7725 85.2396 42.9997C85.4404 43.227 85.5539 43.5183 85.5599 43.8216C85.5658 44.1248 85.4638 44.4203 85.272 44.6553C85.1829 44.7653 85.0763 44.8599 84.9565 44.9354L84.9596 44.9339ZM65.858 64.2848C65.5571 64.1277 65.3308 63.8576 65.2289 63.5338C65.127 63.21 65.1579 62.859 65.3147 62.5579C65.9842 61.2759 66.7184 60.0046 67.4941 58.7795C67.5792 58.6278 67.6944 58.4952 67.8326 58.3896C67.9707 58.284 68.1289 58.2077 68.2976 58.1653C68.4662 58.123 68.6417 58.1154 68.8134 58.1432C68.985 58.1709 69.1492 58.2334 69.2959 58.3268C69.4426 58.4201 69.5687 58.5424 69.6666 58.6862C69.7644 58.8299 69.8319 58.9921 69.8649 59.1628C69.898 59.3335 69.8958 59.5092 69.8587 59.6791C69.8215 59.8489 69.7501 60.0095 69.6488 60.1508C68.9116 61.3143 68.2144 62.5225 67.5787 63.7415C67.5382 63.8175 67.4908 63.8896 67.4371 63.9569C67.2514 64.1843 66.9932 64.341 66.7057 64.4007C66.4182 64.4604 66.1189 64.4194 65.858 64.2848ZM76.4531 51.6781C75.4789 52.6478 74.5339 53.6789 73.6443 54.724C73.4279 54.9854 73.1166 55.1502 72.7787 55.1821C72.4409 55.214 72.1042 55.1104 71.8428 54.894C71.5813 54.6777 71.4165 54.3664 71.3846 54.0285C71.3527 53.6907 71.4564 53.354 71.6727 53.0926L71.6912 53.071C72.6269 51.9644 73.6212 50.8855 74.6462 49.8651C74.878 49.6336 75.1897 49.4999 75.5172 49.4914C75.8446 49.483 76.1628 49.6006 76.4062 49.8198C76.6495 50.0391 76.7995 50.3434 76.8251 50.67C76.8507 50.9965 76.7501 51.3205 76.5439 51.575C76.5162 51.6104 76.4854 51.6443 76.4531 51.6781Z" fill="#8A8484"/>
<path opacity="0.3" d="M61.9675 83.2187C62.1316 83.0165 62.2299 82.7689 62.2491 82.5092C62.2984 81.8505 62.3615 81.1825 62.4369 80.5238C62.456 80.3568 62.442 80.1878 62.3958 80.0262C62.3495 79.8647 62.2719 79.7138 62.1674 79.5822C62.0628 79.4507 61.9334 79.341 61.7865 79.2595C61.6395 79.1779 61.478 79.1261 61.311 79.107C61.1441 79.0879 60.975 79.1019 60.8135 79.1482C60.6519 79.1944 60.5011 79.272 60.3695 79.3766C60.2379 79.4811 60.1283 79.6105 60.0467 79.7575C59.9652 79.9044 59.9134 80.0659 59.8943 80.2329C59.8143 80.9255 59.7404 81.6273 59.6973 82.3199C59.6771 82.5917 59.7443 82.8629 59.889 83.0939C60.0337 83.3249 60.2485 83.5036 60.5019 83.6039C60.7554 83.7042 61.0343 83.721 61.2979 83.6517C61.5615 83.5824 61.7961 83.4307 61.9675 83.2187Z" fill="#8A8484"/>
</g>
<g opacity="0.3">
<path opacity="0.3" d="M74.5149 120.145C74.7066 119.909 74.8077 119.612 74.8001 119.308C74.7925 119.004 74.6766 118.713 74.4734 118.487C74.0332 117.996 73.5961 117.487 73.1744 116.976C73.0674 116.846 72.9359 116.739 72.7874 116.66C72.6389 116.581 72.4763 116.532 72.309 116.516C72.1416 116.5 71.9727 116.517 71.812 116.567C71.6512 116.616 71.5018 116.696 71.3721 116.803C71.2425 116.91 71.1352 117.042 71.0563 117.19C70.9775 117.339 70.9287 117.501 70.9127 117.669C70.8967 117.836 70.9138 118.005 70.963 118.166C71.0123 118.327 71.0927 118.476 71.1997 118.606C71.6445 119.144 72.1047 119.683 72.568 120.199C72.7949 120.451 73.1124 120.603 73.4511 120.621C73.7897 120.64 74.1219 120.523 74.3749 120.297C74.426 120.251 74.4729 120.2 74.5149 120.145Z" fill="#8A8484"/>
<path opacity="0.3" d="M148.688 120.263C148.576 120.389 148.441 120.49 148.289 120.563C148.138 120.636 147.973 120.678 147.806 120.688C147.638 120.697 147.47 120.673 147.311 120.617C147.153 120.562 147.007 120.475 146.881 120.363C146.756 120.251 146.654 120.116 146.582 119.964C146.509 119.813 146.466 119.648 146.457 119.481C146.448 119.313 146.472 119.145 146.527 118.986C146.583 118.828 146.669 118.682 146.781 118.557C147.679 117.555 148.548 116.499 149.375 115.406C149.584 115.15 149.884 114.984 150.213 114.945C150.541 114.905 150.872 114.994 151.136 115.193C151.4 115.392 151.577 115.686 151.629 116.013C151.681 116.339 151.605 116.674 151.416 116.945C151.057 117.419 150.693 117.884 150.321 118.341C149.793 118.998 149.244 119.643 148.688 120.263ZM153.492 111.606C153.345 111.524 153.217 111.413 153.113 111.281C153.009 111.149 152.932 110.998 152.887 110.836C152.842 110.674 152.829 110.505 152.849 110.338C152.869 110.171 152.922 110.01 153.004 109.864C153.669 108.682 154.291 107.458 154.851 106.228C154.92 106.076 155.02 105.938 155.142 105.823C155.265 105.709 155.409 105.619 155.567 105.56C155.724 105.502 155.892 105.474 156.059 105.48C156.227 105.486 156.392 105.525 156.545 105.594C156.698 105.664 156.836 105.763 156.951 105.886C157.065 106.009 157.154 106.153 157.213 106.31C157.272 106.468 157.3 106.635 157.294 106.803C157.288 106.971 157.249 107.136 157.179 107.289C156.588 108.585 155.934 109.873 155.234 111.117C155.199 111.181 155.158 111.241 155.112 111.298C154.922 111.532 154.654 111.691 154.358 111.747C154.062 111.803 153.755 111.753 153.492 111.606ZM143.692 125.127C142.615 126.05 141.467 126.934 140.306 127.762C140.17 127.859 140.015 127.929 139.851 127.967C139.687 128.004 139.518 128.009 139.352 127.982C139.186 127.954 139.028 127.894 138.885 127.805C138.743 127.716 138.619 127.599 138.522 127.462C138.424 127.326 138.355 127.171 138.317 127.007C138.279 126.843 138.274 126.674 138.302 126.508C138.33 126.342 138.39 126.184 138.479 126.041C138.568 125.899 138.684 125.775 138.821 125.678C139.926 124.891 141.008 124.049 142.039 123.175C142.282 122.969 142.593 122.861 142.912 122.872C143.23 122.883 143.533 123.013 143.761 123.235C143.989 123.458 144.125 123.757 144.144 124.075C144.163 124.393 144.062 124.707 143.862 124.954C143.811 125.017 143.754 125.075 143.692 125.127ZM158.04 101.62C157.879 101.572 157.729 101.493 157.598 101.387C157.468 101.281 157.36 101.15 157.28 101.002C157.2 100.854 157.151 100.692 157.134 100.525C157.117 100.357 157.133 100.188 157.181 100.027C157.569 98.73 157.906 97.4003 158.183 96.0767C158.252 95.7446 158.451 95.4537 158.735 95.268C159.019 95.0822 159.365 95.0169 159.697 95.0863C160.029 95.1556 160.32 95.3541 160.505 95.638C160.691 95.9219 160.756 96.2679 160.687 96.5999C160.395 97.9944 160.041 99.3949 159.631 100.755C159.584 100.916 159.506 101.065 159.4 101.194C159.241 101.392 159.027 101.538 158.785 101.614C158.543 101.69 158.283 101.692 158.04 101.62ZM134.366 131.403C133.105 132.062 131.798 132.676 130.483 133.229C130.328 133.294 130.161 133.328 129.993 133.328C129.825 133.329 129.659 133.297 129.503 133.233C129.348 133.17 129.206 133.076 129.087 132.958C128.967 132.84 128.872 132.699 128.807 132.544C128.742 132.39 128.708 132.223 128.707 132.055C128.707 131.887 128.739 131.721 128.802 131.565C128.866 131.41 128.959 131.268 129.078 131.149C129.196 131.029 129.336 130.934 129.491 130.869C130.743 130.344 131.983 129.761 133.185 129.136C133.334 129.058 133.497 129.011 133.664 128.996C133.831 128.981 134 128.999 134.16 129.049C134.321 129.099 134.469 129.181 134.598 129.288C134.727 129.396 134.833 129.528 134.911 129.677C134.989 129.826 135.037 129.989 135.052 130.156C135.067 130.323 135.048 130.492 134.998 130.652C134.948 130.813 134.867 130.961 134.759 131.09C134.651 131.219 134.519 131.325 134.37 131.403H134.366ZM123.888 135.482C122.51 135.851 121.102 136.165 119.7 136.418C119.366 136.478 119.022 136.402 118.743 136.209C118.465 136.015 118.274 135.719 118.214 135.385C118.154 135.051 118.23 134.707 118.423 134.428C118.617 134.15 118.913 133.96 119.247 133.9C120.579 133.66 121.918 133.361 123.227 133.012C123.391 132.963 123.563 132.947 123.733 132.966C123.903 132.985 124.067 133.038 124.217 133.121C124.366 133.205 124.497 133.317 124.602 133.452C124.707 133.587 124.784 133.742 124.828 133.907C124.872 134.072 124.882 134.245 124.859 134.414C124.835 134.583 124.778 134.746 124.69 134.893C124.603 135.04 124.486 135.168 124.349 135.269C124.211 135.37 124.054 135.442 123.888 135.482ZM112.771 137.175C111.344 137.235 109.9 137.235 108.478 137.175C108.139 137.161 107.82 137.013 107.59 136.763C107.36 136.513 107.239 136.182 107.253 135.843C107.267 135.504 107.415 135.185 107.665 134.955C107.915 134.725 108.245 134.604 108.584 134.618C109.936 134.674 111.309 134.674 112.663 134.618C112.831 134.611 112.998 134.637 113.156 134.695C113.314 134.753 113.459 134.841 113.583 134.955C113.706 135.068 113.806 135.205 113.877 135.358C113.948 135.51 113.988 135.675 113.995 135.843C114.002 136.011 113.976 136.178 113.918 136.336C113.861 136.494 113.772 136.639 113.659 136.762C113.545 136.886 113.408 136.986 113.256 137.057C113.103 137.128 112.939 137.168 112.771 137.175ZM101.546 136.405C100.143 136.153 98.7328 135.836 97.3568 135.465C97.1842 135.431 97.0203 135.363 96.8754 135.263C96.7305 135.164 96.6077 135.035 96.5146 134.886C96.4216 134.737 96.3603 134.57 96.3346 134.396C96.3089 134.222 96.3193 134.045 96.3652 133.875C96.4112 133.705 96.4916 133.547 96.6015 133.41C96.7114 133.272 96.8485 133.159 97.0041 133.077C97.1597 132.996 97.3305 132.947 97.5058 132.934C97.6812 132.921 97.8573 132.944 98.0232 133.002C99.3284 133.355 100.667 133.655 102.002 133.895C102.167 133.925 102.325 133.988 102.466 134.079C102.607 134.17 102.729 134.289 102.824 134.427C102.92 134.565 102.987 134.721 103.022 134.885C103.058 135.05 103.06 135.22 103.03 135.385C103 135.55 102.937 135.708 102.846 135.849C102.754 135.99 102.636 136.112 102.498 136.207C102.36 136.303 102.204 136.37 102.039 136.405C101.875 136.441 101.705 136.443 101.54 136.413L101.546 136.405ZM90.7603 133.19C89.449 132.634 88.1439 132.016 86.8834 131.343C86.7347 131.265 86.6029 131.158 86.4955 131.029C86.3882 130.9 86.3073 130.75 86.2576 130.59C86.2079 130.429 86.1902 130.261 86.2057 130.093C86.2212 129.926 86.2694 129.763 86.3477 129.615C86.4261 129.466 86.5329 129.334 86.6621 129.227C86.7914 129.12 86.9405 129.039 87.101 128.989C87.2615 128.939 87.4302 128.922 87.5975 128.937C87.7649 128.953 87.9275 129.001 88.0761 129.079C89.2751 129.712 90.5141 130.298 91.7592 130.826C91.9138 130.892 92.054 130.987 92.1717 131.107C92.2895 131.227 92.3824 131.369 92.4453 131.525C92.5082 131.68 92.5398 131.847 92.5382 132.015C92.5367 132.183 92.5021 132.349 92.4364 132.504C92.3897 132.614 92.328 132.718 92.2532 132.811C92.0803 133.03 91.8411 133.185 91.5717 133.255C91.3023 133.325 91.0175 133.306 90.7603 133.199V133.19ZM80.9533 127.689C80.0991 127.074 79.2603 126.437 78.4399 125.776C78.1465 125.537 77.8556 125.296 77.5673 125.053C77.4372 124.946 77.3299 124.814 77.2516 124.665C77.1733 124.515 77.1256 124.352 77.1112 124.184C77.0969 124.016 77.1162 123.847 77.1681 123.687C77.22 123.527 77.3034 123.378 77.4134 123.251C77.5216 123.122 77.6542 123.016 77.8035 122.939C77.9527 122.861 78.1158 122.814 78.2834 122.8C78.4509 122.785 78.6196 122.804 78.7799 122.855C78.9401 122.906 79.0887 122.988 79.2172 123.097C79.4911 123.328 79.7682 123.559 80.0467 123.785C80.8163 124.411 81.6243 125.016 82.4354 125.604C82.7113 125.801 82.8975 126.1 82.9532 126.434C83.0089 126.769 82.9295 127.112 82.7324 127.388C82.7171 127.409 82.7017 127.431 82.6847 127.451C82.4818 127.705 82.1897 127.872 81.8681 127.918C81.5464 127.964 81.2192 127.885 80.9533 127.699V127.689Z" fill="#8A8484"/>
<path opacity="0.3" d="M161.361 90.3757C161.527 90.1717 161.626 89.9211 161.644 89.6585C161.692 88.9674 161.725 88.2625 161.744 87.5622C161.753 87.223 161.627 86.8941 161.394 86.6477C161.16 86.4014 160.839 86.2578 160.5 86.2486C160.332 86.2441 160.164 86.2727 160.008 86.3327C159.851 86.3928 159.707 86.4832 159.585 86.5988C159.339 86.8321 159.195 87.1538 159.186 87.493C159.168 88.1579 159.135 88.8274 159.091 89.483C159.072 89.7543 159.14 90.0245 159.285 90.2544C159.431 90.4843 159.645 90.6619 159.898 90.7614C160.152 90.8609 160.43 90.8772 160.693 90.8078C160.956 90.7384 161.19 90.5871 161.361 90.3757Z" fill="#8A8484"/>
</g>
<path d="M146.97 73.8179C146.945 73.6962 146.882 73.5855 146.791 73.5011C146.7 73.4167 146.584 73.3629 146.461 73.347L139.241 72.4235C137.791 69.2977 135.84 66.4296 133.465 63.9324L135.252 56.888C135.282 56.7674 135.274 56.6403 135.229 56.5245C135.184 56.4087 135.103 56.3098 134.999 56.2416L127.7 51.455C127.595 51.3867 127.473 51.3526 127.348 51.3576C127.224 51.3625 127.104 51.4063 127.005 51.4828L121.254 55.9338C118.016 54.7523 114.608 54.1062 111.162 54.0207L107.439 47.7689C107.375 47.662 107.28 47.5775 107.166 47.5273C107.052 47.4771 106.925 47.4636 106.803 47.4888L98.257 49.2665C98.1352 49.2918 98.0243 49.3544 97.9399 49.4458C97.8555 49.5371 97.8017 49.6525 97.786 49.7759L96.8625 56.9957C93.7362 58.4468 90.8676 60.3984 88.3699 62.7735L81.3209 60.985C81.2 60.9547 81.0727 60.9626 80.9566 61.0079C80.8405 61.0531 80.7414 61.1333 80.6729 61.2375L75.8879 68.5373C75.8196 68.6414 75.7854 68.7642 75.79 68.8886C75.7947 69.013 75.8381 69.1328 75.9141 69.2315L80.3651 74.9846C79.1828 78.2215 78.5366 81.6297 78.452 85.0748L72.1987 88.7994C72.0919 88.8631 72.0076 88.9586 71.9576 89.0726C71.9077 89.1865 71.8946 89.3132 71.9202 89.435L73.6993 97.9815C73.7243 98.1036 73.7869 98.2148 73.8783 98.2995C73.9696 98.3842 74.0852 98.4383 74.2088 98.454L81.4271 99.3775C82.8791 102.503 84.8306 105.371 87.2048 107.869L85.4179 114.911C85.3873 115.032 85.3952 115.16 85.4404 115.276C85.4857 115.392 85.566 115.491 85.6703 115.559L92.9702 120.346C93.0743 120.414 93.1969 120.447 93.3209 120.442C93.4449 120.437 93.5644 120.394 93.6628 120.318L99.4159 115.869C102.655 117.052 106.066 117.698 109.514 117.783L113.237 124.037C113.301 124.143 113.396 124.228 113.51 124.277C113.624 124.327 113.751 124.341 113.872 124.315L122.419 122.538C122.541 122.513 122.652 122.45 122.736 122.359C122.821 122.267 122.875 122.152 122.89 122.028L123.813 114.81C126.935 113.357 129.798 111.406 132.292 109.032L139.343 110.819C139.463 110.85 139.59 110.842 139.706 110.797C139.822 110.752 139.921 110.672 139.989 110.568L144.776 103.267C144.844 103.163 144.878 103.04 144.873 102.916C144.868 102.792 144.825 102.672 144.748 102.574L140.299 96.8211C141.481 93.5836 142.127 90.1749 142.212 86.7293L148.463 83.0063C148.571 82.9427 148.655 82.8473 148.705 82.7333C148.756 82.6194 148.769 82.4925 148.744 82.3706L146.97 73.8179Z" fill="#8A8484"/>
<path d="M116.272 92.364C114.6 93.9006 112.397 94.7289 110.127 94.6748C107.857 94.6206 105.696 93.6883 104.099 92.0737C102.502 90.4592 101.594 88.2883 101.564 86.0176C101.535 83.7469 102.387 81.5533 103.942 79.8982C105.497 78.243 107.633 77.2552 109.901 77.1425C112.169 77.0299 114.393 77.8011 116.104 79.294C117.815 80.7869 118.881 82.8853 119.076 85.1477C119.272 87.4101 118.583 89.6604 117.154 91.4252C116.884 91.7593 116.589 92.0731 116.272 92.364ZM103.613 85.6182C103.547 87.1732 104.023 88.7029 104.958 89.9467C105.894 91.1905 107.232 92.0715 108.744 92.4394C110.256 92.8074 111.85 92.6396 113.252 91.9647C114.654 91.2897 115.779 90.1494 116.435 88.738C117.091 87.3266 117.238 85.7314 116.849 84.2242C116.461 82.7171 115.562 81.3912 114.306 80.4725C113.049 79.5538 111.513 79.0991 109.959 79.186C108.405 79.2728 106.93 79.8957 105.783 80.9487C105.538 81.1742 105.31 81.4175 105.1 81.6767C104.192 82.7956 103.67 84.1783 103.613 85.6182Z" fill="#BFCDDD"/>
<path d="M126.886 99.5452C127.349 98.9747 127.785 98.3781 128.194 97.7553C128.322 97.5598 128.448 97.3613 128.57 97.1612C129.171 96.1784 129.693 95.149 130.131 94.083L130.149 94.0399C130.166 93.9984 130.183 93.9568 130.198 93.9153C130.231 93.8352 130.261 93.7613 130.294 93.6736C130.333 93.5728 130.339 93.4623 130.311 93.3578C130.283 93.2533 130.224 93.1602 130.14 93.0918C130.098 93.0584 130.051 93.0314 130.001 93.0118C129.874 92.9636 129.734 92.9674 129.61 93.0225C129.486 93.0775 129.389 93.1794 129.339 93.3058C127.827 97.229 125.149 100.595 121.665 102.949C118.182 105.303 114.06 106.534 109.856 106.474C105.953 106.427 102.146 105.262 98.8841 103.117C98.2939 102.73 97.7238 102.314 97.1757 101.869C94.7909 99.9262 92.8726 97.4727 91.5624 94.6895C90.2522 91.9064 89.5834 88.8646 89.6054 85.7885C89.6273 82.7125 90.3395 79.6806 91.6894 76.9164C93.0392 74.1523 94.9923 71.7264 97.4047 69.8176C99.817 67.9089 102.627 66.566 105.627 65.8879C108.628 65.2099 111.742 65.214 114.741 65.9C117.74 66.586 120.546 67.9363 122.953 69.8514C125.361 71.7665 127.307 74.1976 128.65 76.9653C128.679 77.026 128.72 77.0802 128.771 77.125C128.821 77.1698 128.879 77.2043 128.943 77.2264C129.007 77.2486 129.074 77.258 129.141 77.2541C129.208 77.2503 129.274 77.2332 129.335 77.2039C129.395 77.1746 129.45 77.1336 129.495 77.0833C129.539 77.033 129.574 76.9744 129.596 76.9108C129.618 76.8472 129.628 76.7799 129.624 76.7127C129.62 76.6454 129.603 76.5796 129.573 76.519C128.197 73.6753 126.21 71.1698 123.756 69.1806C123.188 68.7199 122.597 68.2879 121.986 67.8863C112.036 61.3636 98.6332 64.154 92.1121 74.0995C89.1859 78.5644 88.0182 83.9552 88.8346 89.2307C89.651 94.5062 92.3935 99.2919 96.5324 102.663C97.1049 103.126 97.7026 103.563 98.3254 103.973C102.791 106.9 108.182 108.067 113.458 107.25C118.734 106.433 123.52 103.69 126.891 99.5498L126.886 99.5452Z" fill="#BFCDDD"/>
<g opacity="0.3">
<path opacity="0.3" d="M200.627 39.0687C200.735 38.9361 200.797 38.7722 200.804 38.6016C200.81 38.4309 200.761 38.2627 200.664 38.1221C200.283 37.5696 199.881 37.0217 199.467 36.4938C199.338 36.3287 199.149 36.2216 198.941 36.196C198.733 36.1705 198.523 36.2286 198.358 36.3576C198.193 36.4866 198.086 36.6759 198.06 36.8838C198.035 37.0918 198.093 37.3014 198.222 37.4665C198.616 37.9713 199.001 38.4931 199.364 39.021C199.433 39.1225 199.525 39.2064 199.633 39.2658C199.741 39.3253 199.861 39.3587 199.984 39.3633C200.107 39.3679 200.229 39.3437 200.341 39.2925C200.452 39.2414 200.551 39.1647 200.627 39.0687Z" fill="#8A8484"/>
<path opacity="0.3" d="M196.672 34.4637C196.599 34.5371 196.512 34.5954 196.416 34.6351C196.32 34.6748 196.217 34.6953 196.113 34.6953C196.01 34.6953 195.907 34.6748 195.811 34.6351C195.715 34.5954 195.628 34.5371 195.555 34.4637C194.772 33.6837 193.95 32.944 193.092 32.2474C192.912 32.1017 192.729 31.957 192.544 31.8134C192.462 31.7497 192.394 31.6705 192.343 31.5804C192.291 31.4903 192.258 31.3909 192.246 31.288C192.233 31.1851 192.24 31.0806 192.268 30.9807C192.295 30.8807 192.342 30.7871 192.406 30.7052C192.538 30.5453 192.726 30.4418 192.932 30.4158C193.138 30.3898 193.346 30.4432 193.514 30.5652C193.708 30.716 193.899 30.8673 194.088 31.0192C194.984 31.7472 195.855 32.529 196.674 33.3432C196.812 33.4814 196.894 33.6658 196.905 33.861C196.915 34.0561 196.853 34.2483 196.731 34.4006C196.712 34.4231 196.693 34.4442 196.672 34.4637ZM189.228 29.5524C188.079 28.8646 186.889 28.2478 185.665 27.7055C185.473 27.6211 185.323 27.4639 185.247 27.2686C185.171 27.0734 185.176 26.856 185.261 26.6644C185.345 26.4727 185.502 26.3225 185.698 26.2467C185.893 26.1709 186.11 26.1758 186.302 26.2603C187.586 26.827 188.834 27.4715 190.039 28.1904C190.219 28.2981 190.349 28.473 190.4 28.6765C190.451 28.8799 190.419 29.0954 190.311 29.2754C190.292 29.3077 190.27 29.3386 190.247 29.3678C190.127 29.5156 189.958 29.6156 189.771 29.6495C189.584 29.6834 189.391 29.6489 189.228 29.5524ZM181.899 26.3204C180.616 25.9364 179.31 25.6326 177.989 25.4108C177.789 25.3694 177.612 25.2518 177.496 25.0827C177.38 24.9137 177.335 24.7063 177.369 24.5043C177.403 24.3023 177.514 24.1214 177.679 23.9997C177.844 23.8779 178.049 23.8249 178.252 23.8517C179.637 24.0853 181.006 24.404 182.351 24.8059C182.451 24.8355 182.543 24.8845 182.624 24.95C182.704 25.0155 182.771 25.0962 182.82 25.1875C182.87 25.2789 182.901 25.3791 182.911 25.4823C182.922 25.5856 182.912 25.6899 182.882 25.7894C182.852 25.888 182.804 25.98 182.739 26.0603C182.641 26.1825 182.508 26.2727 182.359 26.3196C182.209 26.3664 182.049 26.3678 181.899 26.3234V26.3204ZM174.001 24.9937C172.664 24.9359 171.325 24.9606 169.991 25.0676C169.782 25.0843 169.575 25.0174 169.415 24.8816C169.256 24.7458 169.157 24.5522 169.14 24.3434C169.124 24.1346 169.19 23.9277 169.326 23.7683C169.462 23.6088 169.656 23.5098 169.864 23.4931C171.264 23.3807 172.668 23.3545 174.071 23.4146C174.28 23.4238 174.477 23.5156 174.619 23.67C174.761 23.8244 174.835 24.0286 174.826 24.238C174.817 24.4476 174.725 24.645 174.57 24.7867C174.416 24.9284 174.211 25.0029 174.001 24.9937ZM166.018 25.6324C164.707 25.9022 163.413 26.2517 162.144 26.679C161.946 26.7459 161.729 26.7312 161.541 26.6381C161.353 26.5451 161.21 26.3812 161.143 26.1826C161.076 25.984 161.091 25.767 161.184 25.5792C161.277 25.3915 161.441 25.2484 161.64 25.1814C162.969 24.7334 164.325 24.367 165.7 24.0841C165.803 24.0582 165.911 24.0535 166.016 24.0702C166.122 24.087 166.223 24.125 166.313 24.1818C166.403 24.2386 166.481 24.313 166.542 24.4007C166.603 24.4884 166.645 24.5875 166.667 24.692C166.688 24.7966 166.688 24.9043 166.667 25.0089C166.646 25.1135 166.604 25.2127 166.543 25.3006C166.483 25.3884 166.405 25.4631 166.315 25.5201C166.224 25.5771 166.124 25.6153 166.018 25.6324ZM158.431 28.1904C157.225 28.7704 156.057 29.4242 154.932 30.1481C154.756 30.2615 154.542 30.3004 154.337 30.2561C154.133 30.2118 153.954 30.088 153.84 29.9118C153.727 29.7357 153.688 29.5217 153.732 29.3169C153.777 29.1121 153.9 28.9333 154.077 28.8198C155.256 28.0597 156.481 27.374 157.746 26.7667C157.907 26.6884 158.091 26.6677 158.266 26.7079C158.441 26.7481 158.598 26.8469 158.709 26.988C158.821 27.129 158.881 27.3038 158.879 27.4835C158.878 27.6633 158.815 27.8371 158.701 27.9764C158.627 28.0675 158.534 28.1406 158.428 28.1904H158.431ZM151.702 32.5244C150.675 33.3833 149.702 34.3049 148.79 35.284C148.644 35.425 148.45 35.5048 148.247 35.5067C148.044 35.5086 147.848 35.4326 147.7 35.2943C147.552 35.156 147.462 34.9661 147.45 34.7637C147.438 34.5613 147.503 34.3619 147.634 34.2066C148.592 33.1814 149.612 32.2157 150.687 31.3147C150.838 31.1901 151.03 31.1258 151.226 31.1343C151.421 31.1428 151.606 31.2234 151.746 31.3607C151.885 31.4979 151.969 31.6819 151.981 31.8772C151.993 32.0726 151.932 32.2653 151.809 32.4182C151.776 32.4567 151.739 32.4922 151.699 32.5244H151.702ZM143.009 42.0667C142.918 42.0165 142.837 41.9487 142.773 41.8672C142.708 41.7858 142.659 41.6923 142.631 41.5921C142.602 41.492 142.594 41.3872 142.606 41.2837C142.618 41.1803 142.65 41.0803 142.701 40.9894C143.292 39.9237 143.939 38.8901 144.639 37.8927C144.745 37.7388 144.853 37.5849 144.961 37.4403C145.09 37.2904 145.271 37.1946 145.467 37.1716C145.664 37.1486 145.862 37.2003 146.023 37.3162C146.183 37.4322 146.294 37.6042 146.334 37.7981C146.374 37.992 146.34 38.1938 146.238 38.3637C146.136 38.5038 146.035 38.6454 145.93 38.79C145.262 39.7423 144.645 40.7297 144.083 41.7482C144.061 41.789 144.034 41.8276 144.005 41.8636C143.89 42.0113 143.727 42.1136 143.544 42.1522C143.361 42.1908 143.17 42.1632 143.006 42.0744L143.009 42.0667Z" fill="#8A8484"/>
</g>
<g opacity="0.3">
<path opacity="0.3" d="M198.781 79.3727C197.897 80.433 196.951 81.4393 195.946 82.3863C195.791 82.5132 195.594 82.5765 195.394 82.5633C195.194 82.5501 195.007 82.4615 194.87 82.3154C194.733 82.1692 194.657 81.9764 194.656 81.7761C194.656 81.5758 194.732 81.383 194.869 81.2366C195.827 80.3339 196.73 79.3738 197.572 78.3616C197.712 78.2316 197.895 78.1569 198.086 78.1515C198.277 78.146 198.464 78.2101 198.612 78.3319C198.76 78.4536 198.858 78.6248 198.889 78.8136C198.92 79.0025 198.882 79.1962 198.781 79.3589V79.3727ZM200.14 76.273C199.965 76.159 199.841 75.9799 199.797 75.775C199.753 75.5702 199.793 75.3563 199.906 75.1803C200.622 74.0747 201.27 72.927 201.847 71.7435C201.939 71.5551 202.102 71.4109 202.3 71.3427C202.498 71.2744 202.715 71.2877 202.904 71.3795C203.092 71.4714 203.236 71.6343 203.305 71.8324C203.373 72.0306 203.36 72.2477 203.268 72.4361C202.662 73.6765 201.982 74.8797 201.233 76.0391C201.218 76.0634 201.201 76.0866 201.182 76.1083C201.06 76.2623 200.885 76.3653 200.691 76.3971C200.498 76.429 200.299 76.3875 200.134 76.2807L200.14 76.273ZM192.765 85.035C191.652 85.851 190.49 86.5988 189.287 87.2744C189.105 87.3668 188.894 87.3851 188.699 87.3257C188.504 87.2662 188.339 87.1336 188.24 86.9555C188.14 86.7774 188.114 86.5677 188.165 86.3704C188.217 86.1731 188.343 86.0034 188.517 85.8969C189.666 85.2525 190.774 84.5391 191.837 83.7607C191.992 83.6493 192.182 83.5979 192.372 83.6158C192.562 83.6337 192.739 83.7198 192.87 83.8581C193.002 83.9964 193.078 84.1777 193.086 84.3683C193.095 84.5589 193.033 84.746 192.914 84.895C192.869 84.9487 192.817 84.9958 192.759 85.035H192.765ZM203.846 69.1009C203.648 69.0327 203.486 68.8887 203.394 68.7005C203.302 68.5123 203.289 68.2954 203.357 68.0974C203.785 66.8517 204.137 65.5811 204.411 64.2928C204.468 64.1028 204.595 63.9413 204.765 63.8403C204.936 63.7393 205.139 63.7063 205.333 63.7478C205.527 63.7893 205.698 63.9023 205.812 64.0643C205.927 64.2263 205.976 64.4255 205.95 64.6222C205.664 65.9732 205.295 67.3055 204.845 68.6115C204.815 68.6988 204.77 68.7801 204.711 68.8516C204.609 68.9772 204.471 69.0685 204.316 69.1131C204.16 69.1577 203.995 69.1534 203.842 69.1009H203.846ZM185.562 89.0736C184.285 89.5975 182.977 90.0442 181.647 90.4111C181.445 90.4637 181.231 90.435 181.051 90.3311C180.871 90.2272 180.739 90.0564 180.684 89.8558C180.628 89.6553 180.654 89.441 180.756 89.2594C180.858 89.0779 181.027 88.9436 181.226 88.8858C182.496 88.5379 183.744 88.1123 184.962 87.6115C185.156 87.5319 185.373 87.5325 185.567 87.6134C185.76 87.6942 185.913 87.8485 185.993 88.0424C186.073 88.2363 186.072 88.4539 185.991 88.6472C185.91 88.8406 185.756 88.994 185.562 89.0736ZM177.599 91.2668C176.233 91.4702 174.857 91.591 173.477 91.6285C173.373 91.6313 173.27 91.6137 173.173 91.5766C173.077 91.5395 172.988 91.4838 172.913 91.4125C172.837 91.3411 172.777 91.2557 172.734 91.161C172.692 91.0663 172.669 90.9641 172.666 90.8605C172.663 90.7568 172.681 90.6536 172.718 90.5567C172.755 90.4598 172.811 90.3712 172.882 90.2959C172.953 90.2205 173.039 90.16 173.134 90.1177C173.228 90.0754 173.33 90.0522 173.434 90.0494C174.751 90.0129 176.064 89.8977 177.366 89.7046C177.574 89.6738 177.784 89.7265 177.953 89.8512C178.121 89.9759 178.233 90.1623 178.264 90.3695C178.295 90.5767 178.242 90.7876 178.117 90.9558C177.992 91.1241 177.806 91.236 177.599 91.2668ZM169.34 91.4915C167.965 91.3616 166.6 91.1483 165.251 90.8528C165.144 90.8368 165.041 90.799 164.95 90.7417C164.858 90.6844 164.779 90.6089 164.717 90.5199C164.656 90.4308 164.614 90.3301 164.593 90.224C164.572 90.1179 164.573 90.0086 164.596 89.903C164.62 89.7974 164.664 89.6976 164.727 89.6099C164.791 89.5222 164.871 89.4485 164.964 89.3932C165.057 89.338 165.16 89.3024 165.268 89.2887C165.375 89.275 165.484 89.2835 165.588 89.3137C166.874 89.5976 168.177 89.8032 169.488 89.9293C169.591 89.939 169.692 89.9689 169.783 90.0174C169.875 90.0658 169.956 90.1319 170.022 90.2118C170.089 90.2917 170.138 90.3839 170.169 90.483C170.2 90.5822 170.21 90.6864 170.2 90.7897C170.187 90.945 170.127 91.0925 170.028 91.2129C169.944 91.3128 169.838 91.3904 169.717 91.439C169.596 91.4876 169.465 91.5057 169.335 91.4915H169.34Z" fill="#8A8484"/>
<path opacity="0.3" d="M206.395 60.9191C206.494 60.7966 206.555 60.647 206.569 60.4897C206.627 59.8171 206.666 59.1384 206.684 58.4735C206.691 58.3675 206.676 58.2613 206.64 58.1611C206.605 58.061 206.55 57.969 206.478 57.8906C206.407 57.8123 206.32 57.7491 206.223 57.705C206.127 57.6608 206.022 57.6366 205.916 57.6337C205.81 57.6308 205.704 57.6493 205.605 57.6881C205.506 57.7269 205.416 57.7853 205.341 57.8596C205.265 57.9339 205.205 58.0228 205.164 58.1209C205.123 58.2189 205.103 58.3242 205.103 58.4304C205.086 59.0645 205.049 59.7109 204.994 60.3542C204.979 60.5227 205.019 60.6914 205.108 60.8356C205.196 60.9797 205.328 61.0917 205.485 61.1549C205.642 61.2182 205.815 61.2294 205.979 61.1869C206.143 61.1445 206.288 61.0506 206.395 60.9191Z" fill="#8A8484"/>
</g>
<path d="M196.863 49.282C196.846 49.2003 196.804 49.126 196.743 49.0695C196.681 49.0129 196.604 48.9769 196.521 48.9665L191.692 48.3508C190.72 46.2592 189.414 44.34 187.825 42.6685L189.021 37.9512C189.042 37.8705 189.036 37.7854 189.006 37.7079C188.976 37.6304 188.922 37.5643 188.852 37.5188L183.967 34.3159C183.898 34.2707 183.816 34.2481 183.733 34.2514C183.65 34.2547 183.571 34.2837 183.505 34.3344L179.658 37.311C177.491 36.5211 175.21 36.0892 172.904 36.032L170.412 31.8488C170.37 31.7768 170.306 31.72 170.23 31.6863C170.154 31.6526 170.069 31.6437 169.988 31.661L164.268 32.8507C164.188 32.8688 164.116 32.9112 164.061 32.9721C164.005 33.0329 163.97 33.1094 163.96 33.1909L163.345 38.022C161.253 38.993 159.334 40.2989 157.662 41.8882L152.944 40.6923C152.863 40.6722 152.778 40.6774 152.701 40.7075C152.623 40.7375 152.557 40.7908 152.511 40.8601L149.308 45.7451C149.263 45.8146 149.241 45.8963 149.244 45.9789C149.248 46.0616 149.276 46.1413 149.327 46.2069L152.305 50.0546C151.514 52.2206 151.081 54.5012 151.024 56.8065L146.841 59.2983C146.77 59.3414 146.713 59.4055 146.68 59.4818C146.646 59.5581 146.637 59.6429 146.653 59.7246L147.837 65.4454C147.855 65.5256 147.898 65.5982 147.959 65.6533C148.02 65.7084 148.097 65.7433 148.179 65.7532L153.008 66.3689C153.98 68.4605 155.286 70.3797 156.874 72.0512L155.679 76.7685C155.657 76.8488 155.66 76.9341 155.689 77.0122C155.718 77.0903 155.771 77.1574 155.84 77.204L160.725 80.4068C160.795 80.4521 160.876 80.4748 160.959 80.4717C161.042 80.4687 161.121 80.4401 161.187 80.3899L165.035 77.4118C167.201 78.2024 169.483 78.6344 171.788 78.6908L174.28 82.8755C174.322 82.9472 174.386 83.0037 174.462 83.0371C174.539 83.0705 174.623 83.0792 174.705 83.0618L180.424 81.8721C180.504 81.854 180.577 81.8116 180.632 81.7507C180.687 81.6898 180.722 81.6134 180.732 81.5319L181.347 76.7007C183.439 75.7293 185.358 74.4235 187.03 72.8346L191.747 74.0304C191.828 74.0514 191.913 74.0465 191.991 74.0164C192.069 73.9863 192.135 73.9326 192.181 73.8627L195.395 68.9838C195.439 68.9142 195.461 68.8326 195.458 68.75C195.455 68.6674 195.426 68.5878 195.376 68.522L192.398 64.6743C193.189 62.5083 193.622 60.2277 193.679 57.9224L197.862 55.4306C197.933 55.3878 197.989 55.324 198.023 55.248C198.057 55.1719 198.066 55.0873 198.05 55.0058L196.863 49.282Z" fill="#8A8484"/>
<path d="M176.392 61.7639C175.252 62.7911 173.758 63.3365 172.224 63.2855C170.69 63.2346 169.236 62.5912 168.167 61.4906C167.097 60.3899 166.496 58.9177 166.49 57.3832C166.483 55.8487 167.071 54.3712 168.131 53.2613C169.19 52.1513 170.639 51.4952 172.172 51.4308C173.705 51.3663 175.204 51.8986 176.353 52.9157C177.502 53.9329 178.212 55.3558 178.334 56.8854C178.456 58.4151 177.98 59.9326 177.007 61.119C176.818 61.349 176.613 61.5645 176.392 61.7639ZM169.11 60.3387C169.899 61.1971 170.997 61.7071 172.162 61.7565C173.326 61.8058 174.463 61.3905 175.322 60.6019C176.165 59.8092 176.662 58.7159 176.705 57.5593C176.747 56.4026 176.332 55.2758 175.549 54.4234C174.766 53.5709 173.678 53.0616 172.522 53.0058C171.366 52.95 170.235 53.3523 169.373 54.1254C169.215 54.2717 169.067 54.4291 168.93 54.5964C168.268 55.4166 167.922 56.4472 167.955 57.501C167.988 58.5547 168.398 59.5616 169.11 60.3387Z" fill="#BFCDDD"/>
<path d="M183.779 66.7628C184.097 66.3709 184.395 65.963 184.672 65.5408C185.228 64.6929 185.697 63.7911 186.071 62.8489L186.12 62.7227C186.18 62.5669 186.189 62.3961 186.147 62.2347C186.104 62.0733 186.011 61.9295 185.882 61.8239C185.817 61.7719 185.744 61.7304 185.666 61.7008C185.471 61.626 185.254 61.6316 185.063 61.7164C184.871 61.8012 184.722 61.9583 184.646 62.1533C184.305 63.0366 183.871 63.8812 183.351 64.6728L183.264 64.8036C182.039 66.6382 180.374 68.1362 178.42 69.1607C177.357 69.7157 176.224 70.1257 175.051 70.3797H175.022L174.934 70.3982C173.224 70.7588 171.459 70.7766 169.742 70.4506C168.025 70.1246 166.389 69.4612 164.93 68.4989C164.545 68.2465 164.176 67.9777 163.824 67.6924C161.173 65.5409 159.451 62.453 159.014 59.0676C158.577 55.6821 159.457 52.258 161.474 49.5035C163.49 46.7491 166.488 44.8749 169.847 44.2688C173.206 43.6626 176.67 44.3708 179.522 46.2468C179.899 46.4935 180.264 46.7597 180.613 47.0441C182.127 48.2703 183.352 49.8153 184.201 51.569C184.295 51.7534 184.458 51.8935 184.654 51.9594C184.85 52.0253 185.064 52.0117 185.251 51.9214C185.437 51.8312 185.58 51.6716 185.65 51.4768C185.72 51.282 185.711 51.0676 185.625 50.8795C184.652 48.8749 183.242 47.1141 181.499 45.7271C179.755 44.34 177.722 43.362 175.55 42.8653C173.379 42.3685 171.123 42.3655 168.95 42.8567C166.776 43.3479 164.741 44.3206 162.994 45.7031C161.247 47.0857 159.832 48.8428 158.855 50.8448C157.877 52.8469 157.361 55.0429 157.346 57.2708C157.33 59.4988 157.814 61.7018 158.763 63.7176C159.712 65.7333 161.102 67.5103 162.829 68.9175C163.223 69.2361 163.636 69.5332 164.061 69.821C167.144 71.8385 170.866 72.6424 174.507 72.0777C178.148 71.5129 181.452 69.6195 183.779 66.7628Z" fill="#BFCDDD"/>
<path d="M104.215 440.001C104.215 440.001 103.325 444.773 102.867 449.499C102.826 449.937 102.873 450.379 103.007 450.798C103.141 451.217 103.358 451.604 103.646 451.937C103.934 452.269 104.285 452.541 104.681 452.734C105.076 452.927 105.506 453.038 105.945 453.061C112.243 453.382 125.713 454.021 130.55 453.852C130.719 453.845 130.884 453.799 131.031 453.715C131.178 453.632 131.304 453.515 131.396 453.374C131.489 453.233 131.547 453.072 131.565 452.903C131.582 452.735 131.56 452.566 131.498 452.408C131.278 451.839 130.847 451.377 130.295 451.117L108.132 440.674L104.215 440.001Z" fill="url(#paint5_linear_7_445)"/>
<path d="M103.55 437.186L104.175 442.91C104.175 442.91 108.057 444.757 110.739 442.744L109.185 436.358L103.55 437.186Z" fill="url(#paint6_linear_7_445)"/>
<path d="M105.086 329.725C104.779 331.214 102.802 404.202 110.295 436.999C110.356 437.257 110.322 437.529 110.2 437.764C110.078 438 109.876 438.184 109.63 438.284C107.592 439.05 105.439 439.467 103.263 439.515C102.84 439.525 102.425 439.394 102.084 439.144C101.744 438.893 101.495 438.537 101.379 438.13C99.224 430.518 88.8952 392.388 87.8471 356.048C86.6774 315.439 87.861 354.662 87.861 354.662L89.0137 329.575L105.086 329.725Z" fill="url(#paint7_linear_7_445)"/>
<path d="M78.5862 442.25C78.5862 442.25 77.2195 444.651 75.8574 451.049C75.7984 451.321 75.7972 451.603 75.854 451.876C75.9108 452.148 76.0243 452.406 76.1871 452.632C76.3499 452.858 76.5585 453.048 76.7991 453.188C77.0398 453.328 77.3073 453.417 77.5842 453.447C79.6635 453.672 82.8633 453.966 85.4336 453.972C85.7128 453.973 85.9893 453.916 86.2449 453.804C86.5005 453.691 86.7295 453.526 86.9169 453.319C87.1043 453.112 87.2459 452.868 87.3324 452.602C87.419 452.337 87.4484 452.056 87.419 451.778C87.1558 449.436 86.3078 445.588 83.6021 442.57L78.5862 442.25Z" fill="url(#paint8_linear_7_445)"/>
<path d="M77.4767 434.887L78.9789 443.546C78.9789 443.546 80.5349 444.726 83.6423 443.912L82.9744 434.604L77.4767 434.887Z" fill="url(#paint9_linear_7_445)"/>
<path d="M74.1797 331.67C67.4292 370.124 74.6552 426.878 77.1686 437.996C77.243 438.329 77.4142 438.633 77.6607 438.869C77.9071 439.105 78.2178 439.263 78.5537 439.323C79.7204 439.528 81.6442 439.705 83.5465 439.169C83.8665 439.079 84.15 438.891 84.3572 438.631C84.5643 438.371 84.6845 438.053 84.7008 437.721C85.1379 428.756 85.0302 373.695 91.185 351.994C91.496 350.894 92.1786 349.937 93.1165 349.285L104.737 341.189L105.748 327.935L74.1797 331.67Z" fill="url(#paint10_linear_7_445)"/>
<path d="M115.541 259.079C96.4198 258.58 75.2651 263.716 75.2651 263.716C69.2473 296.927 73.586 335.339 73.586 335.339C88.3612 339.364 105.117 333.266 105.117 333.266C107.711 319.386 119.566 280.366 119.566 280.366C128.922 279.289 136.65 276.672 143.019 273.169C138.237 267.518 136.025 260.364 135.075 256.138C128.291 258.175 121.439 259.233 115.541 259.079Z" fill="#7C8DA1"/>
<path d="M172.309 231.447C170.451 229.159 168.063 230.215 168.063 230.215C165.139 242.077 150.286 251.576 135.08 256.143C136.03 260.369 138.242 267.523 143.023 273.174C168.315 259.262 172.309 231.447 172.309 231.447Z" fill="url(#paint11_linear_7_445)"/>
<path d="M171.847 232.019C172.038 232.647 169.752 233.577 168.435 231.008C168.401 229.777 167.705 224.527 168.447 223.536C172.396 218.258 180.018 211.668 180.018 211.668C181.284 212.94 180.219 214.169 180.219 214.169L176.516 217.953C177.27 219.338 178.194 220.525 178.617 222.206C178.926 223.489 178.729 224.841 178.068 225.983C177.414 227.135 176.521 228.635 175.679 229.806C174.083 232.024 171.847 232.019 171.847 232.019Z" fill="url(#paint12_linear_7_445)"/>
<path d="M174.885 220.416L171.516 223.217L170.439 226.027L173.386 229.361C173.386 229.361 174.442 223.774 175.198 222.57C175.954 221.367 175.575 220.776 174.885 220.416Z" fill="url(#paint13_linear_7_445)"/>
<path d="M82.4259 282.305L75.2661 263.716C75.2661 263.716 57.2865 275.684 54.2022 291.046C57.5743 291.326 63.7091 292.263 69.6915 295.355C71.0813 288.102 82.4259 282.305 82.4259 282.305Z" fill="#7C8DA1"/>
<path d="M97.8696 299.88C97.8696 299.88 77.7076 311.025 71.0295 301.281C69.6443 299.257 69.3273 297.258 69.6905 295.355C63.7081 292.263 57.5733 291.326 54.2011 291.046C53.2777 295.677 53.6917 300.616 56.3712 305.629C68.019 327.427 100.477 304.859 100.477 304.859L97.8696 299.88Z" fill="url(#paint14_linear_7_445)"/>
<path d="M96.3162 243.367L90.0629 260.912C90.0116 261.053 90.0117 261.207 90.0632 261.348C90.1147 261.489 90.2144 261.607 90.3446 261.682C91.996 262.614 97.9461 265.323 105.192 260.824C105.566 260.595 105.885 260.286 106.126 259.92C106.367 259.554 106.525 259.139 106.588 258.705L108.703 243.493L96.3162 243.367Z" fill="url(#paint15_linear_7_445)"/>
<path d="M109.714 227.197C109.714 227.197 116.277 239.839 115.37 244.912C114.464 249.985 106.188 249.541 98.9945 245.346L94.0695 231.714L109.714 227.197Z" fill="url(#paint16_linear_7_445)"/>
<path d="M99.3779 238.678C99.4474 238.649 99.5096 238.605 99.5601 238.549C99.6107 238.493 99.6484 238.426 99.6707 238.354C99.693 238.282 99.6993 238.206 99.6891 238.131C99.6789 238.056 99.6526 237.985 99.6119 237.921C99.084 237.098 98.0974 235.42 97.7911 233.957C97.7911 233.957 96.5968 233.176 100.869 232.197C105.142 231.219 111.504 229.696 112.874 226.084C114.209 222.563 110.873 213.641 105.351 220.671C105.303 220.734 105.24 220.785 105.169 220.82C105.098 220.855 105.02 220.873 104.94 220.873C104.861 220.873 104.782 220.855 104.711 220.82C104.64 220.785 104.578 220.734 104.529 220.671C103.646 219.498 101.317 217.059 98.0389 218.493C94.9715 219.835 94.6052 222.07 94.6376 223.198C94.64 223.276 94.6248 223.353 94.5933 223.424C94.5618 223.495 94.5147 223.558 94.4556 223.608C94.3964 223.658 94.3267 223.694 94.2516 223.713C94.1765 223.733 94.098 223.735 94.0219 223.72C92.4828 223.412 88.7752 223.123 87.0083 226.909C85.5539 230.027 86.4635 231.81 87.2992 232.684C87.361 232.748 87.4052 232.827 87.4275 232.913C87.4498 233 87.4493 233.09 87.4263 233.176C87.4032 233.262 87.3583 233.341 87.2958 233.405C87.2334 233.468 87.1555 233.515 87.0699 233.539C86.051 233.847 84.732 234.689 84.8413 237.069C84.9952 240.359 88.669 240.104 89.7171 239.964C89.8019 239.952 89.8884 239.96 89.9689 239.99C90.0495 240.019 90.1215 240.068 90.1788 240.131C91.0669 241.133 95.07 245.389 99.441 245.938C99.5283 245.948 99.6167 245.936 99.6981 245.903C99.7794 245.87 99.8511 245.816 99.9064 245.748C99.9618 245.68 99.9991 245.599 100.015 245.512C100.031 245.426 100.024 245.337 99.9966 245.253L98.1497 239.73C98.1082 239.606 98.1148 239.471 98.1681 239.352C98.2214 239.233 98.3176 239.138 98.4376 239.086L99.3779 238.678Z" fill="#353131"/>
<path d="M100.126 239.467C100.126 239.467 95.3994 236.158 95.0254 238.903C94.6514 241.649 99.2717 242.926 101.576 241.923L100.126 239.467Z" fill="url(#paint17_linear_7_445)"/>
<path d="M93.7481 317.492L104.734 279.132C104.794 278.919 104.916 278.729 105.084 278.586C105.253 278.443 105.46 278.352 105.679 278.327C107.671 278.094 113.438 277.442 120.096 276.879C128.116 276.201 137.43 275.647 142.996 276.118C143.179 276.132 143.356 276.19 143.512 276.288C143.667 276.386 143.796 276.521 143.887 276.681C143.979 276.84 144.029 277.02 144.035 277.203C144.04 277.387 144.001 277.569 143.919 277.734C140.755 284.137 127.736 310.184 121.216 318.717C121.11 318.857 120.973 318.97 120.816 319.047C120.658 319.124 120.485 319.164 120.31 319.162L94.8239 318.925C94.6503 318.924 94.4792 318.883 94.3241 318.805C94.1689 318.727 94.0339 318.615 93.9297 318.476C93.8255 318.337 93.7548 318.176 93.7233 318.005C93.6918 317.835 93.7003 317.659 93.7481 317.492Z" fill="#E4E7EC"/>
<path d="M96.4024 308.22C96.4024 308.22 94.8726 301.929 95.4898 299.697C96.1069 297.465 97.3028 294.593 101.289 295.234C105.275 295.874 109.977 297.542 109.977 297.542C109.977 297.542 109.74 300.45 106.71 299.512L108.589 300.965C108.589 300.965 108.32 303.294 105.762 302.043L107.513 303.988C107.513 303.988 106.414 305.899 104.532 304.673C102.65 303.446 101.742 308.981 96.4024 308.22Z" fill="url(#paint18_linear_7_445)"/>
<path d="M119.364 288.329C119.364 288.969 119.554 289.594 119.909 290.125C120.264 290.657 120.769 291.071 121.36 291.316C121.95 291.56 122.6 291.624 123.227 291.499C123.854 291.375 124.43 291.067 124.882 290.615C125.334 290.163 125.642 289.587 125.766 288.96C125.891 288.333 125.827 287.683 125.583 287.093C125.338 286.502 124.924 285.997 124.392 285.642C123.861 285.287 123.236 285.097 122.596 285.097C121.739 285.097 120.917 285.438 120.311 286.044C119.705 286.65 119.364 287.472 119.364 288.329Z" fill="#414791"/>
<path d="M105.974 290.455L108.211 282.869C108.341 282.416 108.591 282.007 108.935 281.685C109.28 281.363 109.705 281.141 110.165 281.042C117.176 279.58 136.362 279.27 136.554 279.267L136.542 278.41C135.751 278.422 117.08 278.718 109.991 280.203C109.379 280.334 108.814 280.628 108.355 281.055C107.897 281.481 107.563 282.024 107.389 282.625L105.154 290.213L105.974 290.455Z" fill="#414791"/>
<path d="M391.474 233.404C391.542 233.275 391.647 233.169 391.775 233.1C391.904 233.032 392.05 233.003 392.195 233.019C392.34 233.034 392.477 233.093 392.588 233.187C392.699 233.281 392.779 233.407 392.818 233.547C393.469 235.893 395.047 239.983 398.359 241.436C398.525 241.51 398.683 241.59 398.836 241.658C398.925 241.406 398.952 241.137 398.916 240.872C398.88 240.607 398.781 240.355 398.628 240.136C397.6 238.564 399.458 236.417 399.458 236.417C399.458 236.417 399.579 238.309 401.017 239.496C402.248 240.522 402.85 242.803 402.003 244.676C400.213 251.631 397.54 260.829 407.976 267.55C418.413 274.271 433.13 254.866 433.13 254.866L425.828 278.01C425.828 278.01 414.561 286.321 401.454 274.633C388.347 262.945 397.035 245.926 397.035 245.926C397.035 245.926 387.029 241.897 391.474 233.404Z" fill="url(#paint19_linear_7_445)"/>
<path d="M434.949 220.867C434.949 220.867 431.923 207.293 447.471 210.886C447.471 210.886 455.012 209.654 455.402 216.776C455.402 216.776 460.267 219.982 456.704 226.147C456.704 226.147 471.162 220.562 477.461 233.227C483.761 245.892 477.971 252.872 471.901 254.688C471.901 254.688 476.826 257.151 474.489 262.733C472.153 268.315 460.373 272.238 453.404 265.459C453.404 265.459 433.588 268.075 433.985 254.08C433.985 254.08 424.768 248.128 434.447 236.562C444.126 224.996 434.949 220.867 434.949 220.867Z" fill="url(#paint20_linear_7_445)"/>
<path d="M434.094 252.327C437.219 251.391 446.316 249.661 454.969 257.646C455.689 258.311 456.213 259.16 456.485 260.101C456.756 261.043 456.764 262.041 456.508 262.987C454.184 271.543 448.052 296.82 453.43 307.759C453.43 307.759 443.955 318.203 433.619 309.784C433.619 309.784 428.982 289.571 422.907 280.695C418.713 274.568 429.594 257.691 432.348 253.608C432.765 252.993 433.382 252.54 434.094 252.327Z" fill="#256EC5"/>
<path d="M442.726 235.329C442.726 235.329 447.343 248.399 447.694 254.165C447.694 254.165 442.587 256.487 437.776 252.567C437.776 252.567 437.271 239.513 436.545 237.176L442.726 235.329Z" fill="url(#paint21_linear_7_445)"/>
<path d="M436.303 217.51C436.303 217.51 424.218 234.421 431.442 239.334C438.667 244.247 447.269 232.228 447.269 232.228C447.269 232.228 450.073 222.97 447.141 219.831C444.209 216.691 436.303 217.51 436.303 217.51Z" fill="url(#paint22_linear_7_445)"/>
<path d="M441.896 213.467C441.896 213.467 436.345 214.782 435.568 217.294C434.79 219.806 443.44 222.136 445.864 222.25L447.817 232.386C447.817 232.386 453.592 222.844 451.305 217.344C449.018 211.843 441.896 213.467 441.896 213.467Z" fill="url(#paint23_linear_7_445)"/>
<path d="M444.926 230.983C444.926 230.983 449.63 225.536 451.501 229.087C453.373 232.638 447.267 235.305 445.154 233.561L444.926 230.983Z" fill="url(#paint24_linear_7_445)"/>
<path d="M421.556 352.223C421.591 353.146 419.98 360.419 419.103 364.302C418.75 365.863 418.996 367.499 419.792 368.888L450.157 419.995C450.523 420.613 450.792 421.284 450.954 421.983C451.511 424.381 452.664 430.259 452.062 435.606L450.491 438.869L457.284 437.33L458.763 419.085L456.839 417.913C455.179 416.899 453.885 415.383 453.146 413.585C450.4 406.916 443.582 389.938 441.824 381.664C439.823 372.26 429.384 364.623 429.384 364.623L431.218 360.286L421.556 352.223Z" fill="url(#paint25_linear_7_445)"/>
<path d="M464.834 431.049C464.834 431.049 461.165 425.232 460.734 422.967C460.303 420.701 459.101 416.706 456.839 417.909C456.839 417.909 455.774 428.908 456.14 433.205C456.506 437.502 451.283 437.36 451.283 437.36C451.283 437.36 449.842 437.563 448.788 438.618C448.06 439.346 448.58 440.609 449.608 440.675C452.041 440.844 454.486 440.709 456.885 440.274C457.37 440.179 457.809 439.926 458.134 439.554C458.459 439.183 458.651 438.713 458.681 438.221L459.434 425.562L464.062 431.41L464.834 431.049Z" fill="url(#paint26_linear_7_445)"/>
<path d="M439.695 360.363C439.695 360.363 440.773 406.074 440.911 412.57C441.05 419.067 439.886 433.451 433.378 437.753L436.209 439.849C436.209 439.849 439.749 436.84 443.208 431.052C447.091 424.547 448.267 423.356 448.267 423.356L446.977 420.717C446.413 419.562 446.247 418.252 446.506 416.994C447.911 410.186 452.604 387.543 453.883 382.672C455.394 376.916 455.502 369.23 450.246 362.796C444.99 356.363 439.695 360.363 439.695 360.363Z" fill="url(#paint27_linear_7_445)"/>
<path d="M445.705 441.91C445.802 441.911 445.897 441.877 445.971 441.814C446.045 441.751 446.093 441.663 446.107 441.566C446.324 440.043 447.226 433.933 447.963 432.35C448.808 430.539 451.569 422.913 447.963 422.265C447.963 422.265 438.995 435.369 437.272 437.136C435.55 438.902 433.379 437.751 433.379 437.751C432.217 438.161 431.196 438.894 430.436 439.863C430.302 440.038 430.22 440.248 430.198 440.467C430.177 440.687 430.217 440.908 430.314 441.106C430.411 441.304 430.562 441.471 430.748 441.589C430.935 441.706 431.151 441.77 431.372 441.771L437.412 441.828C438.269 441.836 439.108 441.584 439.819 441.106C440.53 440.628 441.08 439.946 441.397 439.15C442.461 436.495 444.288 432.598 446.416 430.871L445.31 441.463C445.304 441.519 445.31 441.575 445.327 441.629C445.345 441.682 445.373 441.731 445.41 441.773C445.448 441.815 445.493 441.848 445.544 441.872C445.595 441.895 445.651 441.907 445.707 441.908L445.705 441.91Z" fill="url(#paint28_linear_7_445)"/>
<path d="M432.192 304.856C432.192 304.856 433.553 309.195 431.463 316.341L418.488 361.645C418.39 361.988 418.426 362.355 418.589 362.672C418.752 362.989 419.03 363.232 419.365 363.352C423.247 364.745 436.003 368.682 453.418 367.481C453.844 367.454 454.25 367.289 454.575 367.012C454.9 366.734 455.126 366.359 455.22 365.942C456.368 360.777 460.282 343.156 461.088 339.535C464.167 325.738 467.589 310.86 452.502 301.863C445.55 304.835 439.064 306.597 432.192 304.856Z" fill="#353131"/>
<path d="M456.206 259.354C456.206 259.354 470.968 271.621 474.631 288.383C478.294 305.145 453.06 306.927 453.06 306.927C453.06 306.927 449.636 303.103 445.568 304.465C441.5 305.827 445.26 297.79 450.011 297.81C454.763 297.83 452.566 301.594 459.297 298.546C465.853 295.575 469.907 286.387 453.177 272.466C452.202 271.662 451.442 270.628 450.967 269.457C447.718 261.278 450.295 255.915 456.206 259.354Z" fill="url(#paint29_linear_7_445)"/>
<defs>
<linearGradient id="paint0_linear_7_445" x1="531.375" y1="578.69" x2="149.616" y2="104.569" gradientUnits="userSpaceOnUse">
<stop offset="0.515625" stop-color="#A1ABE4"/>
<stop offset="1" stop-color="#52B25C" stop-opacity="0.21"/>
</linearGradient>
<linearGradient id="paint1_linear_7_445" x1="357.528" y1="70.649" x2="39.7953" y2="492.492" gradientUnits="userSpaceOnUse">
<stop offset="0.302083" stop-color="#628FC4"/>
<stop offset="0.448583" stop-color="#5F96AE" stop-opacity="0.846766"/>
<stop offset="1" stop-color="#52B25C" stop-opacity="0.27"/>
</linearGradient>
<linearGradient id="paint2_linear_7_445" x1="423313" y1="131670" x2="68114.4" y2="603255" gradientUnits="userSpaceOnUse">
<stop stop-color="#3481DC"/>
<stop offset="1" stop-color="#B3013D" stop-opacity="0.12"/>
</linearGradient>
<linearGradient id="paint3_linear_7_445" x1="197.051" y1="223.74" x2="339.231" y2="137.729" gradientUnits="userSpaceOnUse">
<stop stop-color="#F5F5F6"/>
<stop offset="0.932292" stop-color="#28313C"/>
</linearGradient>
<linearGradient id="paint4_linear_7_445" x1="110105" y1="-108259" x2="134806" y2="-128747" gradientUnits="userSpaceOnUse">
<stop stop-color="#353131"/>
<stop offset="1" stop-color="#1A0F91"/>
</linearGradient>
<linearGradient id="paint5_linear_7_445" x1="421042" y1="46698" x2="415453" y2="58965.9" gradientUnits="userSpaceOnUse">
<stop offset="0.927083" stop-color="#FCD8E4"/>
<stop offset="1" stop-color="#628FC4"/>
</linearGradient>
<linearGradient id="paint6_linear_7_445" x1="39079.9" y1="20289.7" x2="40015.8" y2="22427.6" gradientUnits="userSpaceOnUse">
<stop stop-color="#EFA483"/>
<stop offset="1" stop-color="#F36F56"/>
</linearGradient>
<linearGradient id="paint7_linear_7_445" x1="335495" y1="266799" x2="308211" y2="274256" gradientUnits="userSpaceOnUse">
<stop stop-color="#9C8E92"/>
<stop offset="1" stop-color="#353131"/>
</linearGradient>
<linearGradient id="paint8_linear_7_445" x1="167561" y1="36460.8" x2="161286" y2="43099.5" gradientUnits="userSpaceOnUse">
<stop stop-color="#628FC4"/>
<stop offset="1" stop-color="#628FC4"/>
</linearGradient>
<linearGradient id="paint9_linear_7_445" x1="33504.8" y1="26437.6" x2="35046.6" y2="28743.6" gradientUnits="userSpaceOnUse">
<stop stop-color="#EFA483"/>
<stop offset="1" stop-color="#F36F56"/>
</linearGradient>
<linearGradient id="paint10_linear_7_445" x1="501038" y1="265692" x2="463467" y2="280965" gradientUnits="userSpaceOnUse">
<stop stop-color="#353131"/>
<stop offset="1" stop-color="#353131"/>
</linearGradient>
<linearGradient id="paint11_linear_7_445" x1="201976" y1="117314" x2="207975" y2="129347" gradientUnits="userSpaceOnUse">
<stop stop-color="#EFA483"/>
<stop offset="1" stop-color="#F36F56"/>
</linearGradient>
<linearGradient id="paint12_linear_7_445" x1="68111.5" y1="57245.6" x2="71584.2" y2="62058.9" gradientUnits="userSpaceOnUse">
<stop stop-color="#EFA483"/>
<stop offset="1" stop-color="#F36F56"/>
</linearGradient>
<linearGradient id="paint13_linear_7_445" x1="77820.4" y1="15421" x2="78474.4" y2="14839.4" gradientUnits="userSpaceOnUse">
<stop stop-color="#FEBBBA"/>
<stop offset="1" stop-color="#FF928E"/>
</linearGradient>
<linearGradient id="paint14_linear_7_445" x1="253358" y1="65538.1" x2="255125" y2="73519.6" gradientUnits="userSpaceOnUse">
<stop stop-color="#EFA483"/>
<stop offset="1" stop-color="#F36F56"/>
</linearGradient>
<linearGradient id="paint15_linear_7_445" x1="101357" y1="54385.6" x2="103993" y2="60122" gradientUnits="userSpaceOnUse">
<stop stop-color="#EFA483"/>
<stop offset="1" stop-color="#F36F56"/>
</linearGradient>
<linearGradient id="paint16_linear_7_445" x1="116045" y1="58244.4" x2="118747" y2="64527.3" gradientUnits="userSpaceOnUse">
<stop stop-color="#EFA483"/>
<stop offset="1" stop-color="#F36F56"/>
</linearGradient>
<linearGradient id="paint17_linear_7_445" x1="35724.5" y1="12296.9" x2="36139.5" y2="13723.6" gradientUnits="userSpaceOnUse">
<stop stop-color="#EFA483"/>
<stop offset="1" stop-color="#F36F56"/>
</linearGradient>
<linearGradient id="paint18_linear_7_445" x1="79435.6" y1="35932.6" x2="80972.1" y2="39912.6" gradientUnits="userSpaceOnUse">
<stop stop-color="#EFA483"/>
<stop offset="1" stop-color="#F36F56"/>
</linearGradient>
<linearGradient id="paint19_linear_7_445" x1="232401" y1="129940" x2="238899" y2="143463" gradientUnits="userSpaceOnUse">
<stop stop-color="#EFA483"/>
<stop offset="1" stop-color="#F36F56"/>
</linearGradient>
<linearGradient id="paint20_linear_7_445" x1="-282130" y1="64426.1" x2="-296920" y2="72687.3" gradientUnits="userSpaceOnUse">
<stop stop-color="#353131"/>
<stop offset="1" stop-color="#353131"/>
</linearGradient>
<linearGradient id="paint21_linear_7_445" x1="60882.6" y1="53132.6" x2="64143.5" y2="57468" gradientUnits="userSpaceOnUse">
<stop stop-color="#EFA483"/>
<stop offset="1" stop-color="#F36F56"/>
</linearGradient>
<linearGradient id="paint22_linear_7_445" x1="105274" y1="62821.9" x2="108537" y2="69180.6" gradientUnits="userSpaceOnUse">
<stop stop-color="#EFA483"/>
<stop offset="1" stop-color="#F36F56"/>
</linearGradient>
<linearGradient id="paint23_linear_7_445" x1="-91721.6" y1="19408.5" x2="-96538.3" y2="22095.2" gradientUnits="userSpaceOnUse">
<stop stop-color="#353131"/>
<stop offset="1" stop-color="#353131"/>
</linearGradient>
<linearGradient id="paint24_linear_7_445" x1="37999.3" y1="17096.1" x2="38726.6" y2="18980" gradientUnits="userSpaceOnUse">
<stop stop-color="#EFA483"/>
<stop offset="1" stop-color="#F36F56"/>
</linearGradient>
<linearGradient id="paint25_linear_7_445" x1="216295" y1="235174" x2="231327" y2="251253" gradientUnits="userSpaceOnUse">
<stop stop-color="#EFA483"/>
<stop offset="1" stop-color="#F36F56"/>
</linearGradient>
<linearGradient id="paint26_linear_7_445" x1="-78993" y1="70732.7" x2="-80729" y2="70715.4" gradientUnits="userSpaceOnUse">
<stop stop-color="#2E64A5"/>
<stop offset="1" stop-color="#2E64A5"/>
</linearGradient>
<linearGradient id="paint27_linear_7_445" x1="116494" y1="219107" x2="129041" y2="226852" gradientUnits="userSpaceOnUse">
<stop stop-color="#EFA483"/>
<stop offset="1" stop-color="#F36F56"/>
</linearGradient>
<linearGradient id="paint28_linear_7_445" x1="-96187.9" y1="60417" x2="-98660.4" y2="60392.3" gradientUnits="userSpaceOnUse">
<stop stop-color="#2E64A5"/>
<stop offset="1" stop-color="#2E64A5"/>
</linearGradient>
<linearGradient id="paint29_linear_7_445" x1="169370" y1="132054" x2="177194" y2="143721" gradientUnits="userSpaceOnUse">
<stop stop-color="#EFA483"/>
<stop offset="1" stop-color="#F36F56"/>
</linearGradient>
</defs>
</svg>
