<svg width="20" height="20" viewBox="0 0 20 20" fill="none" xmlns="http://www.w3.org/2000/svg">
<path d="M7.57031 9.56418C7.92081 9.56418 8.20494 9.84626 8.20494 10.1942V11.0221H9.04621C9.28792 10.9961 9.52334 11.1095 9.65239 11.314C9.78145 11.5186 9.78145 11.7783 9.65239 11.9829C9.52334 12.1874 9.28792 12.3008 9.04621 12.2748H8.20494V13.11C8.20096 13.4563 7.91914 13.7361 7.57031 13.74C7.21531 13.736 6.93564 13.4551 6.93567 13.11V12.2748H6.0944C5.85269 12.3008 5.61727 12.1874 5.48822 11.9829C5.35916 11.7783 5.35916 11.5186 5.48822 11.314C5.61727 11.1095 5.85269 10.9961 6.0944 11.0221H6.93567V10.1942L6.94146 10.1087C6.98348 9.80121 7.24901 9.56418 7.57031 9.56418ZM13.4739 12.6558C13.6538 12.4769 13.924 12.4221 14.1602 12.5166C14.2361 12.5518 14.3058 12.5988 14.3668 12.6558C14.6094 12.8998 14.6077 13.2926 14.3629 13.5345C14.1182 13.7763 13.7226 13.7763 13.4778 13.5345C13.2331 13.2926 13.2313 12.8998 13.4739 12.6558ZM12.2637 9.72536C12.4149 9.66349 12.5847 9.66349 12.736 9.72536C12.8149 9.75903 12.8874 9.80614 12.95 9.86455C13.067 9.98147 13.1333 10.1393 13.1345 10.3041C13.1355 10.3868 13.1204 10.4688 13.0902 10.5459C13.0611 10.6246 13.0129 10.695 12.95 10.751C12.702 10.9854 12.3124 10.9854 12.0644 10.751C11.9412 10.6361 11.8713 10.4757 11.8713 10.3078C11.8713 10.1399 11.9412 9.97948 12.0644 9.86455C12.1199 9.8044 12.1879 9.75691 12.2637 9.72536ZM18.3295 9.59675C18.2178 7.03091 16.0445 5.06675 13.4253 5.08508C13.1045 5.09008 12.8478 5.35258 12.852 5.67425C12.8562 5.99425 13.1178 6.25758 13.4403 6.24758C15.4795 6.20675 17.0812 7.68175 17.167 9.64592C17.1712 9.72258 17.172 9.80008 17.1695 9.89175V13.5076C17.1912 14.4584 16.8403 15.3592 16.1837 16.0451C15.527 16.7326 14.642 17.1217 13.6903 17.1426C13.6128 17.1442 13.5345 17.1426 13.4228 17.1392C11.1103 17.1784 8.80782 17.1784 6.54282 17.1401C4.56532 17.2251 2.91866 15.7009 2.83282 13.7426C2.82949 13.6642 2.82866 13.5859 2.83032 13.4951V9.87842C2.78782 7.91675 4.34866 6.28675 6.31199 6.24508C6.38866 6.24258 6.46699 6.24508 6.56866 6.24758H10.4745C10.7953 6.24758 11.0562 5.98758 11.0562 5.66592V4.88675C11.0395 3.68008 10.0503 2.70591 8.85116 2.70591H8.83449H8.00949H8.00449C7.88199 2.70591 7.76616 2.65841 7.67782 2.57175C7.58782 2.48508 7.53782 2.36758 7.53699 2.24258C7.53366 1.92341 7.27366 1.66675 6.95616 1.66675H6.94949C6.62866 1.67008 6.37116 1.93341 6.37449 2.25425C6.37949 2.68925 6.55282 3.09758 6.86366 3.40175C7.17532 3.70841 7.58532 3.85091 8.01616 3.86925H8.83865H8.84699C9.41699 3.86925 9.88616 4.33091 9.89282 4.89341V5.08508L6.59366 5.08592C6.48949 5.08175 6.38616 5.08008 6.28449 5.08175C3.68282 5.13841 1.61116 7.30175 1.66782 9.89175V13.4834C1.66616 13.5859 1.66699 13.6884 1.67116 13.7917C1.78532 16.3917 3.98782 18.4292 6.55866 18.3017C7.67616 18.3217 8.81366 18.3309 9.95616 18.3309C11.1053 18.3309 12.2595 18.3217 13.4078 18.3009C13.512 18.3051 13.6153 18.3067 13.7178 18.3042C14.9778 18.2767 16.152 17.7609 17.0237 16.8492C17.8953 15.9384 18.3603 14.7426 18.332 13.4951V9.90592C18.3345 9.80342 18.3337 9.70008 18.3295 9.59675Z" fill="#606163"/>
</svg>
