<svg width="735" height="620" viewBox="0 0 735 620" fill="none" xmlns="http://www.w3.org/2000/svg">
<path d="M551.539 206.257L582.442 224.084C584.142 225.065 585.68 225.158 586.792 224.516C587.906 223.873 588.593 222.497 588.593 220.54V184.88C588.478 182.747 587.861 180.672 586.792 178.822C585.723 176.973 584.233 175.401 582.442 174.235L551.539 156.405C549.841 155.428 548.303 155.334 547.19 155.976C546.076 156.617 545.389 157.994 545.389 159.954V195.613C545.504 197.746 546.122 199.821 547.19 201.67C548.259 203.519 549.749 205.091 551.539 206.257Z" fill="#7AC3E3"/>
<path d="M588.593 220.54V184.88C588.478 182.747 587.861 180.672 586.792 178.822C585.723 176.972 584.233 175.401 582.442 174.235L551.539 156.405C549.841 155.428 548.303 155.334 547.19 155.976L587.673 132.62C588.786 131.977 590.322 132.071 592.021 133.05L622.925 150.879C624.715 152.046 626.205 153.617 627.274 155.467C628.343 157.317 628.96 159.392 629.076 161.525V197.183C629.076 199.144 628.389 200.52 627.274 201.162L586.792 224.516C587.906 223.873 588.593 222.497 588.593 220.54Z" fill="url(#paint0_linear_7_1122)"/>
<g style="mix-blend-mode:multiply">
<path d="M549.996 193.065L583.986 212.673V217.722L549.996 198.115V193.065ZM549.996 183.12L583.986 202.728V207.778L549.996 188.17V183.12ZM549.996 173.175L583.986 192.781V197.831L549.996 178.225V173.175ZM549.996 163.229L583.986 182.837V187.887L549.996 168.279V163.229Z" fill="#E4EAED"/>
</g>
<mask id="mask0_7_1122" style="mask-type:luminance" maskUnits="userSpaceOnUse" x="412" y="36" width="94" height="242">
<path d="M503.361 59.4777L465.205 37.464C461.906 35.5611 456.508 35.5611 453.21 37.464L415.054 59.4773C413.404 60.4285 412.579 61.6831 412.579 62.9373V251.09C412.579 252.345 413.404 253.599 415.054 254.55L453.21 276.564C456.509 278.467 461.907 278.467 465.205 276.564L503.361 254.55C505.011 253.599 505.835 252.344 505.835 251.09V62.9373C505.835 61.6831 505.011 60.4289 503.361 59.4777Z" fill="url(#paint1_linear_7_1122)"/>
</mask>
<g mask="url(#mask0_7_1122)">
<path d="M412.579 62.9373V251.09C412.579 252.345 413.404 253.599 415.054 254.55L453.21 276.564C456.509 278.467 461.907 278.467 465.205 276.564L503.361 254.55C505.011 253.599 505.835 252.344 505.835 251.09V62.9373H412.579Z" fill="url(#paint2_linear_7_1122)"/>
<path d="M415.054 66.3972C413.404 65.4456 412.579 64.1914 412.579 62.9372C412.579 61.683 413.404 60.4283 415.054 59.4771L453.21 37.4634C456.508 35.561 461.907 35.561 465.205 37.4638L503.361 59.4776C505.011 60.4283 505.835 61.6834 505.835 62.9372C505.835 64.1914 505.011 65.4456 503.361 66.3972L465.205 88.4105C461.906 90.3134 456.509 90.3134 453.21 88.4105L415.054 66.3972Z" fill="#F5F7FA"/>
</g>
<mask id="mask1_7_1122" style="mask-type:luminance" maskUnits="userSpaceOnUse" x="257" y="83" width="168" height="435">
<path d="M419.821 125.215L351.397 85.7399C345.483 82.3278 335.804 82.3278 329.889 85.7399L261.465 125.214C258.508 126.921 257.029 129.171 257.029 131.42V468.82C257.029 471.069 258.508 473.318 261.465 475.024L329.889 514.499C335.803 517.912 345.483 517.912 351.398 514.499L419.821 475.024C422.779 473.317 424.257 471.069 424.257 468.82V131.42C424.257 129.17 422.779 126.921 419.821 125.215Z" fill="url(#paint3_linear_7_1122)"/>
</mask>
<g mask="url(#mask1_7_1122)">
<path d="M257.029 131.419V468.819C257.029 471.069 258.508 473.317 261.465 475.023L329.889 514.499C335.803 517.912 345.483 517.912 351.398 514.499L419.821 475.023C422.779 473.318 424.257 471.068 424.257 468.819V131.419H257.029Z" fill="url(#paint4_linear_7_1122)"/>
<path d="M261.465 137.624C258.508 135.917 257.029 133.668 257.029 131.419C257.029 129.17 258.508 126.92 261.465 125.214L329.889 85.7397C335.803 82.3272 345.483 82.3272 351.397 85.7397L419.821 125.215C422.779 126.921 424.257 129.17 424.257 131.419C424.257 133.668 422.779 135.917 419.822 137.624L351.398 177.099C345.483 180.511 335.804 180.511 329.889 177.099L261.465 137.624Z" fill="#F5F7FA"/>
</g>
<mask id="mask2_7_1122" style="mask-type:luminance" maskUnits="userSpaceOnUse" x="194" y="206" width="160" height="414">
<path d="M349.315 246.187L284.04 208.528C278.397 205.272 269.164 205.272 263.521 208.528L198.246 246.187C195.425 247.814 194.015 249.96 194.015 252.106V573.981C194.015 576.127 195.425 578.272 198.246 579.9L263.522 617.558C269.165 620.813 278.398 620.813 284.041 617.558L349.316 579.9C352.138 578.272 353.547 576.127 353.547 573.981V252.107C353.547 249.961 352.138 247.815 349.315 246.187Z" fill="url(#paint5_linear_7_1122)"/>
</mask>
<g mask="url(#mask2_7_1122)">
<path d="M194.015 252.106V573.982C194.015 576.127 195.425 578.273 198.246 579.901L263.522 617.558C269.165 620.814 278.398 620.814 284.041 617.558L349.316 579.901C352.138 578.273 353.547 576.127 353.547 573.981V252.107L194.015 252.106Z" fill="url(#paint6_linear_7_1122)"/>
<path d="M198.246 258.025C195.425 256.397 194.015 254.252 194.015 252.106C194.015 249.96 195.425 247.815 198.246 246.187L263.521 208.528C269.164 205.273 278.397 205.273 284.04 208.528L349.315 246.187C352.138 247.815 353.547 249.961 353.547 252.106C353.547 254.252 352.138 256.397 349.315 258.025L284.041 295.683C278.398 298.938 269.165 298.938 263.522 295.683L198.246 258.025Z" fill="#F6F6FB"/>
</g>
<path d="M407.646 241.522L366.479 217.772L407.646 194.021L448.814 217.772L407.646 241.522Z" fill="#F4FBFE"/>
<path d="M407.646 289.02L366.479 265.27V217.772L407.646 241.522V289.02Z" fill="#BCE0EF"/>
<path d="M407.646 289.02L448.815 265.27V217.772L407.646 241.522V289.02Z" fill="#C0E2F1"/>
<path d="M407.646 201.978L404.355 200.079L407.646 198.18L410.939 200.079L407.646 201.978ZM415.314 206.401L412.023 204.502L415.314 202.603L418.607 204.502L415.314 206.401ZM422.983 210.825L419.689 208.926L422.983 207.026L426.272 208.926L422.983 210.825ZM430.648 215.248L427.357 213.348L430.648 211.449L433.941 213.348L430.648 215.248ZM438.316 219.67L435.023 217.772L438.316 215.873L441.608 217.772L438.316 219.67ZM399.979 206.401L396.688 204.502L399.979 202.603L403.272 204.502L399.979 206.401ZM407.646 210.825L404.355 208.926L407.646 207.026L410.939 208.926L407.646 210.825ZM415.314 215.248L412.023 213.348L415.314 211.449L418.607 213.348L415.314 215.248ZM422.983 219.67L419.689 217.772L422.983 215.873L426.272 217.772L422.983 219.67ZM430.648 224.093L427.357 222.194L430.648 220.295L433.941 222.194L430.648 224.093ZM392.314 210.825L389.021 208.926L392.314 207.026L395.606 208.926L392.314 210.825ZM399.979 215.248L396.688 213.348L399.979 211.449L403.272 213.348L399.979 215.248ZM407.646 219.67L404.355 217.772L407.646 215.873L410.939 217.772L407.646 219.67ZM415.314 224.093L412.023 222.194L415.314 220.295L418.607 222.194L415.314 224.093ZM422.983 228.515L419.689 226.618L422.983 224.719L426.272 226.618L422.983 228.515ZM384.646 215.248L381.354 213.348L384.646 211.449L387.939 213.348L384.646 215.248ZM392.314 219.67L389.021 217.772L392.314 215.873L395.606 217.772L392.314 219.67ZM399.979 224.093L396.688 222.194L399.979 220.295L403.272 222.194L399.979 224.093ZM407.646 228.515L404.355 226.618L407.646 224.719L410.939 226.618L407.646 228.515ZM415.314 232.941L412.023 231.041L415.314 229.142L418.607 231.041L415.314 232.941ZM376.979 219.67L373.687 217.772L376.979 215.873L380.271 217.772L376.979 219.67ZM384.646 224.093L381.354 222.194L384.646 220.295L387.939 222.194L384.646 224.093ZM392.314 228.515L389.021 226.618L392.314 224.719L395.606 226.618L392.314 228.515ZM399.979 232.941L396.688 231.041L399.979 229.142L403.272 231.041L399.979 232.941ZM407.646 237.363L404.355 235.465L407.646 233.566L410.939 235.465L407.646 237.363ZM373.376 229.705L370.084 227.806V224.008L373.376 225.907V229.705ZM381.041 234.127L377.751 232.229V228.43L381.041 230.331V234.127ZM388.709 238.552L385.418 236.652V232.855L388.709 234.753V238.552ZM396.377 242.976L393.085 241.075V237.278L396.377 239.178V242.976ZM404.044 247.399L400.753 245.498V241.701L404.044 243.6V247.399ZM373.376 238.551L370.084 236.652V232.855L373.376 234.753V238.551ZM381.041 242.974L377.751 241.075V237.278L381.041 239.178V242.974ZM388.709 247.399L385.418 245.498V241.701L388.709 243.6V247.399ZM396.377 251.822L393.085 249.922V246.125L396.377 248.023V251.822ZM404.044 256.245L400.753 254.346V250.547L404.044 252.447V256.245ZM373.376 247.398L370.084 245.498V241.701L373.376 243.6V247.398ZM381.041 251.822L377.751 249.922V246.125L381.041 248.023V251.822ZM388.709 256.245L385.418 254.346V250.547L388.709 252.447V256.245ZM396.377 260.668L393.085 258.769V254.972L396.377 256.87V260.668ZM404.044 265.092L400.753 263.192V259.394L404.044 261.293V265.092ZM373.376 256.244L370.084 254.346V250.547L373.376 252.447V256.244ZM381.041 260.668L377.751 258.769V254.972L381.041 256.87V260.668ZM388.709 265.092L385.418 263.192V259.394L388.709 261.293V265.092ZM396.377 269.516L393.085 267.616V263.818L396.377 265.716V269.516ZM404.044 273.937L400.753 272.039V268.24L404.044 270.14V273.937ZM373.376 265.092L370.084 263.192V259.394L373.376 261.293V265.092ZM381.041 269.516L377.751 267.616V263.818L381.041 265.716V269.516ZM388.709 273.937L385.418 272.039V268.24L388.709 270.14V273.937ZM396.377 278.361L393.085 276.461V272.662L396.377 274.563V278.361ZM404.044 282.784L400.753 280.885V277.087L404.044 278.988V282.784ZM441.919 229.705L445.211 227.806V224.008L441.919 225.907V229.705ZM434.253 234.127L437.544 232.229V228.43L434.253 230.331V234.127ZM426.585 238.552L429.876 236.652V232.855L426.585 234.753V238.552ZM418.917 242.976L422.209 241.075V237.278L418.917 239.178V242.976ZM411.25 247.399L414.543 245.498V241.701L411.25 243.6V247.399ZM441.919 238.551L445.211 236.652V232.855L441.919 234.753V238.551ZM434.253 242.974L437.544 241.075V237.278L434.253 239.178V242.974ZM426.585 247.399L429.876 245.498V241.701L426.585 243.6V247.399ZM418.917 251.822L422.209 249.922V246.125L418.917 248.023V251.822ZM411.25 256.245L414.543 254.346V250.547L411.25 252.447V256.245ZM441.919 247.398L445.211 245.498V241.701L441.919 243.6V247.398ZM434.253 251.822L437.544 249.922V246.125L434.253 248.023V251.822ZM426.585 256.245L429.876 254.346V250.547L426.585 252.447V256.245ZM418.917 260.668L422.209 258.769V254.972L418.917 256.87V260.668ZM411.25 265.092L414.543 263.192V259.394L411.25 261.293V265.092ZM441.919 256.244L445.211 254.346V250.547L441.919 252.447V256.244ZM434.253 260.668L437.544 258.769V254.972L434.253 256.87V260.668ZM426.585 265.092L429.876 263.192V259.394L426.585 261.293V265.092ZM418.917 269.516L422.209 267.616V263.818L418.917 265.716V269.516ZM411.25 273.937L414.543 272.039V268.24L411.25 270.14V273.937ZM441.919 265.092L445.211 263.192V259.394L441.919 261.293V265.092ZM434.253 269.516L437.544 267.616V263.818L434.253 265.716V269.516ZM426.585 273.937L429.876 272.039V268.24L426.585 270.14V273.937ZM418.917 278.361L422.209 276.461V272.662L418.917 274.563V278.361ZM411.25 282.784L414.543 280.885V277.087L411.25 278.988V282.784Z" fill="#E0F3FB"/>
<mask id="mask3_7_1122" style="mask-type:luminance" maskUnits="userSpaceOnUse" x="418" y="151" width="135" height="348">
<path d="M548.75 184.927L494.049 153.369C489.321 150.64 481.583 150.64 476.854 153.368L422.153 184.926C419.788 186.29 418.606 188.088 418.607 189.887V459.62C418.607 461.418 419.788 463.216 422.153 464.58L476.854 496.139C481.583 498.867 489.321 498.867 494.049 496.139L548.75 464.58C551.114 463.216 552.297 461.418 552.297 459.62V189.887C552.297 188.088 551.114 186.291 548.75 184.927V184.927Z" fill="url(#paint7_linear_7_1122)"/>
</mask>
<g mask="url(#mask3_7_1122)">
<path d="M418.607 189.887V459.62C418.607 461.418 419.788 463.216 422.153 464.58L476.854 496.139C481.583 498.867 489.321 498.867 494.049 496.139L548.75 464.58C551.114 463.216 552.297 461.418 552.297 459.62V189.887H418.607Z" fill="url(#paint8_linear_7_1122)"/>
<path d="M422.153 194.847C419.788 193.483 418.607 191.685 418.607 189.887C418.606 188.088 419.788 186.29 422.153 184.926L476.854 153.368C481.583 150.64 489.321 150.64 494.049 153.368L548.75 184.926C551.114 186.291 552.297 188.088 552.297 189.886C552.297 191.684 551.114 193.483 548.75 194.847L494.049 226.405C489.321 229.133 481.583 229.133 476.854 226.405L422.153 194.847Z" fill="#F5F7FA"/>
</g>
<mask id="mask4_7_1122" style="mask-type:luminance" maskUnits="userSpaceOnUse" x="643" y="196" width="92" height="238">
<path d="M732.576 219.645L695.182 198.072C691.949 196.207 686.659 196.207 683.427 198.072L646.033 219.645C644.417 220.577 643.609 221.806 643.609 223.036V407.427C643.609 408.656 644.417 409.885 646.034 410.817L683.427 432.391C686.66 434.256 691.949 434.256 695.182 432.391L732.576 410.818C734.192 409.885 735 408.656 735 407.427V223.036C735 221.806 734.192 220.577 732.576 219.645V219.645Z" fill="url(#paint9_linear_7_1122)"/>
</mask>
<g mask="url(#mask4_7_1122)">
<path d="M643.608 223.036V407.427C643.608 408.656 644.417 409.885 646.034 410.817L683.427 432.391C686.66 434.256 691.949 434.256 695.182 432.391L732.576 410.818C734.192 409.885 735 408.656 735 407.427V223.036H643.608Z" fill="url(#paint10_linear_7_1122)"/>
<path d="M646.034 226.426C644.417 225.494 643.609 224.265 643.609 223.036C643.609 221.806 644.417 220.577 646.034 219.645L683.427 198.071C686.659 196.207 691.949 196.207 695.182 198.072L732.576 219.645C734.192 220.577 735 221.806 735 223.036C735 224.265 734.192 225.494 732.576 226.427L695.182 248C691.949 249.864 686.66 249.864 683.427 248L646.034 226.426Z" fill="#F5F7FA"/>
</g>
<mask id="mask5_7_1122" style="mask-type:luminance" maskUnits="userSpaceOnUse" x="512" y="264" width="114" height="293">
<path d="M622.069 292.427L576.007 265.853C572.025 263.556 565.509 263.556 561.528 265.853L515.466 292.427C513.476 293.576 512.48 295.09 512.48 296.604V523.735C512.48 525.248 513.476 526.762 515.466 527.911L561.528 554.485C565.509 556.782 572.025 556.782 576.007 554.485L622.069 527.911C624.06 526.762 625.054 525.248 625.054 523.735V296.604C625.054 295.09 624.059 293.576 622.069 292.427Z" fill="url(#paint11_linear_7_1122)"/>
</mask>
<g mask="url(#mask5_7_1122)">
<path d="M512.48 296.603V523.735C512.48 525.248 513.476 526.762 515.466 527.911L561.528 554.485C565.509 556.782 572.025 556.782 576.007 554.485L622.069 527.911C624.06 526.763 625.054 525.248 625.054 523.735V296.604L512.48 296.603Z" fill="url(#paint12_linear_7_1122)"/>
<path d="M515.466 300.78C513.476 299.632 512.48 298.118 512.48 296.604C512.48 295.09 513.476 293.576 515.466 292.427L561.528 265.853C565.509 263.556 572.025 263.556 576.007 265.853L622.069 292.427C624.058 293.576 625.054 295.09 625.054 296.604C625.054 298.118 624.06 299.632 622.069 300.78L576.007 327.354C572.025 329.651 565.509 329.651 561.528 327.354L515.466 300.78Z" fill="#F5F7FA"/>
</g>
<path d="M443.103 279.462C443.103 276.437 445.249 272.724 447.871 271.211L519.796 229.716C522.418 228.204 524.562 229.441 524.562 232.467V295.027C524.562 298.053 522.418 301.765 519.796 303.279L447.871 344.773C445.249 346.286 443.103 345.049 443.103 342.025V279.462Z" fill="url(#paint13_linear_7_1122)"/>
<path style="mix-blend-mode:screen" d="M447.871 344.773L519.796 303.278C522.418 301.766 524.562 298.053 524.562 295.027V237.306C518.122 241.022 520.903 253.213 516.003 256.041C512.559 258.027 511.766 249.039 506.733 251.943C501.435 254.998 499.318 274.683 493.358 278.12C488.592 280.871 487.929 272.992 483.185 275.729C476.828 279.397 476.938 296.639 470.714 300.229C464.226 303.973 459.193 277.814 453.09 281.334C449.659 283.313 445.687 295.999 443.103 302.947V342.024C443.103 345.049 445.249 346.286 447.871 344.773H447.871Z" fill="url(#paint14_linear_7_1122)"/>
<path d="M480.954 277.017C480.996 276.243 481.22 275.491 481.607 274.82C481.994 274.149 482.535 273.579 483.184 273.156C484.417 272.446 485.415 273.021 485.415 274.443C485.373 275.216 485.149 275.969 484.761 276.64C484.374 277.31 483.833 277.88 483.184 278.303C481.952 279.014 480.954 278.438 480.954 277.017Z" fill="white"/>
<path d="M443.103 342.024V279.462C443.103 276.437 445.249 272.724 447.87 271.211L519.796 229.716C521.091 228.969 522.269 228.895 523.131 229.375L521.431 228.394L521.427 228.398C520.557 227.84 519.33 227.881 517.972 228.664L446.047 270.159C443.425 271.672 441.28 275.385 441.28 278.41V340.97C441.28 342.554 441.87 343.641 442.806 344.107L444.389 345.021C443.595 344.496 443.103 343.465 443.103 342.024Z" fill="url(#paint15_linear_7_1122)"/>
<path d="M542.577 419.831L513.731 436.472C512.145 437.385 510.712 437.472 509.67 436.873C508.633 436.274 507.99 434.988 507.99 433.16V399.876C508.097 397.886 508.673 395.948 509.67 394.222C510.668 392.496 512.059 391.029 513.731 389.941L542.577 373.298C544.164 372.382 545.598 372.297 546.637 372.897C547.676 373.496 548.318 374.78 548.318 376.61V409.892C548.211 411.883 547.635 413.821 546.637 415.548C545.64 417.274 544.249 418.742 542.577 419.831Z" fill="#BFE0EF"/>
<path d="M507.99 433.159V399.876C508.097 397.886 508.673 395.948 509.67 394.222C510.668 392.496 512.059 391.029 513.73 389.941L542.577 373.298C544.164 372.382 545.598 372.297 546.637 372.897L508.85 351.098C507.811 350.499 506.376 350.585 504.79 351.499L475.944 368.14C474.273 369.229 472.882 370.695 471.885 372.422C470.887 374.148 470.312 376.085 470.204 378.075V411.36C470.204 413.189 470.846 414.474 471.884 415.072L509.67 436.874C508.633 436.274 507.99 434.988 507.99 433.16V433.159Z" fill="url(#paint16_linear_7_1122)"/>
<g style="mix-blend-mode:multiply">
<path d="M503.701 390.777C504.668 389.029 506.065 387.555 507.761 386.496L536.608 369.854C538.194 368.939 539.628 368.852 540.666 369.452L542.477 370.497C541.44 369.899 540.005 369.985 538.419 370.9L509.573 387.54C507.901 388.628 506.509 390.095 505.512 391.821C504.514 393.548 503.939 395.485 503.832 397.476V430.76C503.832 432.59 504.475 433.874 505.512 434.474L503.701 433.428C502.664 432.83 502.021 431.544 502.021 429.714V396.432C502.091 394.435 502.669 392.489 503.701 390.778V390.777Z" fill="#DFF4FD"/>
<path d="M498.851 387.98C499.818 386.231 501.215 384.757 502.911 383.698L531.757 367.055C533.344 366.14 534.778 366.054 535.816 366.655L537.626 367.698C536.59 367.1 535.154 367.187 533.569 368.1L504.722 384.742C503.051 385.831 501.66 387.298 500.663 389.025C499.666 390.751 499.09 392.688 498.982 394.678V427.963C498.982 429.79 499.624 431.078 500.663 431.675L498.851 430.631C497.814 430.03 497.17 428.745 497.17 426.918V393.633C497.24 391.636 497.818 389.69 498.851 387.979V387.98Z" fill="#DFF4FD"/>
<path d="M494.002 385.183C494.967 383.432 496.365 381.958 498.062 380.9L526.908 364.256C528.493 363.345 529.928 363.258 530.967 363.856L532.776 364.902C531.738 364.301 530.303 364.389 528.718 365.304L499.871 381.944C498.2 383.032 496.809 384.499 495.812 386.225C494.815 387.952 494.239 389.889 494.131 391.879V425.164C494.131 426.993 494.775 428.277 495.813 428.876L494.003 427.832C492.964 427.232 492.32 425.947 492.32 424.12V390.835C492.39 388.838 492.969 386.893 494.002 385.183Z" fill="#DFF4FD"/>
<path d="M489.153 382.383C490.117 380.633 491.514 379.159 493.211 378.103L522.057 361.461C523.642 360.547 525.077 360.458 526.117 361.059L527.928 362.103C526.887 361.504 525.453 361.591 523.869 362.505L495.023 379.148C493.352 380.236 491.961 381.703 490.963 383.429C489.966 385.154 489.389 387.091 489.281 389.081V422.365C489.281 424.196 489.925 425.48 490.964 426.08L489.153 425.035C488.111 424.435 487.471 423.151 487.471 421.321V388.037C487.539 386.04 488.118 384.094 489.153 382.384V382.383Z" fill="#DFF4FD"/>
<path d="M484.302 379.586C485.267 377.836 486.665 376.362 488.361 375.304L517.206 358.661C518.792 357.746 520.227 357.659 521.267 358.26L523.077 359.304C522.037 358.708 520.602 358.793 519.017 359.706L490.172 376.347C488.501 377.436 487.111 378.903 486.113 380.629C485.116 382.356 484.54 384.292 484.431 386.283V419.567C484.431 421.396 485.072 422.681 486.113 423.281L484.302 422.237C483.262 421.638 482.62 420.351 482.62 418.523V385.239C482.689 383.242 483.268 381.296 484.302 379.586Z" fill="#DFF4FD"/>
<path d="M479.45 376.787C480.417 375.038 481.815 373.564 483.511 372.504L512.357 355.863C513.942 354.948 515.376 354.862 516.416 355.462L518.228 356.506C517.186 355.906 515.753 355.995 514.167 356.91L485.322 373.55C483.65 374.638 482.259 376.105 481.262 377.831C480.264 379.557 479.689 381.494 479.581 383.485V416.769C479.581 418.6 480.224 419.883 481.261 420.483L479.45 419.437C478.412 418.839 477.769 417.554 477.769 415.724V382.442C477.839 380.445 478.417 378.498 479.45 376.787Z" fill="#DFF4FD"/>
<path d="M474.6 373.989C475.567 372.24 476.964 370.766 478.66 369.707L507.507 353.065C509.093 352.15 510.526 352.063 511.565 352.665L513.376 353.708C512.337 353.109 510.902 353.194 509.319 354.108L480.472 370.752C478.8 371.84 477.409 373.306 476.411 375.033C475.413 376.759 474.838 378.697 474.73 380.688V413.972C474.73 415.8 475.372 417.086 476.41 417.684L474.6 416.64C473.563 416.04 472.919 414.754 472.919 412.925V379.643C472.989 377.646 473.567 375.7 474.6 373.989Z" fill="#DFF4FD"/>
</g>
<mask id="mask6_7_1122" style="mask-type:luminance" maskUnits="userSpaceOnUse" x="334" y="300" width="158" height="319">
<path d="M486.944 339.598L422.679 302.524C417.125 299.318 408.034 299.318 402.479 302.524L338.215 339.598C335.438 341.2 334.049 343.313 334.049 345.426V573.019C334.049 575.13 335.438 577.243 338.215 578.846L402.479 615.92C408.034 619.126 417.125 619.126 422.68 615.92L486.944 578.846C489.721 577.243 491.11 575.13 491.109 573.019V345.426C491.109 343.313 489.721 341.2 486.944 339.598Z" fill="url(#paint17_linear_7_1122)"/>
</mask>
<g mask="url(#mask6_7_1122)">
<path d="M334.049 345.426V573.019C334.049 575.13 335.438 577.243 338.215 578.846L402.479 615.92C408.034 619.126 417.125 619.126 422.68 615.92L486.944 578.846C489.721 577.243 491.11 575.13 491.109 573.019V345.426H334.049Z" fill="url(#paint18_linear_7_1122)"/>
<path d="M338.215 351.253C335.438 349.651 334.049 347.538 334.049 345.426C334.049 343.313 335.438 341.2 338.215 339.598L402.479 302.524C408.034 299.318 417.125 299.318 422.679 302.524L486.944 339.598C489.721 341.2 491.109 343.313 491.11 345.426C491.11 347.538 489.721 349.651 486.944 351.253L422.681 388.327C417.126 391.532 408.035 391.532 402.479 388.327L338.215 351.253Z" fill="#F6F6FB"/>
</g>
<mask id="mask7_7_1122" style="mask-type:luminance" maskUnits="userSpaceOnUse" x="241" y="448" width="113" height="167">
<path d="M350.586 476.908L304.903 450.552C300.953 448.274 294.491 448.274 290.542 450.552L244.859 476.908C242.884 478.047 241.896 479.549 241.896 481.051V582.715C241.896 584.217 242.884 585.719 244.859 586.857L290.543 613.213C294.491 615.492 300.954 615.492 304.902 613.213L350.586 586.857C352.561 585.718 353.547 584.217 353.547 582.715V481.051C353.547 479.549 352.56 478.047 350.586 476.908Z" fill="url(#paint19_linear_7_1122)"/>
</mask>
<g mask="url(#mask7_7_1122)">
<path d="M241.896 481.051V582.715C241.896 584.217 242.884 585.719 244.859 586.857L290.543 613.213C294.491 615.492 300.954 615.492 304.902 613.213L350.586 586.858C352.561 585.718 353.547 584.217 353.547 582.715V481.051H241.896Z" fill="url(#paint20_linear_7_1122)"/>
<path d="M244.859 485.194C242.884 484.054 241.896 482.553 241.896 481.051C241.896 479.549 242.884 478.047 244.859 476.908L290.542 450.552C294.491 448.274 300.953 448.274 304.903 450.552L350.586 476.908C352.56 478.047 353.547 479.549 353.547 481.051C353.547 482.553 352.561 484.054 350.586 485.194L304.903 511.549C300.953 513.828 294.491 513.828 290.543 511.549L244.859 485.194Z" fill="#F6F6FB"/>
</g>
<path d="M185.375 312.258L146.169 289.64C144.331 288.579 142.842 285.734 142.842 283.286V281.799C142.842 279.35 144.331 278.225 146.17 279.285L185.375 301.904C187.212 302.964 188.702 305.808 188.702 308.257V309.744C188.702 312.192 187.213 313.318 185.375 312.258Z" fill="#68C1E8"/>
<path d="M144.388 283.539C144.388 281.517 145.808 280.697 147.561 281.708C148.485 282.31 149.253 283.121 149.804 284.075C150.355 285.029 150.674 286.099 150.733 287.199C150.733 289.221 149.313 290.041 147.562 289.03C146.638 288.428 145.869 287.618 145.318 286.664C144.766 285.709 144.448 284.639 144.388 283.539Z" fill="white"/>
<path d="M148.111 285.687C148.422 285.629 148.63 285.323 148.63 284.831C148.619 284.442 148.517 284.061 148.331 283.719C148.146 283.376 147.882 283.082 147.562 282.86C146.97 282.52 146.492 282.849 146.492 283.597C146.512 284.124 146.693 284.632 147.011 285.052C146.837 284.999 146.653 284.988 146.474 285.021C146.295 285.053 146.126 285.127 145.981 285.238C145.837 285.348 145.721 285.491 145.642 285.655C145.564 285.819 145.526 286 145.531 286.181L147.562 287.352L149.59 288.523C149.591 287.79 149.015 286.56 148.111 285.687Z" fill="#68C1E8"/>
<path d="M154.115 288.923C154.115 288.512 154.403 288.347 154.759 288.551C154.947 288.673 155.103 288.838 155.215 289.032C155.327 289.226 155.391 289.443 155.403 289.667C155.403 290.077 155.115 290.244 154.759 290.038C154.571 289.916 154.416 289.751 154.304 289.558C154.192 289.364 154.127 289.147 154.115 288.923ZM157.894 291.104C157.894 290.693 158.183 290.527 158.539 290.732C158.726 290.854 158.882 291.019 158.994 291.213C159.105 291.406 159.17 291.623 159.182 291.846C159.182 292.257 158.894 292.423 158.539 292.219C158.351 292.097 158.195 291.932 158.083 291.738C157.971 291.545 157.906 291.327 157.894 291.104ZM161.674 293.284C161.674 292.874 161.962 292.707 162.318 292.913C162.505 293.035 162.661 293.199 162.773 293.393C162.885 293.587 162.95 293.804 162.962 294.027C162.962 294.437 162.673 294.604 162.318 294.398C162.13 294.276 161.975 294.112 161.863 293.918C161.751 293.724 161.686 293.507 161.674 293.284ZM165.453 295.464C165.453 295.054 165.741 294.887 166.098 295.093C166.285 295.215 166.441 295.379 166.553 295.573C166.664 295.766 166.729 295.984 166.741 296.207C166.741 296.617 166.453 296.785 166.098 296.579C165.91 296.457 165.754 296.293 165.642 296.099C165.53 295.905 165.465 295.688 165.453 295.464ZM169.232 297.644C169.232 297.235 169.52 297.067 169.876 297.273C170.063 297.395 170.22 297.56 170.332 297.753C170.444 297.947 170.508 298.165 170.52 298.388C170.52 298.799 170.232 298.964 169.876 298.759C169.688 298.637 169.532 298.472 169.421 298.278C169.309 298.085 169.244 297.867 169.232 297.644ZM173.011 299.825C173.011 299.414 173.299 299.248 173.655 299.453C173.843 299.575 173.999 299.74 174.111 299.934C174.222 300.127 174.287 300.345 174.299 300.568C174.299 300.978 174.011 301.145 173.655 300.939C173.468 300.817 173.312 300.653 173.2 300.459C173.088 300.265 173.023 300.048 173.011 299.825ZM176.79 302.005C176.79 301.595 177.079 301.428 177.434 301.634C177.622 301.756 177.777 301.921 177.889 302.114C178.001 302.308 178.066 302.525 178.078 302.748C178.078 303.159 177.789 303.325 177.434 303.12C177.247 302.998 177.091 302.833 176.979 302.639C176.867 302.446 176.802 302.228 176.79 302.005V302.005ZM180.57 304.186C180.57 303.775 180.857 303.609 181.213 303.813C181.401 303.936 181.557 304.1 181.669 304.294C181.781 304.488 181.845 304.705 181.858 304.928C181.858 305.339 181.568 305.505 181.213 305.3C181.026 305.178 180.87 305.013 180.758 304.82C180.646 304.626 180.582 304.409 180.57 304.186Z" fill="#2560A4"/>
<path d="M185.375 328.062L146.169 305.443C144.331 304.383 142.842 301.538 142.842 299.089V297.603C142.842 295.154 144.331 294.028 146.17 295.089L185.375 317.707C187.212 318.768 188.702 321.612 188.702 324.061V325.547C188.702 327.996 187.213 329.122 185.375 328.062Z" fill="#9EE4A6"/>
<path d="M154.115 304.965C154.115 304.555 154.403 304.388 154.759 304.594C154.946 304.716 155.103 304.88 155.215 305.074C155.327 305.268 155.391 305.485 155.403 305.709C155.403 306.119 155.115 306.285 154.759 306.08C154.571 305.958 154.415 305.793 154.304 305.6C154.192 305.406 154.127 305.188 154.115 304.965ZM157.894 307.146C157.894 306.734 158.183 306.569 158.539 306.773C158.726 306.896 158.882 307.06 158.994 307.254C159.106 307.448 159.17 307.665 159.182 307.889C159.182 308.299 158.894 308.466 158.539 308.26C158.351 308.138 158.195 307.973 158.083 307.78C157.971 307.586 157.906 307.369 157.894 307.146ZM161.674 309.325C161.674 308.915 161.962 308.748 162.318 308.954C162.505 309.076 162.661 309.241 162.773 309.435C162.885 309.628 162.95 309.846 162.962 310.069C162.962 310.48 162.673 310.645 162.318 310.441C162.13 310.318 161.975 310.154 161.863 309.96C161.751 309.766 161.686 309.549 161.674 309.325ZM165.453 311.506C165.453 311.096 165.741 310.929 166.098 311.135C166.285 311.257 166.441 311.422 166.553 311.615C166.665 311.809 166.729 312.026 166.741 312.249C166.741 312.659 166.453 312.826 166.098 312.621C165.91 312.499 165.754 312.334 165.642 312.14C165.529 311.947 165.465 311.729 165.453 311.506V311.506ZM169.232 313.687C169.232 313.276 169.52 313.109 169.876 313.316C170.063 313.438 170.22 313.602 170.332 313.796C170.444 313.989 170.508 314.207 170.52 314.43C170.52 314.84 170.232 315.007 169.876 314.801C169.689 314.679 169.533 314.514 169.421 314.321C169.309 314.127 169.245 313.91 169.232 313.687ZM173.011 315.866C173.011 315.457 173.299 315.289 173.655 315.495C173.843 315.617 173.999 315.782 174.111 315.975C174.222 316.169 174.287 316.386 174.299 316.61C174.299 317.02 174.011 317.186 173.655 316.982C173.468 316.86 173.312 316.695 173.2 316.501C173.088 316.308 173.023 316.09 173.011 315.867V315.866ZM176.79 318.047C176.79 317.637 177.079 317.47 177.434 317.676C177.622 317.798 177.778 317.963 177.89 318.156C178.001 318.35 178.066 318.567 178.078 318.791C178.078 319.2 177.789 319.367 177.434 319.162C177.247 319.039 177.091 318.875 176.979 318.681C176.867 318.488 176.802 318.27 176.79 318.047Z" fill="#59BB63"/>
<path style="mix-blend-mode:multiply" d="M65.5165 507.104C62.6748 505.464 58.6824 504.89 55.0242 505.365C51.366 504.89 47.3745 505.464 44.5319 507.104L27.9031 516.697C24.588 518.612 23.7685 521.426 25.4448 523.787C24.6122 524.096 23.8048 524.469 23.0301 524.902L6.40083 534.494C4.07978 535.834 3.99536 537.039 5.7085 537.883L5.69103 537.885L10.5248 540.62C10.5621 540.644 10.6024 540.664 10.6412 540.686L10.7237 540.732L10.73 540.729C12.234 541.517 15.2581 542.002 19.5213 542.002C28.3335 542.002 39.0868 539.936 43.4921 537.394L60.1209 527.802C62.4337 526.466 62.5264 525.266 60.8312 524.423L60.8491 524.42L56.5054 522.059L56.5006 522.067C56.3807 521.949 56.249 521.844 56.1076 521.753L65.5184 516.325C69.9238 513.783 69.9238 509.648 65.5165 507.104ZM31.2823 534.494C29.0423 535.788 23.8573 536.857 19.2355 537.034L35.2316 527.806C36.289 527.841 37.3475 527.791 38.3969 527.657C39.9405 527.858 41.5027 527.875 43.0502 527.705L31.2823 534.494ZM56.9721 514.283L46.5405 520.3C45.624 520.31 44.6905 520.341 43.7469 520.392C43.4655 520.394 43.137 520.407 42.7372 520.444C40.4836 520.648 37.2849 520.989 34.6169 521.401C34.5733 520.441 35.1817 519.473 36.4484 518.741L53.0767 509.148C53.6879 508.807 54.3433 508.553 55.0242 508.392C55.7053 508.553 56.3608 508.807 56.9721 509.148C59.4247 510.564 59.4247 512.865 56.9721 514.283V514.283Z" fill="url(#paint21_linear_7_1122)"/>
<path d="M26.4603 517.519C22.0549 514.976 22.0549 510.84 26.4603 508.299L43.0895 498.705C47.4949 496.163 54.6637 496.163 59.0691 498.705C63.4744 501.248 63.4744 505.384 59.0691 507.925L42.4418 517.519C38.0355 520.06 30.8671 520.06 26.4603 517.519ZM30.0015 510.341C27.548 511.757 27.548 514.059 30.0015 515.475C32.4565 516.891 36.4485 516.891 38.902 515.475L55.5288 505.882C57.9838 504.468 57.9838 502.165 55.5288 500.748C53.0753 499.333 49.0833 499.333 46.6298 500.748L30.0015 510.341Z" fill="#F6F6FB"/>
<path d="M62.3702 503.266H62.3721V503.294C62.3721 503.283 62.3702 503.276 62.3702 503.266Z" fill="#E19100"/>
<path d="M30.0015 510.341L46.6298 500.748C49.0833 499.333 53.0753 499.333 55.5283 500.748C57.6994 502 57.9459 503.947 56.2779 505.359C56.0439 505.162 55.7931 504.987 55.5283 504.834C53.0753 503.418 49.0833 503.418 46.6302 504.834L30.0015 514.427C29.7366 514.578 29.486 514.754 29.2529 514.951C27.5853 513.538 27.8313 511.593 30.0015 510.341Z" fill="url(#paint22_linear_7_1122)"/>
<path d="M26.4603 517.519C30.8671 520.06 38.0369 520.06 42.4418 517.519L59.0691 507.924C61.2635 506.66 62.3624 504.998 62.3721 503.337V507.266H62.3624C62.4236 508.983 61.331 510.706 59.0691 512.011L42.4418 521.603C38.0369 524.146 30.8671 524.146 26.4603 521.603C24.2101 520.305 23.1165 518.591 23.166 516.883H23.1577V512.908C23.1577 514.577 24.2581 516.246 26.4603 517.519Z" fill="url(#paint23_linear_7_1122)"/>
<path d="M7.98979 516.912L24.619 507.317C26.8629 506.022 28.8905 505.931 30.3436 506.818L30.3484 506.815L33.5704 508.682L33.5602 508.691C32.1363 507.998 30.2422 508.158 28.1579 509.361L11.5306 518.954C7.12425 521.496 3.53981 527.7 3.53981 532.783C3.53981 535.262 4.3971 537.018 5.78033 537.876L5.77936 537.885L2.4079 535.94L2.40645 535.935C0.923765 535.117 0 533.319 0 530.741C0 525.657 3.58444 519.453 7.98979 516.912Z" fill="url(#paint24_linear_7_1122)"/>
<path d="M29.0176 514.73C29.3116 515.02 29.6424 515.271 30.0015 515.475C30.8085 515.916 31.6852 516.214 32.5933 516.358C32.6001 516.243 32.6088 516.128 32.6088 516.014C32.6088 513.509 31.0456 512.324 28.9885 513.062C29.0421 513.362 29.0684 513.667 29.0671 513.972C29.0654 514.226 29.0489 514.479 29.0176 514.73ZM7.16016 531.648C7.55023 533.8 9.35847 534.561 11.5306 533.309L22.8224 526.794L28.1579 523.715C28.5948 523.459 29.0027 523.156 29.3747 522.813C28.3582 522.528 27.3797 522.122 26.4603 521.603C26.1494 521.423 25.8495 521.224 25.5622 521.009C25.2669 521.256 24.9514 521.478 24.619 521.672L7.9898 531.265C7.72569 531.418 7.44796 531.547 7.16016 531.648V531.648Z" fill="#44A3CC"/>
<path d="M11.5306 518.954L28.1579 509.361C32.5651 506.818 36.1486 508.888 36.1486 513.972C36.1413 514.799 36.0528 515.622 35.8842 516.431C34.7899 516.575 33.6801 516.55 32.5933 516.359C32.6001 516.243 32.6088 516.128 32.6088 516.014C32.6088 513.183 30.6114 512.031 28.1579 513.447L11.5306 523.04C9.07705 524.454 7.08154 527.911 7.08154 530.741C7.08154 533.571 9.07705 534.725 11.5306 533.309L28.1579 523.715C28.5948 523.459 29.0027 523.156 29.3747 522.813C30.4848 523.129 31.6233 523.336 32.7738 523.43C31.5587 525.194 29.9861 526.684 28.1579 527.802L11.5306 537.394C7.12424 539.936 3.53979 537.868 3.53979 532.783C3.53979 527.701 7.12424 521.497 11.5306 518.954Z" fill="#0777A9"/>
<path style="mix-blend-mode:multiply" d="M440.666 131.42L431.185 125.949H426.237L428.709 124.521L419.228 119.05H414.28L416.753 117.622L407.271 112.151H340.495L349.977 117.622L340.495 123.094H359.462L361.934 124.521L352.452 129.993H371.418L373.891 131.42L371.421 132.845H352.454L361.941 138.316L359.473 139.739H340.5L349.986 145.21L340.5 150.682H392.475L401.956 145.21L399.491 143.786H412.633V143.787L412.635 143.786L422.118 138.316L419.649 136.891H431.185L440.666 131.42Z" fill="url(#paint25_linear_7_1122)"/>
<path d="M328.548 137.872H338.03V143.785H328.548V137.872ZM316.592 130.976H326.075V136.89H316.592V130.976Z" fill="#C4CAE9"/>
<path d="M340.5 123.098L331.016 117.627V79.1028L340.5 84.5743V123.098Z" fill="#C2E6F6"/>
<path d="M340.5 123.098L349.981 117.627V79.1028L340.5 84.5743V123.098Z" fill="#99D5EE"/>
<path d="M340.5 84.5745L331.016 79.1029L340.5 73.6313L349.981 79.1029L340.5 84.5745Z" fill="#F5F7FA"/>
<path d="M352.452 129.993L342.967 124.523V85.9988L352.452 91.4694V129.993Z" fill="#C2E6F6"/>
<path d="M352.452 129.993L361.934 124.523V85.9988L352.452 91.4694V129.993Z" fill="#99D5EE"/>
<path d="M352.452 91.4695L342.967 85.9989L352.452 80.5273L361.934 85.9989L352.452 91.4695Z" fill="#F5F7FA"/>
<path d="M364.404 136.889L354.92 131.418V92.8938L364.404 98.3649V136.889Z" fill="#C2E6F6"/>
<path d="M364.404 136.889L373.889 131.418V92.8938L364.404 98.3649V136.889Z" fill="#99D5EE"/>
<path d="M364.404 98.3649L354.92 92.8938L364.404 87.4227L373.889 92.8938L364.404 98.3649Z" fill="#F5F7FA"/>
<path d="M328.545 129.995L319.063 124.523V85.9993L328.545 91.4703V129.995Z" fill="#C2E6F6"/>
<path d="M328.545 129.995L338.03 124.523V85.9993L328.545 91.4703V129.995Z" fill="#99D5EE"/>
<path d="M328.545 91.4704L319.063 85.9994L328.545 80.5273L338.03 85.9994L328.545 91.4704Z" fill="#F5F7FA"/>
<path d="M340.5 136.89L331.016 131.418V101.527L340.5 106.997V136.89Z" fill="#59BB63"/>
<path d="M340.5 136.89L349.981 131.418V101.527L340.5 106.997V136.89Z" fill="#4AA453"/>
<path d="M340.5 106.997L331.016 101.527L340.5 96.0557L349.981 101.527L340.5 106.997Z" fill="#9EE4A6"/>
<g style="mix-blend-mode:multiply">
<path d="M333.542 100.067H347.454L340.5 96.0557L333.542 100.067Z" fill="#F1F1F6"/>
</g>
<path d="M352.452 143.784L342.967 138.313V103.595L352.452 109.066V143.784Z" fill="#C2E6F6"/>
<path d="M352.452 143.784L361.934 138.313V103.595L352.452 109.066V143.784Z" fill="#99D5EE"/>
<path d="M352.452 109.066L342.967 103.595L352.452 98.1234L361.934 103.595L352.452 109.066Z" fill="#F5F7FA"/>
<path d="M316.592 136.89L307.11 131.42V101.434L316.592 106.906V136.89Z" fill="#C2E6F6"/>
<path d="M316.592 136.89L326.078 131.42V101.434L316.592 106.906V136.89Z" fill="#99D5EE"/>
<path d="M316.592 106.906L307.11 101.434L316.592 95.9622L326.078 101.434L316.592 106.906Z" fill="#F5F7FA"/>
<path d="M328.548 143.785L319.063 138.315V117.148L328.548 122.619V143.785Z" fill="#C2E6F6"/>
<path d="M328.548 143.785L338.032 138.315V117.148L328.548 122.619V143.785Z" fill="#99D5EE"/>
<path d="M328.548 122.619L319.063 117.148L328.548 111.677L338.032 117.148L328.548 122.619Z" fill="#F5F7FA"/>
<g style="mix-blend-mode:multiply">
<path d="M321.592 115.689H335.502L328.548 111.677L321.592 115.689Z" fill="#F1F1F6"/>
</g>
<path d="M340.5 150.682L331.016 145.209V115.226L340.5 120.697V150.682Z" fill="#C2E6F6"/>
<path d="M340.5 150.682L349.984 145.209V115.226L340.5 120.697V150.682Z" fill="#99D5EE"/>
<path d="M340.5 120.697L331.016 115.226L340.5 109.755L349.984 115.226L340.5 120.697Z" fill="#F5F7FA"/>
<path d="M685.395 63.1981C685.31 63.1982 685.226 63.1759 685.153 63.1336L654.471 45.4342C654.397 45.3917 654.336 45.3305 654.293 45.2568C654.25 45.183 654.228 45.0993 654.228 45.0141C654.228 44.929 654.25 44.8453 654.293 44.7715C654.336 44.6978 654.397 44.6366 654.471 44.5941L685.153 26.8932C685.226 26.8509 685.31 26.8286 685.395 26.8286C685.48 26.8286 685.564 26.8509 685.638 26.8932L716.318 44.5941C716.392 44.6366 716.453 44.6978 716.496 44.7715C716.539 44.8453 716.561 44.929 716.561 45.0141C716.561 45.0993 716.539 45.183 716.496 45.2568C716.453 45.3305 716.392 45.3917 716.318 45.4342L685.638 63.1336C685.564 63.1759 685.48 63.1981 685.395 63.1981ZM655.684 45.0139L685.395 62.1538L715.105 45.0139L685.395 27.8725L655.684 45.0139Z" fill="#E4E6E7"/>
<path d="M685.395 98.5988C685.31 98.5987 685.226 98.5763 685.153 98.5339L654.471 80.8345C654.397 80.7918 654.336 80.7306 654.293 80.6569C654.251 80.5833 654.228 80.4997 654.228 80.4146V45.0139C654.228 44.8853 654.279 44.762 654.37 44.671C654.461 44.5801 654.585 44.5291 654.713 44.5291C654.842 44.5291 654.966 44.5801 655.057 44.671C655.148 44.762 655.199 44.8853 655.199 45.0139V80.1349L685.395 97.5541L715.59 80.1349V45.0139C715.59 44.8853 715.641 44.762 715.732 44.671C715.823 44.5801 715.947 44.5291 716.075 44.5291C716.204 44.5291 716.328 44.5801 716.419 44.671C716.509 44.762 716.561 44.8853 716.561 45.0139V80.4146C716.56 80.4997 716.538 80.5833 716.496 80.6569C716.453 80.7306 716.392 80.7918 716.318 80.8345L685.638 98.5339C685.564 98.5763 685.48 98.5987 685.395 98.5988Z" fill="#E4E6E7"/>
<path d="M685.395 98.599C685.266 98.599 685.143 98.5479 685.052 98.457C684.961 98.3661 684.91 98.2427 684.91 98.1142V62.7134C684.91 62.5848 684.961 62.4615 685.052 62.3706C685.143 62.2797 685.266 62.2286 685.395 62.2286C685.524 62.2286 685.647 62.2797 685.738 62.3706C685.829 62.4615 685.88 62.5848 685.88 62.7134V98.1142C685.88 98.2427 685.829 98.3661 685.738 98.457C685.647 98.5479 685.524 98.599 685.395 98.599ZM683.058 27.3131C683.058 26.8515 683.195 26.4003 683.452 26.0165C683.709 25.6327 684.073 25.3335 684.5 25.1569C684.927 24.9803 685.397 24.934 685.85 25.0241C686.303 25.1141 686.719 25.3364 687.046 25.6628C687.373 25.9892 687.595 26.405 687.685 26.8578C687.776 27.3105 687.729 27.7798 687.553 28.2064C687.376 28.6329 687.077 28.9975 686.693 29.2541C686.309 29.5107 685.857 29.6478 685.395 29.648C685.088 29.648 684.784 29.5877 684.501 29.4704C684.217 29.3531 683.96 29.1811 683.743 28.9643C683.526 28.7475 683.353 28.49 683.236 28.2067C683.119 27.9234 683.058 27.6198 683.058 27.3131ZM652.378 45.0145C652.378 44.5527 652.515 44.1013 652.771 43.7174C653.028 43.3334 653.393 43.0342 653.82 42.8574C654.247 42.6807 654.716 42.6344 655.17 42.7245C655.623 42.8145 656.039 43.0368 656.366 43.3633C656.693 43.6898 656.915 44.1058 657.005 44.5587C657.095 45.0116 657.049 45.481 656.872 45.9075C656.695 46.3341 656.396 46.6987 656.011 46.9551C655.627 47.2116 655.175 47.3484 654.713 47.3483C654.094 47.3481 653.5 47.1021 653.062 46.6645C652.624 46.2269 652.378 45.6334 652.378 45.0145ZM652.378 80.4147C652.378 79.953 652.515 79.5017 652.772 79.1178C653.028 78.7339 653.393 78.4347 653.82 78.258C654.247 78.0814 654.717 78.0352 655.17 78.1253C655.623 78.2154 656.039 78.4378 656.366 78.7643C656.693 79.0908 656.915 79.5068 657.005 79.9596C657.095 80.4125 657.049 80.8819 656.872 81.3084C656.695 81.7349 656.396 82.0995 656.011 82.3559C655.627 82.6124 655.175 82.7492 654.713 82.7491C654.094 82.7488 653.5 82.5028 653.062 82.0651C652.624 81.6273 652.378 81.0337 652.378 80.4147Z" fill="#E4E6E7"/>
<path d="M683.058 98.1142C683.058 97.6524 683.195 97.201 683.452 96.8171C683.709 96.4331 684.073 96.1339 684.5 95.9571C684.927 95.7804 685.397 95.7341 685.85 95.8242C686.304 95.9142 686.72 96.1366 687.047 96.4631C687.374 96.7895 687.596 97.2055 687.686 97.6584C687.777 98.1113 687.73 98.5807 687.554 99.0074C687.377 99.434 687.077 99.7987 686.693 100.055C686.309 100.312 685.857 100.449 685.395 100.449C685.088 100.449 684.784 100.389 684.501 100.271C684.217 100.154 683.96 99.9822 683.743 99.7654C683.526 99.5485 683.353 99.2911 683.236 99.0078C683.119 98.7245 683.058 98.4209 683.058 98.1142ZM683.058 62.7134C683.058 62.2517 683.195 61.8004 683.452 61.4165C683.709 61.0326 684.074 60.7334 684.501 60.5567C684.928 60.3801 685.397 60.3339 685.851 60.424C686.304 60.5141 686.72 60.7364 687.047 61.0629C687.374 61.3895 687.596 61.8054 687.686 62.2583C687.777 62.7112 687.73 63.1806 687.554 63.6072C687.377 64.0338 687.077 64.3985 686.693 64.6551C686.309 64.9117 685.857 65.0487 685.395 65.0488C685.088 65.0488 684.784 64.9885 684.501 64.8711C684.217 64.7538 683.96 64.5818 683.743 64.3649C683.525 64.148 683.353 63.8906 683.236 63.6072C683.118 63.3238 683.058 63.0201 683.058 62.7134ZM713.74 45.0145C713.74 44.5527 713.877 44.1011 714.133 43.717C714.39 43.3329 714.755 43.0335 715.182 42.8566C715.609 42.6798 716.079 42.6335 716.532 42.7235C716.985 42.8136 717.402 43.036 717.729 43.3626C718.055 43.6892 718.278 44.1053 718.368 44.5583C718.458 45.0113 718.412 45.4808 718.235 45.9075C718.058 46.3342 717.758 46.6988 717.374 46.9553C716.99 47.2118 716.538 47.3486 716.075 47.3484C715.456 47.3483 714.862 47.1024 714.424 46.6647C713.986 46.2271 713.74 45.6335 713.739 45.0145H713.74ZM713.74 80.4148C713.74 79.9529 713.877 79.5014 714.133 79.1174C714.39 78.7333 714.755 78.434 715.182 78.2572C715.609 78.0805 716.079 78.0342 716.532 78.1243C716.986 78.2145 717.402 78.4369 717.729 78.7635C718.056 79.0901 718.278 79.5062 718.368 79.9592C718.458 80.4122 718.412 80.8817 718.235 81.3084C718.058 81.735 717.758 82.0996 717.374 82.3561C716.989 82.6126 716.538 82.7493 716.075 82.7491C715.456 82.749 714.862 82.503 714.424 82.0653C713.986 81.6275 713.739 81.0339 713.739 80.4148H713.74Z" fill="#E4E6E7"/>
<path d="M173.011 207.654C172.926 207.654 172.842 207.632 172.768 207.589L146.945 192.691C146.871 192.649 146.81 192.588 146.767 192.514C146.725 192.44 146.702 192.356 146.702 192.271C146.702 192.186 146.725 192.102 146.767 192.029C146.81 191.955 146.871 191.894 146.945 191.851L172.768 176.954C172.842 176.912 172.926 176.889 173.011 176.889C173.096 176.889 173.18 176.912 173.254 176.954L199.077 191.851C199.151 191.894 199.213 191.955 199.255 192.029C199.298 192.102 199.32 192.186 199.32 192.271C199.32 192.356 199.298 192.44 199.255 192.514C199.213 192.588 199.151 192.649 199.077 192.691L173.254 207.589C173.18 207.632 173.096 207.654 173.011 207.654ZM148.158 192.271L173.011 206.61L197.864 192.271L173.011 177.933L148.158 192.271Z" fill="#6CCDF7"/>
<path d="M173.011 237.452C172.926 237.451 172.842 237.429 172.768 237.386L146.945 222.488C146.872 222.445 146.81 222.384 146.768 222.31C146.725 222.237 146.703 222.153 146.703 222.068V192.271C146.703 192.143 146.754 192.019 146.845 191.929C146.936 191.838 147.059 191.786 147.188 191.786C147.316 191.786 147.44 191.838 147.531 191.929C147.622 192.019 147.673 192.143 147.673 192.271V221.788L173.011 236.407L198.35 221.788V192.271C198.35 192.143 198.401 192.019 198.492 191.929C198.583 191.838 198.706 191.786 198.835 191.786C198.963 191.786 199.087 191.838 199.178 191.929C199.269 192.019 199.32 192.143 199.32 192.271V222.068C199.32 222.153 199.297 222.237 199.255 222.31C199.212 222.384 199.151 222.445 199.077 222.488L173.254 237.386C173.18 237.429 173.096 237.451 173.011 237.451V237.452Z" fill="#6CCDF7"/>
<path d="M173.011 237.452C172.882 237.452 172.759 237.401 172.668 237.31C172.577 237.219 172.526 237.095 172.526 236.967V207.17C172.526 207.041 172.577 206.918 172.668 206.827C172.759 206.736 172.882 206.685 173.011 206.685C173.14 206.685 173.263 206.736 173.354 206.827C173.445 206.918 173.496 207.041 173.496 207.17V236.966C173.496 237.095 173.445 237.218 173.354 237.309C173.263 237.4 173.14 237.451 173.011 237.451V237.452Z" fill="#6CCDF7"/>
<path d="M175.346 177.379C175.349 176.09 174.305 175.043 173.015 175.04C171.725 175.038 170.677 176.081 170.675 177.37C170.672 178.659 171.716 179.706 173.006 179.708C174.296 179.711 175.344 178.668 175.346 177.379Z" fill="#6CCDF7"/>
<path d="M144.851 192.271C144.851 191.81 144.988 191.358 145.245 190.975C145.502 190.591 145.867 190.292 146.294 190.115C146.72 189.938 147.19 189.892 147.643 189.982C148.096 190.072 148.512 190.295 148.839 190.621C149.166 190.948 149.388 191.364 149.478 191.816C149.569 192.269 149.522 192.738 149.346 193.165C149.169 193.591 148.87 193.956 148.485 194.213C148.101 194.469 147.65 194.606 147.188 194.606C146.568 194.606 145.974 194.36 145.536 193.922C145.097 193.484 144.851 192.891 144.851 192.271ZM144.851 222.068C144.851 221.607 144.988 221.155 145.245 220.771C145.502 220.388 145.867 220.089 146.294 219.912C146.72 219.735 147.19 219.689 147.643 219.779C148.096 219.869 148.512 220.092 148.839 220.418C149.166 220.744 149.388 221.16 149.478 221.613C149.569 222.066 149.522 222.535 149.346 222.962C149.169 223.388 148.87 223.753 148.485 224.009C148.101 224.266 147.65 224.403 147.188 224.403C146.568 224.403 145.974 224.157 145.536 223.719C145.097 223.281 144.851 222.687 144.851 222.068ZM170.675 236.967C170.675 236.505 170.812 236.054 171.069 235.67C171.325 235.286 171.69 234.986 172.117 234.81C172.544 234.633 173.014 234.587 173.468 234.677C173.921 234.767 174.337 234.989 174.664 235.316C174.991 235.643 175.213 236.059 175.303 236.512C175.393 236.965 175.347 237.434 175.17 237.861C174.993 238.287 174.694 238.652 174.309 238.908C173.925 239.165 173.473 239.302 173.011 239.302C172.704 239.302 172.4 239.241 172.117 239.124C171.833 239.006 171.576 238.834 171.359 238.618C171.142 238.401 170.97 238.143 170.853 237.86C170.735 237.577 170.675 237.273 170.675 236.966V236.967ZM170.675 207.17C170.675 206.708 170.812 206.256 171.069 205.872C171.326 205.489 171.691 205.189 172.118 205.013C172.545 204.836 173.015 204.79 173.468 204.88C173.921 204.97 174.337 205.193 174.664 205.519C174.991 205.846 175.213 206.262 175.303 206.715C175.393 207.168 175.347 207.637 175.17 208.064C174.993 208.491 174.694 208.855 174.309 209.112C173.925 209.368 173.473 209.505 173.011 209.505C172.704 209.505 172.4 209.444 172.117 209.327C171.833 209.21 171.576 209.038 171.359 208.821C171.142 208.604 170.97 208.346 170.852 208.063C170.735 207.78 170.675 207.476 170.675 207.17ZM196.498 192.271C196.498 191.81 196.635 191.358 196.892 190.974C197.149 190.59 197.514 190.291 197.941 190.114C198.367 189.938 198.837 189.891 199.291 189.981C199.744 190.071 200.16 190.294 200.487 190.62C200.814 190.947 201.036 191.363 201.126 191.816C201.217 192.269 201.17 192.738 200.993 193.165C200.817 193.592 200.517 193.956 200.133 194.213C199.749 194.469 199.297 194.606 198.835 194.606C198.215 194.606 197.621 194.36 197.182 193.922C196.744 193.484 196.498 192.891 196.498 192.271Z" fill="#6CCDF7"/>
<path d="M198.835 224.403C200.125 224.403 201.171 223.358 201.171 222.068C201.171 220.779 200.125 219.733 198.835 219.733C197.544 219.733 196.498 220.779 196.498 222.068C196.498 223.358 197.544 224.403 198.835 224.403Z" fill="#6CCDF7"/>
<path d="M399.291 173.852L415.929 164.251V144.757L399.291 154.355V173.852Z" fill="#097AAB"/>
<path d="M399.291 173.852L382.65 164.251V144.757L399.291 154.355V173.852Z" fill="#0C8DC6"/>
<path d="M399.291 154.355L382.65 144.757L399.291 135.161L415.929 144.757L399.291 154.355Z" fill="#11ACF0"/>
<path d="M360.7 311.968L373.344 304.672V289.858L360.7 297.152V311.968Z" fill="#5EC9F8"/>
<path d="M360.7 311.968L348.053 304.672V289.858L360.7 297.152V311.968Z" fill="#92D9F7"/>
<path d="M360.7 297.152L348.053 289.858L360.7 282.565L373.344 289.858L360.7 297.152Z" fill="#F5F7FA"/>
<path d="M552.298 23.4032L564.942 16.1073V1.29248L552.298 8.58692V23.4032Z" fill="#5EC9F8"/>
<path d="M552.298 23.4032L539.651 16.1073V1.29248L552.298 8.58692V23.4032Z" fill="#92D9F7"/>
<path d="M552.298 8.58694L539.651 1.2925L552.298 -6L564.942 1.2925L552.298 8.58694Z" fill="#F5F7FA"/>
<path d="M485.453 474.593L502.091 464.992V445.499L485.453 455.098V474.593Z" fill="#097AAB"/>
<path d="M485.453 474.593L468.812 464.992V445.499L485.453 455.098V474.593Z" fill="#0C8DC6"/>
<path d="M485.453 455.098L468.812 445.499L485.453 435.903L502.091 445.499L485.453 455.098Z" fill="#11ACF0"/>
<path d="M628.41 355.113L639.737 348.578V335.308L628.41 341.841V355.113Z" fill="#5EC9F8"/>
<path d="M628.41 355.113L617.083 348.578V335.308L628.41 341.841V355.113Z" fill="#92D9F7"/>
<path d="M628.41 341.841L617.083 335.308L628.41 328.775L639.737 335.308L628.41 341.841Z" fill="#F5F7FA"/>
<path d="M328.88 42.9603L339.146 37.0364V25.0088L328.88 30.9312V42.9603Z" fill="#5EC9F8"/>
<path d="M328.879 42.9603L318.612 37.0364V25.0088L328.879 30.9312V42.9603Z" fill="#92D9F7"/>
<path d="M328.879 30.9313L318.612 25.0089L328.879 19.0884L339.146 25.0089L328.879 30.9313Z" fill="#F5F7FA"/>
<defs>
<linearGradient id="paint0_linear_7_1122" x1="616.934" y1="207.127" x2="577.376" y2="138.561" gradientUnits="userSpaceOnUse">
<stop offset="0.414" stop-color="#CCEAF7"/>
<stop offset="0.62" stop-color="#DCF1FB" stop-opacity="0.46"/>
</linearGradient>
<linearGradient id="paint1_linear_7_1122" x1="459.207" y1="277.991" x2="459.207" y2="36.0372" gradientUnits="userSpaceOnUse">
<stop offset="0.114"/>
<stop offset="0.223" stop-color="#2C2C2C"/>
<stop offset="0.604" stop-color="#C2C2C2"/>
<stop offset="0.771" stop-color="white"/>
</linearGradient>
<linearGradient id="paint2_linear_7_1122" x1="412.579" y1="170.464" x2="505.835" y2="170.464" gradientUnits="userSpaceOnUse">
<stop offset="0.425" stop-color="#D0EDF9"/>
<stop offset="0.563" stop-color="#B0DAEC"/>
</linearGradient>
<linearGradient id="paint3_linear_7_1122" x1="340.643" y1="517.058" x2="340.643" y2="83.181" gradientUnits="userSpaceOnUse">
<stop offset="0.114"/>
<stop offset="0.367" stop-color="#7F7F7F"/>
<stop offset="0.63" stop-color="white"/>
</linearGradient>
<linearGradient id="paint4_linear_7_1122" x1="257.029" y1="324.239" x2="424.257" y2="324.239" gradientUnits="userSpaceOnUse">
<stop offset="0.425" stop-color="#E0F3FB"/>
<stop offset="0.563" stop-color="#B8E5F7"/>
</linearGradient>
<linearGradient id="paint5_linear_7_1122" x1="273.781" y1="620" x2="273.781" y2="206.087" gradientUnits="userSpaceOnUse">
<stop offset="0.114" stop-color="white"/>
<stop offset="0.144" stop-color="#D3D3D3"/>
<stop offset="0.247" stop-color="#3D3D3D"/>
<stop offset="0.292"/>
</linearGradient>
<linearGradient id="paint6_linear_7_1122" x1="194.015" y1="436.053" x2="353.547" y2="436.053" gradientUnits="userSpaceOnUse">
<stop offset="0.425" stop-color="#DBF1FA"/>
<stop offset="0.563" stop-color="#B9E5F8"/>
</linearGradient>
<linearGradient id="paint7_linear_7_1122" x1="485.452" y1="498.184" x2="485.452" y2="151.322" gradientUnits="userSpaceOnUse">
<stop offset="0.114"/>
<stop offset="0.174" stop-color="#2C2C2C"/>
<stop offset="0.385" stop-color="#C2C2C2"/>
<stop offset="0.476" stop-color="white"/>
</linearGradient>
<linearGradient id="paint8_linear_7_1122" x1="418.607" y1="344.036" x2="552.297" y2="344.036" gradientUnits="userSpaceOnUse">
<stop offset="0.425" stop-color="#E0F3FB"/>
<stop offset="0.563" stop-color="#B6DEEF"/>
</linearGradient>
<linearGradient id="paint9_linear_7_1122" x1="689.304" y1="433.789" x2="689.304" y2="196.673" gradientUnits="userSpaceOnUse">
<stop offset="0.114"/>
<stop offset="0.223" stop-color="#2C2C2C"/>
<stop offset="0.604" stop-color="#C2C2C2"/>
<stop offset="0.771" stop-color="white"/>
</linearGradient>
<linearGradient id="paint10_linear_7_1122" x1="643.609" y1="328.413" x2="735" y2="328.413" gradientUnits="userSpaceOnUse">
<stop offset="0.425" stop-color="#E0F3FB"/>
<stop offset="0.563" stop-color="#B2DCED"/>
</linearGradient>
<linearGradient id="paint11_linear_7_1122" x1="568.767" y1="556.208" x2="568.767" y2="264.13" gradientUnits="userSpaceOnUse">
<stop offset="0.095"/>
<stop offset="0.151" stop-color="#2C2C2C"/>
<stop offset="0.348" stop-color="#C2C2C2"/>
<stop offset="0.434" stop-color="white"/>
</linearGradient>
<linearGradient id="paint12_linear_7_1122" x1="512.48" y1="426.406" x2="625.054" y2="426.406" gradientUnits="userSpaceOnUse">
<stop offset="0.425" stop-color="#E3F4FB"/>
<stop offset="0.563" stop-color="#C7EBFB"/>
</linearGradient>
<linearGradient id="paint13_linear_7_1122" x1="524.801" y1="299.832" x2="442.011" y2="274.357" gradientUnits="userSpaceOnUse">
<stop stop-color="#0C8DC6"/>
<stop offset="1" stop-color="#B9E5F8"/>
</linearGradient>
<linearGradient id="paint14_linear_7_1122" x1="483.833" y1="324.027" x2="456.466" y2="276.593" gradientUnits="userSpaceOnUse">
<stop/>
<stop offset="0.218" stop-color="#05340A"/>
<stop offset="0.602" stop-color="#59BB63"/>
<stop offset="0.871" stop-color="#52B25C"/>
<stop offset="1" stop-color="#52B25C" stop-opacity="0.57"/>
</linearGradient>
<linearGradient id="paint15_linear_7_1122" x1="432.769" y1="338.322" x2="502.492" y2="217.467" gradientUnits="userSpaceOnUse">
<stop offset="0.396" stop-color="#1F87B6"/>
<stop offset="0.479" stop-color="#8BD6F7"/>
</linearGradient>
<linearGradient id="paint16_linear_7_1122" x1="481.537" y1="420.643" x2="518.461" y2="356.641" gradientUnits="userSpaceOnUse">
<stop offset="0.414" stop-color="#B7DEEF"/>
<stop offset="0.62" stop-color="#EEF7FB"/>
</linearGradient>
<linearGradient id="paint17_linear_7_1122" x1="412.579" y1="618.325" x2="412.579" y2="300.12" gradientUnits="userSpaceOnUse">
<stop offset="0.114" stop-color="white"/>
<stop offset="0.161" stop-color="#D3D3D3"/>
<stop offset="0.327" stop-color="#3D3D3D"/>
<stop offset="0.399"/>
</linearGradient>
<linearGradient id="paint18_linear_7_1122" x1="334.049" y1="481.875" x2="491.109" y2="481.875" gradientUnits="userSpaceOnUse">
<stop offset="0.425" stop-color="#B1DBED"/>
<stop offset="0.563" stop-color="#91D2EE"/>
</linearGradient>
<linearGradient id="paint19_linear_7_1122" x1="297.722" y1="614.922" x2="297.722" y2="448.844" gradientUnits="userSpaceOnUse">
<stop offset="0.191" stop-color="white"/>
<stop offset="0.221" stop-color="#C7C7C7"/>
<stop offset="0.281" stop-color="#5D5D5D"/>
<stop offset="0.323" stop-color="#1A1A1A"/>
<stop offset="0.343"/>
</linearGradient>
<linearGradient id="paint20_linear_7_1122" x1="241.896" y1="547.987" x2="353.547" y2="547.987" gradientUnits="userSpaceOnUse">
<stop offset="0.425" stop-color="#B9E5F8"/>
<stop offset="0.563" stop-color="#B9E5F8"/>
</linearGradient>
<linearGradient id="paint21_linear_7_1122" x1="4.52807" y1="523.603" x2="68.8224" y2="523.603" gradientUnits="userSpaceOnUse">
<stop stop-color="#C3CDD1"/>
<stop offset="0.283" stop-color="#CAD1D4"/>
<stop offset="0.719" stop-color="#F8F9F9"/>
<stop offset="1" stop-color="#F6F7F7"/>
</linearGradient>
<linearGradient id="paint22_linear_7_1122" x1="57.3671" y1="507.319" x2="28.1637" y2="507.319" gradientUnits="userSpaceOnUse">
<stop stop-color="#C3CDD1"/>
<stop offset="0.243" stop-color="#B4BCBE"/>
<stop offset="0.489" stop-color="#C3CDD1"/>
</linearGradient>
<linearGradient id="paint23_linear_7_1122" x1="62.3721" y1="513.423" x2="23.1577" y2="513.423" gradientUnits="userSpaceOnUse">
<stop offset="0.427" stop-color="#C3CDD1"/>
<stop offset="0.771" stop-color="#D3D7D8"/>
</linearGradient>
<linearGradient id="paint24_linear_7_1122" x1="24.9388" y1="503.693" x2="5.35446" y2="537.64" gradientUnits="userSpaceOnUse">
<stop offset="0.492" stop-color="#A0CFE2"/>
<stop offset="1" stop-color="#0C8DC6"/>
</linearGradient>
<linearGradient id="paint25_linear_7_1122" x1="340.495" y1="131.416" x2="440.666" y2="131.416" gradientUnits="userSpaceOnUse">
<stop offset="0.038" stop-color="#F6FBFE"/>
<stop offset="0.343" stop-color="#ECF6FA"/>
<stop offset="0.604" stop-color="white"/>
<stop offset="0.79" stop-color="white"/>
</linearGradient>
</defs>
</svg>
