<svg width="145" height="34" viewBox="0 0 145 34" fill="none" xmlns="http://www.w3.org/2000/svg">
<path d="M15.6606 2.99561C7.9882 2.99561 1.65625 9.31873 1.65625 17C1.65625 24.6724 7.9882 30.9956 15.6606 30.9956C16.2974 31.0348 16.9355 30.9432 17.5355 30.7264C18.1356 30.5097 18.6848 30.1725 19.1495 29.7354C19.6143 29.2984 19.9847 28.7708 20.2379 28.1852C20.4911 27.5996 20.6217 26.9684 20.6217 26.3304C20.6217 25.6925 20.4911 25.0612 20.2379 24.4757C19.9847 23.8901 19.6143 23.3625 19.1495 22.9255C18.6848 22.4884 18.1356 22.1511 17.5355 21.9344C16.9355 21.7176 16.2974 21.626 15.6606 21.6652C15.0442 21.6747 14.4322 21.5604 13.8608 21.3288C13.2894 21.0973 12.7704 20.7534 12.3344 20.3174C11.8985 19.8815 11.5546 19.3624 11.323 18.7911C11.0915 18.2197 10.9771 17.6076 10.9866 16.9912C10.9866 14.3631 13.0238 12.326 15.6606 12.326C18.2975 12.326 20.3346 14.3631 20.3346 17C20.2955 17.6368 20.387 18.2748 20.6038 18.8748C20.8205 19.4749 21.1578 20.0242 21.5949 20.4889C22.0319 20.9537 22.5595 21.3241 23.145 21.5772C23.7306 21.8304 24.3619 21.961 24.9999 21.961C25.6379 21.961 26.269 21.8304 26.8546 21.5772C27.4402 21.3241 27.9678 20.9537 28.4048 20.4889C28.8419 20.0242 29.1792 19.4749 29.3959 18.8748C29.6126 18.2748 29.7042 17.6368 29.665 17C29.665 9.32755 23.3331 2.99561 15.6606 2.99561Z" fill="#039BE5"/>
<path d="M34.3302 2.99564C33.6935 2.95647 33.0554 3.04804 32.4553 3.26477C31.8553 3.4815 31.306 3.8188 30.8412 4.25585C30.3764 4.69289 30.0061 5.22045 29.753 5.80604C29.4998 6.39163 29.3692 7.02286 29.3692 7.66083C29.3692 8.2988 29.4998 8.93002 29.753 9.51561C30.0061 10.1012 30.3764 10.6288 30.8412 11.0658C31.306 11.5029 31.8553 11.8402 32.4553 12.0569C33.0554 12.2736 33.6935 12.3652 34.3302 12.326C36.9671 12.326 39.0042 14.3632 39.0042 17C39.0042 19.6281 36.9671 21.6652 34.3302 21.6652C33.7138 21.6747 33.1017 21.5604 32.5303 21.3289C31.9589 21.0973 31.4398 20.7534 31.0039 20.3175C30.568 19.8815 30.224 19.3625 29.9925 18.7911C29.761 18.2197 29.6467 17.6076 29.6562 16.9912C29.6954 16.3544 29.6037 15.7164 29.387 15.1164C29.1702 14.5163 28.8331 13.967 28.396 13.5023C27.959 13.0375 27.4314 12.6672 26.8458 12.414C26.2602 12.1609 25.6289 12.0302 24.991 12.0302C24.353 12.0302 23.7218 12.1609 23.1362 12.414C22.5507 12.6672 22.0231 13.0375 21.586 13.5023C21.149 13.967 20.8117 14.5163 20.595 15.1164C20.3782 15.7164 20.2867 16.3544 20.3258 16.9912C20.3258 24.6725 26.6578 30.9957 34.3302 30.9957C42.0027 30.9957 48.3346 24.6725 48.3346 17C48.3346 9.32758 42.0115 2.99564 34.3302 2.99564Z" fill="#11A97D"/>
<path d="M64.416 26L57.744 9.344H60.192L65.688 23.432H64.8L70.344 9.344H72.768L66.048 26H64.416ZM82.1379 26.24C80.9539 26.24 79.8499 26.024 78.8259 25.592C77.8019 25.144 76.9059 24.528 76.1379 23.744C75.3699 22.944 74.7699 22.024 74.3379 20.984C73.9219 19.944 73.7139 18.832 73.7139 17.648C73.7139 16.448 73.9219 15.336 74.3379 14.312C74.7699 13.272 75.3619 12.36 76.1139 11.576C76.8819 10.792 77.7699 10.184 78.7779 9.752C79.8019 9.32 80.9059 9.104 82.0899 9.104C83.2739 9.104 84.3699 9.32 85.3779 9.752C86.4019 10.184 87.2979 10.792 88.0659 11.576C88.8339 12.36 89.4339 13.272 89.8659 14.312C90.2979 15.352 90.5139 16.472 90.5139 17.672C90.5139 18.856 90.2979 19.968 89.8659 21.008C89.4339 22.048 88.8339 22.96 88.0659 23.744C87.3139 24.528 86.4259 25.144 85.4019 25.592C84.3939 26.024 83.3059 26.24 82.1379 26.24ZM82.0899 24.08C83.2899 24.08 84.3379 23.808 85.2339 23.264C86.1459 22.704 86.8659 21.944 87.3939 20.984C87.9219 20.008 88.1859 18.896 88.1859 17.648C88.1859 16.72 88.0339 15.872 87.7299 15.104C87.4259 14.32 87.0019 13.64 86.4579 13.064C85.9139 12.488 85.2739 12.048 84.5379 11.744C83.8019 11.424 82.9859 11.264 82.0899 11.264C80.9059 11.264 79.8579 11.536 78.9459 12.08C78.0499 12.624 77.3379 13.376 76.8099 14.336C76.2979 15.296 76.0419 16.4 76.0419 17.648C76.0419 18.576 76.1859 19.44 76.4739 20.24C76.7779 21.024 77.1939 21.704 77.7219 22.28C78.2659 22.84 78.9059 23.28 79.6419 23.6C80.3939 23.92 81.2099 24.08 82.0899 24.08ZM93.2246 26V14.6H95.3846V26H93.2246ZM95.3846 19.496L94.5686 19.136C94.5686 17.68 94.9046 16.52 95.5766 15.656C96.2486 14.792 97.2166 14.36 98.4806 14.36C99.0566 14.36 99.5766 14.464 100.041 14.672C100.505 14.864 100.937 15.192 101.337 15.656L99.9206 17.12C99.6806 16.864 99.4166 16.68 99.1286 16.568C98.8406 16.456 98.5046 16.4 98.1206 16.4C97.3206 16.4 96.6646 16.656 96.1526 17.168C95.6406 17.68 95.3846 18.456 95.3846 19.496ZM107.33 26.24C106.29 26.24 105.346 25.984 104.498 25.472C103.65 24.944 102.978 24.232 102.482 23.336C102.002 22.44 101.762 21.432 101.762 20.312C101.762 19.192 102.002 18.184 102.482 17.288C102.978 16.392 103.642 15.68 104.474 15.152C105.322 14.624 106.274 14.36 107.33 14.36C108.194 14.36 108.962 14.544 109.634 14.912C110.322 15.264 110.874 15.76 111.29 16.4C111.706 17.024 111.938 17.752 111.986 18.584V22.016C111.938 22.832 111.706 23.56 111.29 24.2C110.89 24.84 110.346 25.344 109.658 25.712C108.986 26.064 108.21 26.24 107.33 26.24ZM107.69 24.2C108.762 24.2 109.626 23.84 110.282 23.12C110.938 22.384 111.266 21.448 111.266 20.312C111.266 19.528 111.114 18.848 110.81 18.272C110.522 17.68 110.106 17.224 109.562 16.904C109.018 16.568 108.386 16.4 107.666 16.4C106.946 16.4 106.306 16.568 105.746 16.904C105.202 17.24 104.77 17.704 104.45 18.296C104.146 18.872 103.994 19.536 103.994 20.288C103.994 21.056 104.146 21.736 104.45 22.328C104.77 22.904 105.21 23.36 105.77 23.696C106.33 24.032 106.97 24.2 107.69 24.2ZM111.122 26V22.928L111.53 20.144L111.122 17.384V14.6H113.306V26H111.122ZM121.659 26.24C120.539 26.24 119.523 25.976 118.611 25.448C117.715 24.92 117.003 24.208 116.475 23.312C115.963 22.4 115.707 21.392 115.707 20.288C115.707 19.168 115.963 18.16 116.475 17.264C117.003 16.368 117.715 15.664 118.611 15.152C119.523 14.624 120.539 14.36 121.659 14.36C122.539 14.36 123.355 14.528 124.107 14.864C124.859 15.184 125.507 15.656 126.051 16.28L124.611 17.72C124.259 17.304 123.827 16.992 123.315 16.784C122.819 16.56 122.267 16.448 121.659 16.448C120.939 16.448 120.299 16.616 119.739 16.952C119.179 17.272 118.739 17.72 118.419 18.296C118.099 18.872 117.939 19.536 117.939 20.288C117.939 21.04 118.099 21.704 118.419 22.28C118.739 22.856 119.179 23.312 119.739 23.648C120.299 23.984 120.939 24.152 121.659 24.152C122.267 24.152 122.819 24.048 123.315 23.84C123.827 23.616 124.267 23.296 124.635 22.88L126.051 24.32C125.523 24.928 124.875 25.4 124.107 25.736C123.355 26.072 122.539 26.24 121.659 26.24ZM128.193 26V8.864H130.353V26H128.193ZM138.794 26.24C137.658 26.24 136.634 25.984 135.722 25.472C134.81 24.944 134.09 24.232 133.562 23.336C133.034 22.44 132.77 21.424 132.77 20.288C132.77 19.168 133.026 18.16 133.538 17.264C134.066 16.368 134.77 15.664 135.65 15.152C136.546 14.624 137.546 14.36 138.65 14.36C139.706 14.36 140.634 14.6 141.434 15.08C142.25 15.56 142.882 16.224 143.33 17.072C143.794 17.92 144.026 18.88 144.026 19.952C144.026 20.112 144.018 20.288 144.002 20.48C143.986 20.656 143.954 20.864 143.906 21.104H134.282V19.304H142.754L141.962 20C141.962 19.232 141.826 18.584 141.554 18.056C141.282 17.512 140.898 17.096 140.402 16.808C139.906 16.504 139.306 16.352 138.602 16.352C137.866 16.352 137.218 16.512 136.658 16.832C136.098 17.152 135.666 17.6 135.362 18.176C135.058 18.752 134.906 19.432 134.906 20.216C134.906 21.016 135.066 21.72 135.386 22.328C135.706 22.92 136.162 23.384 136.754 23.72C137.346 24.04 138.026 24.2 138.794 24.2C139.434 24.2 140.018 24.088 140.546 23.864C141.09 23.64 141.554 23.304 141.938 22.856L143.33 24.272C142.786 24.912 142.114 25.4 141.314 25.736C140.53 26.072 139.69 26.24 138.794 26.24Z" fill="white"/>
</svg>
