<svg width="17" height="20" viewBox="0 0 17 20" fill="none" xmlns="http://www.w3.org/2000/svg">
<path d="M15.0394 12.8697V6.51127C15.0394 6.21198 14.963 5.91765 14.8174 5.65615C14.6719 5.39465 14.462 5.17463 14.2076 5.01693L9.25987 1.94922C8.98162 1.77671 8.66073 1.6853 8.33334 1.6853C8.00595 1.6853 7.68506 1.77671 7.40681 1.94922L2.45909 5.01693C2.20473 5.17464 1.99484 5.39466 1.84929 5.65616C1.70373 5.91766 1.62733 6.21198 1.62732 6.51127V12.8697C1.62732 13.169 1.70371 13.4633 1.84927 13.7248C1.99482 13.9863 2.20472 14.2064 2.45909 14.3641L7.40681 17.4318C7.68506 17.6043 8.00595 17.6957 8.33334 17.6957C8.66073 17.6957 8.98162 17.6043 9.25987 17.4318L14.2076 14.3641C14.462 14.2064 14.6719 13.9864 14.8174 13.7248C14.963 13.4633 15.0394 13.169 15.0394 12.8697V12.8697Z" stroke="#606163" stroke-miterlimit="10" stroke-linecap="round" stroke-linejoin="round"/>
<path d="M8.33336 12.8183C10.0704 12.8183 11.4786 11.4102 11.4786 9.67308C11.4786 7.93601 10.0704 6.52783 8.33336 6.52783C6.59629 6.52783 5.18811 7.93601 5.18811 9.67308C5.18811 11.4102 6.59629 12.8183 8.33336 12.8183Z" stroke="#606163" stroke-miterlimit="10" stroke-linecap="round" stroke-linejoin="round"/>
</svg>
