<svg width="187" height="143" viewBox="0 0 187 143" fill="none" xmlns="http://www.w3.org/2000/svg">
<path d="M159.052 40.3513C195.482 61.3393 195.673 95.3691 159.48 116.358C123.285 137.347 64.4108 137.347 27.9808 116.359C-8.45056 95.3705 -8.6427 61.3407 27.5519 40.3513C63.7461 19.3623 122.62 19.3618 159.052 40.3513Z" fill="#292D2C"/>
<path d="M186.499 78.6195L186.468 89.519C186.429 103.185 177.429 116.831 159.448 127.258C123.254 148.247 64.3793 148.247 27.9494 127.259C9.61654 116.697 0.460426 102.833 0.500129 88.9902L0.531003 78.0908C0.49179 91.9337 9.64791 105.798 27.9803 116.36C64.4102 137.348 123.284 137.348 159.479 116.358C177.46 105.931 186.46 92.2854 186.499 78.6195Z" fill="#373A39"/>
<path d="M111.314 17.2726C111.672 16.8986 112.037 16.5307 112.409 16.1691C112.827 15.7619 113.254 15.364 113.689 14.9757C113.766 14.9077 113.841 14.8353 113.918 14.7678C114.419 14.3296 114.933 13.905 115.457 13.4946C115.598 13.3846 115.74 13.2804 115.881 13.1733C116.279 12.8706 116.684 12.5769 117.095 12.2924C117.251 12.1853 117.406 12.0767 117.562 11.9725C118.096 11.6139 118.642 11.2726 119.198 10.9493C119.631 10.701 120.072 10.465 120.518 10.2415C120.645 10.1779 120.77 10.1183 120.896 10.0576C121.223 9.89928 121.554 9.74842 121.888 9.60518C122.004 9.55529 122.122 9.50247 122.237 9.45551C122.541 9.33203 122.848 9.21559 123.157 9.10629C123.233 9.0789 123.311 9.0471 123.387 9.02118C123.758 8.89469 124.132 8.77953 124.51 8.67586C124.728 8.61619 124.943 8.56532 125.159 8.51494C125.26 8.49097 125.363 8.4626 125.463 8.44108C125.775 8.37369 126.089 8.31563 126.404 8.26696C126.866 8.19786 127.33 8.15134 127.797 8.12756C127.889 8.12267 127.982 8.11582 128.074 8.11289C128.483 8.09822 128.886 8.09968 129.281 8.12267C129.349 8.12658 129.416 8.13539 129.485 8.14077C129.804 8.16474 130.118 8.20192 130.426 8.25083C130.523 8.26599 130.62 8.28066 130.715 8.29826C131.066 8.3609 131.413 8.44073 131.756 8.53745C131.771 8.54185 131.786 8.54772 131.801 8.55212C132.212 8.67479 132.615 8.82311 133.007 8.99623C133.268 9.1099 133.524 9.23475 133.774 9.37042C133.857 9.41541 133.943 9.45453 134.024 9.50198L120.05 1.3983C120.012 1.37633 119.974 1.35464 119.935 1.33325C119.891 1.3083 119.843 1.29069 119.799 1.26672C119.549 1.13131 119.294 1.00665 119.033 0.893047C118.984 0.871526 118.938 0.843644 118.889 0.823101C118.849 0.806471 118.806 0.795701 118.765 0.77956C118.458 0.654276 118.145 0.543935 117.826 0.44892C117.814 0.445007 117.802 0.439638 117.789 0.435725L117.782 0.434247C117.439 0.337351 117.092 0.257535 116.741 0.195077C116.7 0.187251 116.661 0.174042 116.619 0.167194C116.565 0.157901 116.507 0.15643 116.452 0.147625C116.143 0.0987138 115.829 0.062027 115.51 0.0375712C115.459 0.0336583 115.411 0.0233965 115.36 0.0199727C115.342 0.0189945 115.324 0.0204583 115.306 0.0194801C114.904 -0.00267221 114.501 -0.00593123 114.099 0.00970315C114.058 0.0111705 114.021 0.00676153 113.98 0.00871799C113.928 0.0111636 113.874 0.0219305 113.822 0.0243761C113.365 0.0498101 112.903 0.0908828 112.429 0.163761H112.427C112.117 0.211205 111.805 0.269908 111.489 0.337895C111.388 0.359417 111.285 0.388275 111.183 0.411752C110.987 0.457729 110.792 0.500768 110.594 0.554571C110.574 0.559951 110.554 0.567296 110.535 0.572677C110.165 0.674413 109.79 0.788863 109.412 0.91799C109.336 0.943913 109.258 0.976185 109.182 1.00309C108.877 1.11118 108.571 1.22613 108.262 1.35233C108.222 1.36896 108.182 1.38167 108.141 1.3983C108.066 1.4296 107.989 1.46971 107.914 1.502C107.585 1.64286 107.254 1.7935 106.921 1.95442C106.795 2.01507 106.67 2.07475 106.544 2.13833C106.107 2.35892 105.667 2.59027 105.224 2.84608C104.668 3.16972 104.122 3.51098 103.588 3.86932C103.431 3.9735 103.276 4.08159 103.121 4.1887C102.709 4.47336 102.304 4.76723 101.906 5.07009C101.765 5.17721 101.623 5.28139 101.483 5.39095C100.958 5.80103 100.445 6.22542 99.9439 6.66363C99.8655 6.73211 99.79 6.80548 99.7121 6.87444C99.4513 7.10677 99.1916 7.34107 98.9352 7.5822L89.1997 1.93633L89.0801 1.86785C89.034 1.84192 88.984 1.82383 88.938 1.79839C88.6679 1.65166 88.391 1.51666 88.1081 1.3934C88.0562 1.37042 88.0076 1.34059 87.9552 1.31858C87.9126 1.30048 87.866 1.28923 87.8228 1.27211C87.4913 1.13687 87.1533 1.01788 86.8102 0.915542C86.7974 0.911629 86.7857 0.906245 86.7729 0.902332L86.768 0.901362C86.3991 0.796935 86.0251 0.710903 85.6475 0.643593C85.6034 0.635278 85.5622 0.621581 85.5181 0.613755C85.4598 0.603483 85.398 0.602016 85.3397 0.592723C85.0055 0.539769 84.6693 0.500445 84.3319 0.474847C84.277 0.470445 84.2251 0.459195 84.1697 0.455771C84.1506 0.454793 84.13 0.456257 84.1109 0.455279C83.6805 0.43133 83.2491 0.427738 82.8183 0.444517C82.7767 0.445984 82.737 0.44159 82.6948 0.443546C82.6389 0.445992 82.5801 0.457243 82.5237 0.460667C82.0424 0.487569 81.5552 0.530609 81.0572 0.605933C81.0518 0.606912 81.0464 0.606907 81.0405 0.607396L81.0347 0.608381C80.9798 0.616696 80.9234 0.629893 80.868 0.638697C80.5866 0.684674 80.3038 0.735064 80.0176 0.796203C79.897 0.822127 79.7735 0.855875 79.6514 0.884733C79.4519 0.931688 79.2534 0.975218 79.0515 1.03C79.0309 1.03538 79.0098 1.0437 78.9892 1.04908C78.5961 1.15717 78.1996 1.27748 77.7987 1.41444C77.7325 1.43693 77.6653 1.46481 77.5991 1.48829C77.2629 1.60666 76.9247 1.73285 76.583 1.87176C76.5463 1.88643 76.511 1.89769 76.4742 1.91285C76.3983 1.94415 76.3208 1.98474 76.2448 2.01702C75.8682 2.17695 75.4956 2.34608 75.1273 2.52425C74.9945 2.58832 74.8621 2.65191 74.7288 2.71892C74.2419 2.96199 73.7619 3.21887 73.2897 3.48927C72.5949 3.89155 71.9154 4.31951 71.2526 4.77223C71.0286 4.92435 70.811 5.09456 70.5894 5.25303C70.1414 5.56837 69.7006 5.89387 69.2675 6.2293C69.0087 6.43277 68.7562 6.65092 68.5004 6.86271C68.1077 7.18356 67.7213 7.51181 67.3411 7.8473C67.0755 8.08452 66.8162 8.33299 66.5545 8.57853C66.3108 8.80694 66.0618 9.02362 65.8222 9.25938C65.6771 9.4022 65.5364 9.55334 65.3928 9.69861C64.6959 10.4008 64.0208 11.1242 63.3684 11.8678L63.3547 11.8845C62.7444 12.5855 62.1535 13.3031 61.5828 14.0366L61.5744 14.0464C61.0609 14.7072 60.5631 15.3801 60.0814 16.0645C60.0564 16.1002 60.0334 16.1378 60.0084 16.1735C59.8863 16.3481 59.7717 16.5286 59.6516 16.7047C59.3594 17.1332 59.0644 17.5592 58.7835 17.997C58.71 18.1119 58.6423 18.2308 58.5693 18.3462C58.4223 18.58 58.2806 18.8162 58.137 19.0525C57.9674 19.3313 57.7909 19.6052 57.6262 19.8869C57.489 20.1217 57.362 20.3623 57.2282 20.5991C57.0939 20.8363 56.9601 21.073 56.8297 21.3127C56.7459 21.4658 56.6562 21.6159 56.5744 21.77C56.3303 22.2278 56.1009 22.692 55.8705 23.1557C55.8029 23.2916 55.7308 23.4252 55.6646 23.5612C55.647 23.5969 55.6279 23.6321 55.6102 23.6678C55.3005 24.3085 55.0044 24.9542 54.7225 25.6032C54.6892 25.6805 54.6603 25.7587 54.627 25.8365C54.5343 26.0522 54.4505 26.2694 54.3608 26.4861C54.2069 26.8588 54.0466 27.23 53.9025 27.6042C53.8305 27.7915 53.7697 27.9803 53.6996 28.1681C53.5935 28.4548 53.4901 28.7424 53.3893 29.0309C53.3099 29.2574 53.2212 29.4829 53.1452 29.7103C53.0526 29.9872 52.9776 30.265 52.8908 30.5428C52.7879 30.8705 52.685 31.1977 52.5899 31.5259C52.5457 31.678 52.4928 31.8301 52.4502 31.9823C52.3673 32.2806 52.3066 32.578 52.2301 32.8759C52.1237 33.2926 52.0159 33.7084 51.9228 34.1241C51.8929 34.2571 51.8527 34.3912 51.8243 34.5242C51.7032 35.0942 51.5944 35.6668 51.4978 36.2415C51.4826 36.331 51.4718 36.4195 51.4576 36.509C51.3912 36.9082 51.331 37.3083 51.2772 37.7093C51.2279 38.0926 51.1849 38.4766 51.1483 38.8612C51.0625 38.8832 50.9768 38.9057 50.8905 38.9292C50.5381 39.0241 50.1788 39.141 49.8205 39.2564C49.6965 39.296 49.5749 39.3273 49.4504 39.3694C48.926 39.5471 48.4075 39.7417 47.8956 39.9529C47.8785 39.9598 47.8608 39.9695 47.8437 39.9764C47.4584 40.1363 47.0673 40.3227 46.6771 40.5056C46.4786 40.5985 46.283 40.6783 46.083 40.7771C45.4755 41.0781 44.8775 41.3982 44.29 41.7367C43.6112 42.128 42.9411 42.5535 42.2755 42.9967C42.1633 43.0715 42.05 43.1439 41.9383 43.2202C41.2982 43.6571 40.6707 44.112 40.0566 44.5844C39.937 44.6763 39.8179 44.7702 39.6987 44.8641C39.0635 45.3608 38.4418 45.8743 37.8342 46.4043C37.7803 46.4513 37.7278 46.5012 37.6744 46.5486C37.0787 47.0761 36.4961 47.6181 35.927 48.174C35.8701 48.2292 35.8108 48.2791 35.754 48.3344C35.7187 48.3691 35.6849 48.4063 35.6496 48.441C35.2063 48.8784 34.771 49.3238 34.3438 49.7768L34.2801 49.8468C33.8721 50.2826 33.4714 50.7251 33.0782 51.1742C33.0405 51.2173 33.0008 51.2579 32.9635 51.3009C32.9155 51.3557 32.8713 51.4158 32.8238 51.4711C32.1783 52.2157 31.552 52.9767 30.9455 53.7533C30.9279 53.7758 30.9088 53.7964 30.8916 53.8189C30.8446 53.879 30.8019 53.9431 30.7554 54.0033C30.2692 54.6342 29.7958 55.2747 29.3354 55.9245C29.2888 55.9901 29.2388 56.0517 29.1927 56.1177C29.1717 56.148 29.1521 56.1803 29.1305 56.2107C28.6882 56.8437 28.2577 57.4848 27.8394 58.1339C27.7992 58.1965 27.7551 58.2566 27.7149 58.3197C27.6546 58.4136 27.5997 58.511 27.5399 58.6054C27.2019 59.1394 26.872 59.6784 26.5503 60.2224C26.5003 60.3075 26.4454 60.3897 26.3959 60.4748C26.3773 60.5071 26.3601 60.5398 26.3415 60.5721C25.9782 61.1971 25.6257 61.8283 25.2842 62.4655C25.2563 62.5173 25.2254 62.5682 25.198 62.6205C25.1416 62.7262 25.0911 62.8343 25.0357 62.9399C24.77 63.4456 24.5113 63.955 24.2598 64.4679C24.2073 64.575 24.1495 64.6797 24.0976 64.7873C24.0667 64.8514 24.0392 64.9169 24.0088 64.981C23.6982 65.6277 23.399 66.2798 23.1113 66.937C23.1025 66.9575 23.0922 66.9776 23.0834 66.9981C23.0525 67.0685 23.0266 67.1404 22.9962 67.2109C22.7428 67.8014 22.4991 68.3961 22.2654 68.9947C22.2276 69.0915 22.184 69.1874 22.1467 69.2842C22.1154 69.3654 22.0899 69.4471 22.059 69.5283C21.7906 70.2301 21.5363 70.9372 21.2963 71.6491L21.2816 71.6892C21.2679 71.7308 21.2571 71.7729 21.2434 71.8149C21.0033 72.5425 20.7791 73.2752 20.5709 74.0125C20.5449 74.104 20.5125 74.195 20.487 74.2864C20.4728 74.3363 20.464 74.3867 20.4503 74.4366C20.2165 75.2877 20.0092 76.1378 19.8239 76.9864C19.8077 77.0612 19.7846 77.1365 19.7685 77.2113C19.7449 77.3214 19.7278 77.431 19.7048 77.541C19.6362 77.8761 19.5724 78.2096 19.5116 78.5437C19.4695 78.7741 19.4273 79.004 19.3891 79.2338C19.3331 79.5756 19.2813 79.918 19.2337 80.261C19.2107 80.4224 19.1813 80.5853 19.1602 80.7467C19.1548 80.7892 19.1529 80.8313 19.1475 80.8739C19.0543 81.6075 18.9842 82.3363 18.9323 83.0607C18.9215 83.2148 18.9132 83.3684 18.9038 83.5219C18.8576 84.2595 18.8339 84.9982 18.8328 85.7372C18.8553 93.7714 21.6982 99.4256 26.2832 102.084L40.2575 110.188C35.6726 107.529 32.8297 101.875 32.8071 93.8408C32.808 93.1019 32.8317 92.3631 32.8782 91.6256C32.8875 91.472 32.8954 91.3185 32.9066 91.1644C32.9581 90.44 33.0287 89.7112 33.1213 88.9775C33.1473 88.7731 33.1787 88.5682 33.2076 88.3632C33.2561 88.0223 33.3056 87.6814 33.3625 87.3395C33.4007 87.1077 33.4438 86.8758 33.4865 86.6435C33.5468 86.3119 33.61 85.9797 33.6786 85.6471C33.7169 85.4613 33.7576 85.2754 33.7983 85.0896C33.983 84.2419 34.1909 83.3918 34.4242 82.5417C34.4634 82.3994 34.5051 82.2576 34.5452 82.1152C34.7536 81.3811 34.9761 80.6474 35.2187 79.9142C35.2364 79.8609 35.252 79.8076 35.2697 79.7548C35.5705 78.8615 35.8938 77.9759 36.2392 77.0989C36.4734 76.4989 36.7177 75.9029 36.972 75.3111C37.0102 75.2216 37.046 75.1321 37.0847 75.0426C37.3727 74.3841 37.6724 73.7307 37.9837 73.0827C38.0651 72.913 38.1494 72.7443 38.2322 72.575C38.4849 72.0598 38.7449 71.5481 39.012 71.0402C39.0939 70.8842 39.1743 70.7271 39.2576 70.5716C39.599 69.9344 39.9515 69.3032 40.3149 68.6782C40.384 68.5594 40.4565 68.442 40.5266 68.3236C40.8477 67.781 41.1769 67.2432 41.5143 66.7105C41.6138 66.553 41.7128 66.3955 41.8138 66.239C42.2321 65.59 42.6626 64.9488 43.1049 64.3158C43.172 64.2199 43.2416 64.126 43.3093 64.0306C43.7695 63.3812 44.2428 62.741 44.7287 62.1104C44.7934 62.0267 44.8562 61.9411 44.9214 61.8575C45.5275 61.0809 46.1537 60.3201 46.7992 59.5758C46.8845 59.4775 46.9678 59.3772 47.0535 59.2794C47.4444 58.8332 47.8427 58.3934 48.2481 57.9602C48.2726 57.9343 48.2961 57.9069 48.3201 57.8815C48.7485 57.4261 49.1838 56.983 49.6239 56.5476C49.7166 56.4562 49.8107 56.3681 49.9038 56.2777C50.4719 55.723 51.0534 55.1822 51.6478 54.6558C51.7022 54.6073 51.7556 54.5569 51.8105 54.509C52.4176 53.9795 53.0389 53.4664 53.6736 52.9703C53.7932 52.8763 53.9128 52.7814 54.0334 52.689C54.6473 52.2168 55.2746 51.7622 55.9146 51.3258C56.0264 51.2495 56.1396 51.1767 56.2518 51.1023C56.9095 50.6607 57.5814 50.2405 58.2664 49.8424C58.8538 49.5038 59.4518 49.1838 60.0594 48.8827C60.2589 48.7839 60.4544 48.7042 60.6529 48.6113C61.0431 48.4283 61.4343 48.242 61.8195 48.082C62.3483 47.8621 62.8842 47.6597 63.4263 47.475C63.5508 47.433 63.6723 47.4017 63.7963 47.362C64.2424 47.2187 64.6874 47.0793 65.1242 46.9668C65.1987 46.1887 65.3065 45.4031 65.4334 44.6147C65.4477 44.5252 65.4585 44.4366 65.4737 44.3471C65.5923 43.6438 65.7398 42.937 65.8986 42.2293C65.9917 41.8145 66.0991 41.3987 66.2054 40.983C66.3206 40.532 66.4353 40.0811 66.5662 39.6296C66.6608 39.3029 66.7637 38.9771 66.8657 38.6509C67.1149 37.8523 67.3847 37.0604 67.6749 36.2757C67.8847 35.7113 68.1063 35.1488 68.3381 34.5883C68.4268 34.3736 68.5107 34.1579 68.6023 33.9436C68.9302 33.1771 69.2762 32.4184 69.64 31.6682C69.7071 31.5303 69.7802 31.3953 69.8483 31.2579C70.1555 30.6388 70.4747 30.0256 70.8056 29.4188C70.936 29.1791 71.0703 28.9419 71.2046 28.7042C71.4985 28.1842 71.8011 27.669 72.1123 27.1591C72.256 26.9233 72.3976 26.6861 72.5451 26.4523C72.8958 25.8987 73.2565 25.3515 73.6269 24.8108C73.747 24.6348 73.8617 24.4538 73.9838 24.2797C75.0208 22.7907 76.1379 21.359 77.3301 19.9906C77.9861 19.2408 78.6656 18.5118 79.3676 17.8047C79.7482 17.4242 80.1357 17.0506 80.5298 16.6842C80.791 16.4386 81.0508 16.1897 81.3165 15.9529C81.6966 15.6174 82.0831 15.2892 82.4757 14.9683C82.7311 14.757 82.984 14.5384 83.2428 14.3349C83.6761 13.9997 84.1169 13.6742 84.5648 13.3587C84.7863 13.2002 85.0045 13.03 85.2285 12.8779C85.8912 12.425 86.5707 11.9971 87.2656 11.5949C87.7378 11.3245 88.2177 11.0676 88.7046 10.8246C88.8379 10.7575 88.9703 10.694 89.1031 10.6299C89.4781 10.4489 89.8506 10.2802 90.2202 10.1232C90.3329 10.0752 90.4467 10.0234 90.5589 9.97789C90.8938 9.84236 91.2317 9.71467 91.5726 9.59491C91.6397 9.57143 91.7078 9.54307 91.7745 9.52009C92.1754 9.38313 92.5724 9.26232 92.9651 9.15471C93.1876 9.09357 93.4077 9.04221 93.6278 8.99037C93.7493 8.96151 93.8728 8.92776 93.9939 8.90184C94.276 8.84222 94.5596 8.78971 94.8443 8.74435C94.8997 8.73554 94.9561 8.72233 95.011 8.71402L95.033 8.71157C95.5191 8.64004 96.0084 8.59156 96.4991 8.5663C96.5981 8.56092 96.6971 8.55359 96.7951 8.55017C97.1751 8.53772 97.5555 8.54098 97.9353 8.55994L97.8872 8.60935C97.7044 8.79424 97.5221 8.9796 97.3417 9.16889C97.1368 9.38312 96.9353 9.60127 96.7339 9.82089C96.5564 10.0146 96.379 10.2088 96.204 10.4068C96.1315 10.489 96.056 10.5673 95.984 10.6504C95.7477 10.9219 95.5134 11.1968 95.2821 11.4756L109.256 19.5792C109.727 19.0162 110.21 18.4647 110.707 17.9251C110.908 17.704 111.109 17.4863 111.314 17.2726Z" fill="#97C5FA"/>
<path d="M87.2647 11.5938C98.1138 5.34335 107.184 8.99411 109.256 19.5776C112.206 16.0237 115.59 13.0279 119.197 10.9491C130.705 4.31963 140.065 9.64219 140.103 22.8371C140.104 23.1638 140.092 23.4974 140.08 23.8315C142.052 21.7718 144.196 20.0276 146.456 18.7261C155.824 13.3292 163.444 17.6622 163.475 28.4037C163.505 39.1526 155.935 52.2379 146.567 57.6348L58.4331 108.411C44.3245 116.54 32.8558 110.01 32.8097 93.8402C32.7636 77.6627 44.1578 57.9688 58.2665 49.8407C60.6403 48.4731 62.9387 47.5267 65.1243 46.9657C66.4114 33.4803 75.8146 18.1905 87.2647 11.5938Z" fill="#F3F5FA"/>
<path d="M114.471 50.9796C114.716 50.7231 114.966 50.4713 115.22 50.2244C115.507 49.9458 115.799 49.6734 116.097 49.4075C116.149 49.3611 116.2 49.3112 116.253 49.2652C116.596 48.9655 116.948 48.675 117.306 48.3941C117.403 48.3188 117.5 48.2474 117.596 48.174C117.871 47.9656 118.148 47.7646 118.427 47.5714C118.534 47.498 118.64 47.4237 118.747 47.3528C119.112 47.1074 119.485 46.8738 119.866 46.6524C120.163 46.4825 120.464 46.321 120.769 46.1681C120.856 46.1246 120.941 46.0835 121.028 46.0419C121.256 45.9319 121.482 45.8287 121.707 45.7323C121.786 45.6981 121.866 45.6624 121.946 45.6296C122.158 45.5435 122.367 45.4648 122.575 45.3904C122.628 45.3718 122.681 45.3498 122.733 45.3322C122.987 45.2455 123.243 45.1668 123.502 45.096C123.651 45.0549 123.798 45.0202 123.946 44.9859C124.015 44.9698 124.085 44.9502 124.154 44.9356C124.371 44.8891 124.586 44.849 124.798 44.8162C125.114 44.769 125.432 44.7372 125.751 44.7208C125.814 44.7174 125.877 44.713 125.94 44.7106C126.22 44.7008 126.496 44.7013 126.766 44.7174C126.813 44.7203 126.859 44.7262 126.905 44.7296C127.188 44.7509 127.469 44.787 127.748 44.8377C127.99 44.8822 128.229 44.9346 128.46 45.0016C128.47 45.0045 128.48 45.0089 128.49 45.0119C128.772 45.0957 129.048 45.1973 129.316 45.3161C129.495 45.3944 129.67 45.4794 129.841 45.5719C129.898 45.6027 129.956 45.6296 130.012 45.6619L120.449 40.1163C120.424 40.1013 120.397 40.0864 120.371 40.0718C120.341 40.0547 120.309 40.0429 120.278 40.0263C120.107 39.9337 119.932 39.8483 119.754 39.7705C119.72 39.7558 119.689 39.7367 119.655 39.7226C119.628 39.7113 119.598 39.704 119.571 39.6927C119.36 39.6068 119.146 39.5312 118.928 39.4662C118.919 39.4638 118.911 39.4599 118.902 39.4575L118.898 39.4565C118.663 39.39 118.425 39.3353 118.185 39.2926C118.157 39.2872 118.13 39.2784 118.102 39.2735C118.065 39.2672 118.025 39.2662 117.988 39.2603C117.774 39.2266 117.559 39.2015 117.343 39.185C117.308 39.1826 117.276 39.1752 117.241 39.1728C117.229 39.1718 117.216 39.1733 117.204 39.1723C116.929 39.1573 116.653 39.155 116.378 39.1654C116.351 39.1664 116.325 39.1635 116.297 39.165C116.262 39.1664 116.224 39.1738 116.189 39.1757C115.876 39.1933 115.56 39.2212 115.236 39.2711H115.234C115.022 39.3034 114.808 39.3435 114.592 39.39C114.523 39.4046 114.452 39.4242 114.383 39.4408C114.248 39.4721 114.115 39.502 113.979 39.5386C113.966 39.5421 113.952 39.5474 113.939 39.5509C113.686 39.6203 113.429 39.6986 113.171 39.7871C113.119 39.8047 113.065 39.8267 113.013 39.8453C112.804 39.9192 112.595 39.9979 112.383 40.0845C112.355 40.0957 112.328 40.1046 112.3 40.1163C112.249 40.1378 112.196 40.1652 112.145 40.1872C111.92 40.2836 111.693 40.3868 111.465 40.4968C111.38 40.5384 111.294 40.5795 111.207 40.623C110.902 40.776 110.601 40.9375 110.304 41.1072C109.927 41.3249 109.554 41.5616 109.185 41.8077C109.078 41.8786 108.972 41.9529 108.865 42.0263C108.586 42.2195 108.309 42.4205 108.034 42.6294C107.938 42.7027 107.841 42.7737 107.744 42.849C107.386 43.1296 107.035 43.4199 106.692 43.7196C106.638 43.7666 106.586 43.8164 106.533 43.8639C106.355 44.0229 106.177 44.1833 106.001 44.3481L99.3398 40.4851L99.2579 40.4381C99.2266 40.4205 99.1922 40.4078 99.1609 40.3907C98.9755 40.2902 98.786 40.1977 98.5928 40.1133C98.557 40.0977 98.5241 40.0772 98.4879 40.0625C98.4585 40.0503 98.4271 40.0424 98.3972 40.0307C98.1713 39.9397 97.9413 39.8566 97.7041 39.7866C97.6953 39.7842 97.6874 39.7803 97.6786 39.7778L97.6752 39.7773C97.4228 39.7058 97.1669 39.6469 96.9086 39.6008C96.8787 39.5954 96.8503 39.5856 96.8199 39.5802C96.7802 39.5734 96.738 39.5724 96.6978 39.566C96.4719 39.5303 96.242 39.5029 96.0082 39.4853C95.9704 39.4824 95.9351 39.4746 95.8969 39.4721C95.8837 39.4712 95.87 39.4726 95.8567 39.4716C95.5621 39.4552 95.2668 39.4528 94.972 39.4643C94.9436 39.4653 94.9161 39.4623 94.8877 39.4638C94.8494 39.4653 94.8092 39.4731 94.7705 39.4755C94.4345 39.4927 94.0995 39.5259 93.7667 39.5748L93.7554 39.5758L93.7515 39.5763C93.7138 39.5822 93.675 39.591 93.6373 39.5973C93.4446 39.6286 93.2515 39.6629 93.0555 39.7049C92.9726 39.7225 92.8883 39.746 92.805 39.7656C92.6682 39.7979 92.5325 39.8277 92.3942 39.8649L92.3516 39.8781C92.0825 39.9519 91.8109 40.0346 91.5369 40.128C91.4918 40.1432 91.4458 40.1628 91.4007 40.1784C91.1703 40.2596 90.939 40.3457 90.7052 40.4411C90.6802 40.4513 90.6556 40.4587 90.6306 40.4689C90.5787 40.4905 90.5258 40.5183 90.4738 40.5404C90.2209 40.648 89.966 40.7634 89.7092 40.8871C89.6185 40.9312 89.5278 40.9742 89.4367 41.0202C89.1107 41.184 88.7833 41.3567 88.4519 41.5474C87.9766 41.8229 87.5116 42.1157 87.0579 42.4254C86.9045 42.5296 86.7555 42.646 86.604 42.7541C86.3006 42.9713 85.9972 43.1884 85.6992 43.4222C85.5218 43.5611 85.3492 43.7108 85.1742 43.8556C84.9081 44.0762 84.6419 44.2963 84.3807 44.5296C84.1988 44.692 84.0214 44.8617 83.8425 45.0299C83.6758 45.1865 83.5053 45.3347 83.3411 45.4961C83.2416 45.5939 83.1455 45.6971 83.047 45.7969C82.5697 46.2771 82.1078 46.7721 81.6618 47.2814L81.6525 47.2926C81.2347 47.7723 80.8304 48.2634 80.4398 48.7653L80.4344 48.7722C80.0831 49.2243 79.7425 49.6847 79.4129 50.153C79.3958 50.1774 79.3801 50.2028 79.363 50.2273C79.2791 50.3466 79.2012 50.4704 79.1188 50.5907C78.9189 50.8837 78.7169 51.1757 78.5248 51.475C78.4743 51.5538 78.4282 51.635 78.3782 51.7142C78.2777 51.8742 78.1807 52.0361 78.0822 52.1975C77.966 52.3882 77.8454 52.5756 77.7327 52.7683C77.6386 52.9292 77.5523 53.0935 77.4606 53.2554C77.369 53.4178 77.2773 53.5797 77.1881 53.7436C77.1308 53.8482 77.0695 53.951 77.0131 54.0566C76.846 54.3701 76.6891 54.6876 76.5313 55.005C76.4852 55.0979 76.4357 55.1894 76.3902 55.2828C76.3784 55.3073 76.3646 55.3312 76.3529 55.3557C76.1414 55.7929 75.939 56.2343 75.7456 56.6797C75.7226 56.7326 75.703 56.7864 75.6804 56.8392C75.6172 56.9869 75.5593 57.1356 75.4981 57.2838C75.3927 57.5386 75.2834 57.7925 75.1844 58.0488C75.1349 58.1769 75.0932 58.306 75.0456 58.4347C74.9726 58.6313 74.9025 58.8279 74.8334 59.025C74.779 59.1801 74.7182 59.3347 74.6663 59.4897C74.603 59.6795 74.5516 59.8693 74.4923 60.059C74.4217 60.2835 74.3511 60.5071 74.2864 60.7316C74.256 60.8357 74.2197 60.9394 74.1908 61.0436C74.134 61.2476 74.0923 61.4511 74.0403 61.655C73.9673 61.9402 73.8938 62.2248 73.8301 62.5095C73.8095 62.6005 73.782 62.6924 73.7629 62.7834C73.6801 63.1736 73.6055 63.5654 73.5394 63.9588C73.5291 64.0199 73.5218 64.0806 73.5119 64.1417C73.4678 64.4161 73.4237 64.69 73.3884 64.9629C73.3547 65.2252 73.3253 65.4881 73.3002 65.7514L73.1237 65.7978C72.8826 65.8629 72.637 65.9426 72.3914 66.0219C72.3066 66.0493 72.2233 66.0703 72.138 66.0991C71.7871 66.2185 71.4322 66.3506 71.0739 66.4983L71.0381 66.5144C70.7744 66.6239 70.5068 66.7511 70.2402 66.8764C70.1044 66.9399 69.9706 66.9942 69.8338 67.0622C69.4181 67.2683 69.0089 67.4874 68.6069 67.7191C68.1383 67.9915 67.6786 68.2791 67.2286 68.5814C67.1517 68.6328 67.0742 68.6822 66.9977 68.7345C66.5598 69.0334 66.1305 69.3446 65.7101 69.6677C65.6283 69.7308 65.5469 69.7949 65.465 69.859C65.0302 70.1987 64.6048 70.5502 64.1892 70.913C64.1524 70.9453 64.1166 70.979 64.0798 71.0118C63.6723 71.3729 63.2735 71.7438 62.8839 72.1241C62.8451 72.1617 62.8045 72.196 62.7657 72.2341C62.7417 72.2576 62.7187 72.2835 62.6942 72.307C62.3909 72.6064 62.093 72.9112 61.8006 73.2212L61.757 73.2691C61.4779 73.5673 61.2037 73.8702 60.9345 74.1774C60.9085 74.2067 60.8816 74.2346 60.8561 74.2639C60.8233 74.3016 60.7929 74.3427 60.7605 74.3804C60.3187 74.8898 59.8902 75.4106 59.4753 75.9421C59.4636 75.9573 59.4503 75.9715 59.4385 75.9871C59.4067 76.0282 59.3768 76.0722 59.3449 76.1133C59.0123 76.545 58.6884 76.9833 58.3735 77.4281C58.3416 77.4731 58.3073 77.5151 58.2759 77.5601C58.2612 77.5811 58.248 77.6027 58.2333 77.6237C57.9306 78.0567 57.6361 78.4954 57.35 78.9394C57.3225 78.9825 57.2922 79.0236 57.2647 79.0666C57.2235 79.1307 57.1858 79.1972 57.1451 79.2617C56.9137 79.6271 56.6879 79.9959 56.4677 80.3681C56.4334 80.4263 56.3962 80.4826 56.3618 80.5408L56.3246 80.6073C56.076 81.035 55.8348 81.467 55.6011 81.903C55.582 81.9387 55.5609 81.9734 55.5418 82.0091C55.5036 82.0815 55.4688 82.1554 55.431 82.2278C55.2493 82.5739 55.0723 82.9225 54.9002 83.2735C54.8644 83.3469 54.8247 83.4187 54.7894 83.4921C54.7683 83.5361 54.7497 83.5806 54.7286 83.6247C54.5158 84.0672 54.3111 84.5135 54.1145 84.9634C54.1081 84.9776 54.1012 84.9913 54.0953 85.0055C54.0743 85.0539 54.0567 85.1028 54.0356 85.1512C53.8624 85.5553 53.6957 85.9621 53.5356 86.3715C53.5096 86.4376 53.4802 86.5031 53.4542 86.5697C53.4327 86.6249 53.4155 86.6811 53.3944 86.7364C53.211 87.2167 53.037 87.7006 52.8724 88.1876L52.8626 88.215C52.8533 88.2434 52.8459 88.2723 52.8366 88.3011C52.6726 88.7992 52.5191 89.3006 52.3764 89.8052C52.3587 89.8678 52.3367 89.9299 52.319 89.9925C52.3092 90.0267 52.3034 90.0609 52.2935 90.0952C52.1353 90.6729 51.9923 91.2547 51.8647 91.8399C51.8534 91.8912 51.8377 91.9426 51.8269 91.9939C51.8107 92.0693 51.799 92.1441 51.7833 92.2199C51.7362 92.4488 51.6926 92.6777 51.6509 92.9061C51.622 93.0636 51.5931 93.2211 51.5671 93.3781C51.5279 93.6129 51.4941 93.8472 51.4608 94.081C51.4451 94.1916 51.425 94.3031 51.4108 94.4131C51.4068 94.4424 51.4059 94.4708 51.4019 94.5002C51.3392 94.9975 51.2901 95.4964 51.2549 95.9964C51.2475 96.102 51.2417 96.2067 51.2358 96.3119C51.2041 96.8165 51.1879 97.322 51.1873 97.8276C51.2029 103.325 53.1479 107.194 56.2854 109.014L65.8479 114.559C62.7104 112.74 60.7649 108.871 60.7497 103.373C60.7504 102.868 60.7666 102.362 60.7983 101.857C60.8046 101.752 60.81 101.647 60.8174 101.542C60.8527 101.047 60.9007 100.548 60.9644 100.046C60.9821 99.9059 61.0036 99.7655 61.0232 99.6251C61.0561 99.3918 61.0904 99.1585 61.1291 98.9247C61.1556 98.7662 61.185 98.6073 61.2139 98.4483C61.2777 98.0925 61.3488 97.738 61.4271 97.385C61.5543 96.8002 61.6972 96.2189 61.8555 95.6418C61.882 95.5444 61.9109 95.4471 61.9384 95.3498C62.081 94.8475 62.233 94.3451 62.3991 93.8438C62.4114 93.8076 62.4217 93.7709 62.4339 93.7347C62.5961 93.2495 62.7726 92.7653 62.9559 92.282C63.002 92.1602 63.0496 92.0389 63.0971 91.9172C63.2574 91.5078 63.424 91.0998 63.5985 90.6939C63.625 90.6327 63.649 90.5711 63.676 90.5104C63.872 90.0609 64.0784 89.6139 64.2911 89.1693C64.347 89.0529 64.4043 88.9375 64.4612 88.822C64.6337 88.4699 64.8117 88.1196 64.9945 87.7719C65.0509 87.6648 65.1058 87.5577 65.1626 87.451C65.3964 87.0152 65.6371 86.5828 65.8861 86.1553C65.9336 86.0742 65.9831 85.994 66.0312 85.9128C66.2508 85.541 66.4762 85.1732 66.7071 84.8088C66.7752 84.7012 66.8429 84.5931 66.912 84.486C67.1983 84.0419 67.4928 83.6031 67.7952 83.1698C67.8413 83.1042 67.8889 83.0402 67.9354 82.9746C68.2504 82.5302 68.5741 82.092 68.9064 81.6604C68.9506 81.6031 68.9937 81.5444 69.0383 81.4872C69.4531 80.956 69.8815 80.4354 70.323 79.926C70.3813 79.8585 70.4382 79.79 70.497 79.7235C70.7645 79.4181 71.0371 79.117 71.3146 78.8206L71.3641 78.7668C71.656 78.4573 71.9534 78.153 72.2562 77.8541C72.3194 77.7915 72.3841 77.7313 72.4473 77.6692C72.836 77.2896 73.234 76.9195 73.6409 76.5594C73.6781 76.5266 73.7149 76.4919 73.7521 76.4591C74.1676 76.0969 74.5928 75.7457 75.027 75.406C75.1089 75.3415 75.1907 75.2769 75.2731 75.2138C75.6931 74.8907 76.1224 74.5797 76.5602 74.2811C76.6367 74.2287 76.7141 74.1793 76.7911 74.128C77.2412 73.826 77.7009 73.5384 78.1694 73.2657C78.5714 73.034 78.9805 72.8149 79.3963 72.6088C79.533 72.5413 79.6668 72.4865 79.8026 72.4229C80.0697 72.2977 80.3374 72.1701 80.6011 72.061C80.9629 71.9105 81.3296 71.772 81.7005 71.6457C81.7858 71.6169 81.8686 71.5958 81.9534 71.5684C82.2536 71.4692 82.5566 71.379 82.8622 71.298C82.9154 70.7593 82.9859 70.2224 83.0739 69.6883C83.0837 69.6271 83.0911 69.5665 83.1014 69.5054C83.1822 69.0241 83.2837 68.5403 83.392 68.0561C83.4558 67.7719 83.5293 67.4877 83.6018 67.2031C83.6807 66.8944 83.7592 66.5858 83.8484 66.2772C83.9131 66.0536 83.9837 65.8306 84.0533 65.6071C84.3462 64.6656 84.6825 63.7381 85.061 62.8274C85.1218 62.6802 85.1792 62.533 85.2419 62.3862C85.4662 61.8618 85.7029 61.3427 85.9517 60.8294C85.9977 60.735 86.0477 60.6426 86.0943 60.5487C86.3046 60.1256 86.5227 59.7059 86.7491 59.2901C86.8383 59.1263 86.9305 58.9639 87.0221 58.801C87.2234 58.4451 87.4306 58.0926 87.6436 57.7436C87.7421 57.5822 87.8392 57.4198 87.9397 57.2598C88.1794 56.8798 88.4274 56.5066 88.6798 56.1363C88.7622 56.016 88.8406 55.8923 88.9239 55.7729C89.6337 54.7542 90.398 53.7743 91.2135 52.8377C91.6623 52.3246 92.1272 51.8258 92.6075 51.342C92.8679 51.0815 93.1331 50.8258 93.403 50.5751C93.5819 50.4068 93.7598 50.2366 93.9412 50.0747C94.2014 49.8451 94.466 49.6203 94.7347 49.4007C94.9097 49.2559 95.0823 49.1063 95.2597 48.9673C95.5562 48.7378 95.8578 48.515 96.1645 48.2992C96.316 48.1906 96.4655 48.0742 96.6184 47.97C97.0721 47.6604 97.5371 47.3675 98.0124 47.0921C98.3438 46.9013 98.6712 46.7287 98.9972 46.5648C99.0883 46.5188 99.179 46.4753 99.2697 46.4318C99.5265 46.308 99.7809 46.1921 100.034 46.085C100.111 46.0522 100.189 46.017 100.266 45.9857C100.499 45.8908 100.73 45.8047 100.959 45.7235C101.005 45.7074 101.052 45.6878 101.097 45.6727C101.366 45.5813 101.638 45.4979 101.912 45.4227C102.065 45.3811 102.215 45.3459 102.366 45.3102C102.449 45.2906 102.533 45.2672 102.616 45.2496C102.812 45.2075 103.005 45.1733 103.198 45.142C103.236 45.1356 103.274 45.1268 103.312 45.1209L103.327 45.119C103.66 45.0697 103.995 45.0366 104.331 45.0197C104.398 45.0158 104.466 45.0109 104.533 45.0089C104.798 44.9996 105.057 45.0035 105.313 45.0158L105.28 45.0495C105.155 45.1762 105.031 45.3029 104.907 45.4325C104.767 45.5792 104.629 45.7284 104.491 45.8786C104.369 46.0112 104.248 46.1449 104.129 46.2797C104.079 46.3359 104.028 46.3897 103.978 46.4464C103.816 46.6323 103.656 46.8206 103.498 47.0109L113.06 52.5565C113.382 52.1714 113.713 51.794 114.053 51.4247C114.193 51.275 114.331 51.1258 114.471 50.9796Z" fill="#B3DDB7"/>
<path d="M98.014 47.0936C105.438 42.8163 111.645 45.3147 113.062 52.557C115.081 50.1251 117.397 48.0753 119.866 46.6524C127.74 42.1159 134.145 45.7583 134.171 54.7874C134.171 55.0109 134.164 55.2393 134.156 55.4677C135.505 54.0586 136.973 52.8647 138.519 51.974C144.929 48.2807 150.144 51.2462 150.165 58.5966C150.186 65.952 145.005 74.9062 138.595 78.5995L78.2852 113.345C68.6306 118.908 60.7827 114.44 60.7513 103.375C60.7199 92.3046 68.5169 78.8284 78.1715 73.2662C79.7959 72.3305 81.3688 71.683 82.8643 71.299C83.7441 62.0703 90.1784 51.6081 98.014 47.0936Z" fill="#F3F5FA"/>
</svg>
