<svg width="187" height="199" viewBox="0 0 187 199" fill="none" xmlns="http://www.w3.org/2000/svg">
<path d="M159.052 96.3513C195.482 117.339 195.673 151.369 159.48 172.358C123.285 193.347 64.4108 193.347 27.9808 172.359C-8.45056 151.371 -8.6427 117.341 27.5519 96.3513C63.7461 75.3623 122.62 75.3618 159.052 96.3513Z" fill="#292D2C"/>
<path d="M186.499 134.619L186.468 145.519C186.429 159.185 177.429 172.831 159.448 183.258C123.254 204.247 64.3793 204.247 27.9494 183.259C9.61654 172.697 0.460426 158.833 0.500129 144.99L0.531003 134.091C0.49179 147.934 9.64791 161.798 27.9803 172.36C64.4102 193.348 123.284 193.348 159.479 172.358C177.46 161.931 186.46 148.285 186.499 134.619Z" fill="#373A39"/>
<path d="M31.1139 0.330437C29.7789 -0.438659 28.688 0.18142 28.6836 1.70675L28.5 66.2843C28.4956 67.8096 29.5794 69.6875 30.9143 70.4566L107.118 114.354C108.449 115.121 109.54 114.495 109.544 112.97L109.727 48.3923C109.732 46.867 108.648 44.9944 107.317 44.2279L31.1139 0.330437ZM33.6757 41.6075L33.71 29.6262C33.714 28.1798 34.7498 27.5913 36.0114 28.3178L102.274 66.4887C103.536 67.2157 104.564 68.9934 104.56 70.4398L104.526 82.4211C104.522 83.8675 103.486 84.4565 102.225 83.7295L35.962 45.5586C34.7004 44.832 33.6717 43.0544 33.6757 41.6075ZM33.6442 52.7106L33.6482 51.2483C33.6522 49.8019 34.6879 49.2133 35.9495 49.9398L102.212 88.1108C103.474 88.8378 104.503 90.6155 104.499 92.0619L104.495 93.5242C104.491 94.9706 103.455 95.5596 102.193 94.8326L35.9304 56.6617C34.6693 55.9352 33.6402 54.157 33.6442 52.7106ZM98.3138 45.1838C101.8 47.1921 104.612 52.0573 104.601 56.0496C104.589 60.0468 101.759 61.6564 98.2725 59.648C94.7904 57.6423 91.9738 52.7798 91.9849 48.7822C91.9969 44.7904 94.8317 43.1781 98.3138 45.1838ZM77.5721 90.3117C76.1727 89.5058 75.0298 87.5302 75.0342 85.9206C75.0387 84.311 76.1896 83.6568 77.5886 84.4631L101.93 98.4852C103.33 99.2911 104.472 101.267 104.468 102.876C104.464 104.486 103.313 105.14 101.914 104.334L77.5721 90.3117ZM36.1554 66.4532C34.756 65.6473 33.6131 63.6718 33.6175 62.0622C33.622 60.4526 34.7729 59.7984 36.1718 60.6047L43.9477 65.0841C45.3471 65.89 46.49 67.8659 46.4856 69.4751C46.4811 71.0847 45.3302 71.7389 43.9313 70.9325L36.1554 66.4532Z" fill="#97C5FA"/>
<path d="M121.566 46.3285C120.957 45.9781 120.459 46.2651 120.457 46.9624L120.373 76.4768C120.371 77.1744 120.866 78.0296 121.475 78.3804L156.304 98.4439C156.913 98.7943 157.414 98.5131 157.416 97.8154L157.5 68.301C157.502 67.6033 157.004 66.7424 156.395 66.392L121.566 46.3285ZM122.737 65.1949L122.753 59.7203C122.754 59.0603 123.23 58.7902 123.805 59.122L154.09 76.5677C154.669 76.9012 155.138 77.7151 155.136 78.3747L155.12 83.8493C155.118 84.5128 154.646 84.7811 154.067 84.4476L123.783 67.0019C123.207 66.6701 122.735 65.8584 122.737 65.1949ZM122.723 70.2694L122.725 69.6019C122.726 68.9419 123.202 68.6758 123.777 69.0071L154.062 86.4528C154.641 86.7864 155.11 87.5963 155.107 88.2563L155.106 88.9238C155.104 89.5873 154.632 89.8557 154.053 89.5221L123.768 72.0764C123.193 71.7451 122.721 70.9334 122.723 70.2694ZM152.28 66.8311C153.875 67.7501 155.16 69.9705 155.155 71.7992C155.149 73.6239 153.856 74.3593 152.261 73.4407C150.669 72.524 149.384 70.3031 149.39 68.4784C149.395 66.6493 150.688 65.9139 152.28 66.8311ZM142.8 87.4548C142.159 87.0853 141.638 86.1845 141.64 85.4495C141.642 84.7142 142.167 84.4161 142.808 84.7856L153.933 91.1943C154.574 91.5637 155.095 92.4646 155.093 93.1995C155.091 93.9349 154.566 94.233 153.925 93.8635L142.8 87.4548ZM123.871 76.5504C123.23 76.1809 122.709 75.2801 122.711 74.5452C122.713 73.8098 123.238 73.5117 123.879 73.8812L127.434 75.929C128.072 76.2967 128.596 77.1993 128.594 77.9342C128.592 78.6696 128.064 78.9659 127.426 78.5982L123.871 76.5504Z" fill="#EFEFF0"/>
<path d="M92.5943 74.0265C91.6408 73.4769 90.8553 73.92 90.8522 75.0169L90.7206 121.305C90.7175 122.403 91.4977 123.747 92.4513 124.296L147.078 155.764C148.032 156.314 148.817 155.87 148.82 154.774L148.952 108.485C148.955 107.388 148.175 106.043 147.221 105.494L92.5943 74.0265ZM94.4308 103.616L94.4552 95.0311C94.4583 93.9941 95.2003 93.5723 96.1049 94.0931L143.608 121.458C144.513 121.979 145.25 123.253 145.247 124.29L145.223 132.875C145.22 133.912 144.477 134.334 143.573 133.813L96.0693 106.449C95.1651 105.928 94.4277 104.653 94.4308 103.616ZM94.4081 111.579L94.4112 110.531C94.4143 109.494 95.1567 109.072 96.0609 109.593L143.565 136.958C144.469 137.479 145.206 138.753 145.204 139.79L145.201 140.838C145.197 141.875 144.455 142.297 143.551 141.776L96.0471 114.412C95.1425 113.89 94.405 112.616 94.4081 111.579ZM140.769 106.185C143.266 107.623 145.285 111.109 145.277 113.974C145.269 116.836 143.236 117.991 140.74 116.554C138.241 115.114 136.225 111.627 136.233 108.765C136.241 105.899 138.27 104.746 140.769 106.185ZM125.901 138.531C124.895 137.952 124.075 136.535 124.078 135.382C124.081 134.232 124.907 133.763 125.913 134.342L143.358 144.392C144.365 144.972 145.184 146.388 145.181 147.538C145.178 148.692 144.353 149.161 143.346 148.581L125.901 138.531ZM96.2116 121.428C95.2052 120.849 94.3859 119.432 94.389 118.279C94.3921 117.129 95.2172 116.66 96.2231 117.24L101.794 120.449C102.801 121.028 103.62 122.445 103.617 123.594C103.614 124.748 102.789 125.217 101.783 124.637L96.2116 121.428Z" fill="#B3DDB7"/>
</svg>
